<svg width="279" height="283" viewBox="0 0 279 283" fill="none" xmlns="http://www.w3.org/2000/svg">
<circle cx="20.8835" cy="74.2575" r="5.63545" fill="#226B70"/>
<circle cx="20.8835" cy="108.07" r="5.63545" fill="#226B70"/>
<circle cx="20.8835" cy="141.883" r="5.63545" fill="#226B70"/>
<circle cx="20.8835" cy="175.695" r="5.63545" fill="#226B70"/>
<circle cx="20.8835" cy="209.508" r="5.63545" fill="#226B70"/>
<circle cx="6.09052" cy="124.976" r="5.63545" fill="#226B70"/>
<circle cx="6.09052" cy="158.789" r="5.63545" fill="#226B70"/>
<circle cx="50.4694" cy="40.4448" r="5.63545" fill="#226B70"/>
<circle cx="50.4694" cy="74.2575" r="5.63545" fill="#226B70"/>
<circle cx="50.4694" cy="108.07" r="5.63545" fill="#226B70"/>
<circle cx="50.4694" cy="141.883" r="5.63545" fill="#226B70"/>
<circle cx="50.4694" cy="175.695" r="5.63545" fill="#226B70"/>
<circle cx="50.4694" cy="209.508" r="5.63545" fill="#226B70"/>
<circle cx="50.4694" cy="243.321" r="5.63545" fill="#226B70"/>
<circle cx="35.6765" cy="57.351" r="5.63545" fill="#226B70"/>
<circle cx="35.6765" cy="91.1638" r="5.63545" fill="#226B70"/>
<circle cx="9.61201" cy="91.1638" r="5.63545" fill="#226B70"/>
<circle cx="35.6765" cy="124.976" r="5.63545" fill="#226B70"/>
<circle cx="35.6765" cy="158.789" r="5.63545" fill="#226B70"/>
<circle cx="35.6765" cy="192.602" r="5.63545" fill="#226B70"/>
<circle cx="9.61201" cy="192.602" r="5.63545" fill="#226B70"/>
<circle cx="35.6765" cy="226.414" r="5.63545" fill="#226B70"/>
<circle cx="80.0554" cy="40.4448" r="5.63545" fill="#226B70"/>
<circle cx="80.0554" cy="74.2575" r="5.63545" fill="#226B70"/>
<circle cx="80.0554" cy="108.07" r="5.63545" fill="#226B70"/>
<circle cx="80.0554" cy="141.883" r="5.63545" fill="#226B70"/>
<circle cx="80.0554" cy="175.695" r="5.63545" fill="#226B70"/>
<circle cx="80.0554" cy="209.508" r="5.63545" fill="#226B70"/>
<circle cx="80.0554" cy="243.321" r="5.63545" fill="#226B70"/>
<circle cx="65.2624" cy="23.5383" r="5.63545" fill="#226B70"/>
<circle cx="65.2624" cy="57.351" r="5.63545" fill="#226B70"/>
<circle cx="65.2624" cy="91.1638" r="5.63545" fill="#226B70"/>
<circle cx="65.2624" cy="124.976" r="5.63545" fill="#226B70"/>
<circle cx="65.2624" cy="158.789" r="5.63545" fill="#226B70"/>
<circle cx="65.2624" cy="192.602" r="5.63545" fill="#226B70"/>
<circle cx="65.2624" cy="226.414" r="5.63545" fill="#226B70"/>
<circle cx="65.2624" cy="260.227" r="5.63545" fill="#226B70"/>
<circle cx="109.641" cy="6.63203" r="5.63545" fill="#226B70"/>
<circle cx="109.641" cy="40.4448" r="5.63545" fill="#226B70"/>
<circle cx="109.641" cy="74.2575" r="5.63545" fill="#226B70"/>
<circle cx="109.641" cy="108.07" r="5.63545" fill="#226B70"/>
<circle cx="109.641" cy="141.883" r="5.63545" fill="#226B70"/>
<circle cx="109.641" cy="175.695" r="5.63545" fill="#226B70"/>
<circle cx="109.641" cy="209.508" r="5.63545" fill="#226B70"/>
<circle cx="109.641" cy="243.321" r="5.63545" fill="#226B70"/>
<circle cx="109.641" cy="277.133" r="5.63545" fill="#226B70"/>
<circle cx="94.8483" cy="23.5383" r="5.63545" fill="#226B70"/>
<circle cx="94.8483" cy="57.351" r="5.63545" fill="#226B70"/>
<circle cx="94.8483" cy="91.1638" r="5.63545" fill="#226B70"/>
<circle cx="94.8483" cy="124.976" r="5.63545" fill="#226B70"/>
<circle cx="94.8483" cy="158.789" r="5.63545" fill="#226B70"/>
<circle cx="94.8483" cy="192.602" r="5.63545" fill="#226B70"/>
<circle cx="94.8483" cy="226.414" r="5.63545" fill="#226B70"/>
<circle cx="94.8483" cy="260.227" r="5.63545" fill="#226B70"/>
<circle cx="139.227" cy="6.63203" r="5.63545" fill="#226B70"/>
<circle cx="139.227" cy="40.4448" r="5.63545" fill="#226B70"/>
<circle cx="139.227" cy="74.2575" r="5.63545" fill="#226B70"/>
<circle cx="139.227" cy="108.07" r="5.63545" fill="#226B70"/>
<circle cx="139.227" cy="141.883" r="5.63545" fill="#226B70"/>
<circle cx="139.227" cy="175.695" r="5.63545" fill="#226B70"/>
<circle cx="139.227" cy="209.508" r="5.63545" fill="#226B70"/>
<circle cx="139.227" cy="243.321" r="5.63545" fill="#226B70"/>
<circle cx="139.227" cy="277.133" r="5.63545" fill="#226B70"/>
<circle cx="124.434" cy="23.5383" r="5.63545" fill="#226B70"/>
<circle cx="124.434" cy="57.351" r="5.63545" fill="#226B70"/>
<circle cx="124.434" cy="91.1638" r="5.63545" fill="#226B70"/>
<circle cx="124.434" cy="124.976" r="5.63545" fill="#226B70"/>
<circle cx="124.434" cy="158.789" r="5.63545" fill="#226B70"/>
<circle cx="124.434" cy="192.602" r="5.63545" fill="#226B70"/>
<circle cx="124.434" cy="226.414" r="5.63545" fill="#226B70"/>
<circle cx="124.434" cy="260.227" r="5.63545" fill="#226B70"/>
<circle cx="168.813" cy="6.63203" r="5.63545" fill="#226B70"/>
<circle cx="168.813" cy="40.4448" r="5.63545" fill="#226B70"/>
<circle cx="168.813" cy="74.2575" r="5.63545" fill="#226B70"/>
<circle cx="168.813" cy="108.07" r="5.63545" fill="#226B70"/>
<circle cx="168.813" cy="141.883" r="5.63545" fill="#226B70"/>
<circle cx="168.813" cy="175.695" r="5.63545" fill="#226B70"/>
<circle cx="168.813" cy="209.508" r="5.63545" fill="#226B70"/>
<circle cx="168.813" cy="243.321" r="5.63545" fill="#226B70"/>
<circle cx="168.813" cy="277.133" r="5.63545" fill="#226B70"/>
<circle cx="154.02" cy="23.5383" r="5.63545" fill="#226B70"/>
<circle cx="154.02" cy="57.351" r="5.63545" fill="#226B70"/>
<circle cx="154.02" cy="91.1638" r="5.63545" fill="#226B70"/>
<circle cx="154.02" cy="124.976" r="5.63545" fill="#226B70"/>
<circle cx="154.02" cy="158.789" r="5.63545" fill="#226B70"/>
<circle cx="154.02" cy="192.602" r="5.63545" fill="#226B70"/>
<circle cx="154.02" cy="226.414" r="5.63545" fill="#226B70"/>
<circle cx="154.02" cy="260.227" r="5.63545" fill="#226B70"/>
<circle cx="198.399" cy="40.4448" r="5.63545" fill="#226B70"/>
<circle cx="198.399" cy="74.2575" r="5.63545" fill="#226B70"/>
<circle cx="198.399" cy="108.07" r="5.63545" fill="#226B70"/>
<circle cx="198.399" cy="141.883" r="5.63545" fill="#226B70"/>
<circle cx="198.399" cy="175.695" r="5.63545" fill="#226B70"/>
<circle cx="198.399" cy="209.508" r="5.63545" fill="#226B70"/>
<circle cx="198.399" cy="243.321" r="5.63545" fill="#226B70"/>
<circle cx="183.606" cy="23.5383" r="5.63545" fill="#226B70"/>
<circle cx="183.606" cy="57.351" r="5.63545" fill="#226B70"/>
<circle cx="183.606" cy="91.1638" r="5.63545" fill="#226B70"/>
<circle cx="183.606" cy="124.976" r="5.63545" fill="#226B70"/>
<circle cx="183.606" cy="158.789" r="5.63545" fill="#226B70"/>
<circle cx="183.606" cy="192.602" r="5.63545" fill="#226B70"/>
<circle cx="183.606" cy="226.414" r="5.63545" fill="#226B70"/>
<circle cx="183.606" cy="260.227" r="5.63545" fill="#226B70"/>
<circle cx="227.987" cy="40.4448" r="5.63545" fill="#226B70"/>
<circle cx="227.987" cy="74.2575" r="5.63545" fill="#226B70"/>
<circle cx="227.987" cy="108.07" r="5.63545" fill="#226B70"/>
<circle cx="227.987" cy="141.883" r="5.63545" fill="#226B70"/>
<circle cx="227.987" cy="175.695" r="5.63545" fill="#226B70"/>
<circle cx="227.987" cy="209.508" r="5.63545" fill="#226B70"/>
<circle cx="227.987" cy="243.321" r="5.63545" fill="#226B70"/>
<circle cx="213.194" cy="23.5383" r="5.63545" fill="#226B70"/>
<circle cx="213.194" cy="57.351" r="5.63545" fill="#226B70"/>
<circle cx="213.194" cy="91.1638" r="5.63545" fill="#226B70"/>
<circle cx="213.194" cy="124.976" r="5.63545" fill="#226B70"/>
<circle cx="213.194" cy="158.789" r="5.63545" fill="#226B70"/>
<circle cx="213.194" cy="192.602" r="5.63545" fill="#226B70"/>
<circle cx="213.194" cy="226.414" r="5.63545" fill="#226B70"/>
<circle cx="213.194" cy="260.227" r="5.63545" fill="#226B70"/>
<circle cx="257.571" cy="74.2575" r="5.63545" fill="#226B70"/>
<circle cx="257.571" cy="108.07" r="5.63545" fill="#226B70"/>
<circle cx="257.571" cy="141.883" r="5.63545" fill="#226B70"/>
<circle cx="257.571" cy="175.695" r="5.63545" fill="#226B70"/>
<circle cx="257.571" cy="209.508" r="5.63545" fill="#226B70"/>
<circle cx="242.778" cy="57.351" r="5.63545" fill="#226B70"/>
<circle cx="242.778" cy="91.1638" r="5.63545" fill="#226B70"/>
<circle cx="266.729" cy="91.1638" r="5.63545" fill="#226B70"/>
<circle cx="242.778" cy="124.976" r="5.63545" fill="#226B70"/>
<circle cx="242.778" cy="158.789" r="5.63545" fill="#226B70"/>
<circle cx="242.778" cy="192.602" r="5.63545" fill="#226B70"/>
<circle cx="272.366" cy="192.602" r="5.63545" fill="#226B70"/>
<circle cx="242.778" cy="226.414" r="5.63545" fill="#226B70"/>
<circle cx="272.366" cy="124.976" r="5.63545" fill="#226B70"/>
<circle cx="272.366" cy="158.789" r="5.63545" fill="#226B70"/>
</svg>
