<svg width="109" height="108" viewBox="0 0 109 108" fill="none" xmlns="http://www.w3.org/2000/svg">
<path d="M2.91892 21.8921C1.30684 20.28 1.30684 17.6663 2.91891 16.0542L16.054 2.91911C17.6661 1.30704 20.2798 1.30704 21.8919 2.91911L105.081 86.1082C106.693 87.7203 106.693 90.3339 105.081 91.946L91.9458 105.081C90.3337 106.693 87.7201 106.693 86.108 105.081L2.91892 21.8921Z" fill="#226B70"/>
<path d="M86.2373 2.91892C87.8494 1.30684 90.4631 1.30684 92.0752 2.91891L105.21 16.054C106.822 17.6661 106.822 20.2798 105.21 21.8919L22.0212 105.081C20.4091 106.693 17.7955 106.693 16.1834 105.081L3.04827 91.9458C1.43619 90.3337 1.43619 87.7201 3.04827 86.108L86.2373 2.91892Z" fill="#226B70"/>
</svg>
