<svg width="168" height="154" viewBox="0 0 168 154" fill="none" xmlns="http://www.w3.org/2000/svg">
<mask id="mask0_675_2129" style="mask-type:alpha" maskUnits="userSpaceOnUse" x="11" y="0" width="146" height="115">
<path d="M11.7523 114.704L83.8566 0.586297L155.961 114.704H11.7523Z" fill="#D9D9D9" stroke="#2D2D2D" stroke-width="0.570533"/>
</mask>
<g mask="url(#mask0_675_2129)">
<path d="M3.38477 3.43701H164.328" stroke="#226B70" stroke-width="1.14107"/>
<path d="M3.38477 7.74561H164.328" stroke="#226B70" stroke-width="1.14107"/>
<path d="M3.38477 12.0537H164.328" stroke="#226B70" stroke-width="1.14107"/>
<path d="M3.38477 16.3618H164.328" stroke="#226B70" stroke-width="1.14107"/>
<path d="M3.38477 20.6704H164.328" stroke="#226B70" stroke-width="1.14107"/>
<path d="M3.38477 24.9785H164.328" stroke="#226B70" stroke-width="1.14107"/>
<path d="M3.38477 29.2866H164.328" stroke="#226B70" stroke-width="1.14107"/>
<path d="M3.38477 33.5947H164.328" stroke="#226B70" stroke-width="1.14107"/>
<path d="M3.38477 37.9028H164.328" stroke="#226B70" stroke-width="1.14107"/>
<path d="M3.38477 42.2109H164.328" stroke="#226B70" stroke-width="1.14107"/>
<path d="M3.38477 46.5195H164.328" stroke="#226B70" stroke-width="1.14107"/>
<path d="M3.38477 50.8276H164.328" stroke="#226B70" stroke-width="1.14107"/>
<path d="M3.38477 55.1357H164.328" stroke="#226B70" stroke-width="1.14107"/>
<path d="M3.38477 59.4443H164.328" stroke="#226B70" stroke-width="1.14107"/>
<path d="M3.38477 63.7524H164.328" stroke="#226B70" stroke-width="1.14107"/>
<path d="M3.38477 68.0605H164.328" stroke="#226B70" stroke-width="1.14107"/>
<path d="M3.38477 72.3687H164.328" stroke="#226B70" stroke-width="1.14107"/>
<path d="M3.38477 76.6772H164.328" stroke="#226B70" stroke-width="1.14107"/>
<path d="M3.38477 80.9854H164.328" stroke="#226B70" stroke-width="1.14107"/>
<path d="M3.38477 85.2935H164.328" stroke="#226B70" stroke-width="1.14107"/>
<path d="M3.38477 89.6021H164.328" stroke="#226B70" stroke-width="1.14107"/>
<path d="M3.38477 93.9102H164.328" stroke="#226B70" stroke-width="1.14107"/>
<path d="M3.38477 98.2183H164.328" stroke="#226B70" stroke-width="1.14107"/>
<path d="M3.38477 102.526H164.328" stroke="#226B70" stroke-width="1.14107"/>
<path d="M3.38477 106.834H164.328" stroke="#226B70" stroke-width="1.14107"/>
<path d="M3.38477 111.143H164.328" stroke="#226B70" stroke-width="1.14107"/>
<path d="M3.38477 115.451H164.328" stroke="#226B70" stroke-width="1.14107"/>
</g>
</svg>
