<svg width="200" height="198" viewBox="0 0 200 198" fill="none" xmlns="http://www.w3.org/2000/svg">
<path d="M82.2925 44.1535C78.4542 33.5897 74.672 23.1825 70.7656 12.4339C90.1613 6.26831 109.353 6.3366 128.884 12.3656C128.496 13.5545 128.184 14.6109 127.812 15.6432C124.606 24.504 121.372 33.3567 118.194 42.2255C117.702 43.6032 117.27 44.278 115.516 43.788C104.794 40.7916 94.0556 40.9402 83.3452 43.9567C83.097 44.029 82.8329 44.0491 82.2925 44.1455V44.1535Z" fill="#FED007"/>
<path d="M192.142 123.246C191.546 125.6 191.134 127.492 190.585 129.347C186.731 142.398 180.363 154.098 171.626 164.485C169.485 167.028 167.015 169.293 164.71 171.695C163.765 172.679 163.093 172.908 162.024 171.607C155.721 163.935 149.325 156.339 142.921 148.752C142.02 147.687 141.904 146.884 142.949 145.844C150.686 138.144 155.841 128.926 158.654 118.398C159.091 116.771 159.975 116.852 161.16 117.064C168.961 118.454 176.761 119.84 184.562 121.226C186.527 121.575 188.504 121.864 190.453 122.294C191.074 122.431 191.61 122.937 192.138 123.246H192.142Z" fill="#E3211E"/>
<path d="M7.73828 123.378C8.41469 123.041 9.15113 122.451 9.96762 122.298C15.527 121.254 21.1063 120.306 26.6736 119.318C30.7361 118.599 34.8065 117.908 38.857 117.104C40.1657 116.843 40.6901 117.321 40.9902 118.498C42.8153 125.636 45.8852 132.223 50.1517 138.192C52.1529 140.996 54.5023 143.57 56.8958 146.057C57.8283 147.025 57.6762 147.583 57.0078 148.386C54.1942 151.768 51.3725 155.142 48.5548 158.52C45.1407 162.613 41.6987 166.686 38.3246 170.811C36.7557 172.731 36.3555 172.868 34.5704 171.117C26.0693 162.786 19.005 153.375 14.3462 142.365C11.9408 136.674 10.1597 130.713 8.1025 124.873C7.99043 124.559 7.9424 124.226 7.73828 123.378V123.378Z" fill="#223B74"/>
<path d="M99.8042 122.99C88.6775 122.969 79.6361 113.832 79.6641 102.625C79.6921 91.4627 88.8536 82.3329 99.9603 82.4011C111.087 82.4694 120.128 91.6114 120.124 102.786C120.12 113.908 110.963 123.01 99.8042 122.99Z" fill="#D9D9D9"/>
<path d="M187.777 103.825C187.633 105.874 187.341 109.336 187.173 112.807C187.101 114.289 186.485 114.602 185.14 114.357C178.132 113.084 171.107 111.899 164.103 110.598C160.297 109.891 160.413 109.818 160.597 105.874C161.049 96.1014 159.332 86.7104 155.286 77.7854C154.105 75.1785 154.049 75.1946 156.451 73.8008C162.842 70.0894 169.25 66.4102 175.614 62.6425C177.071 61.7789 177.815 61.8512 178.632 63.5141C184.636 75.7851 187.645 88.7428 187.781 103.821L187.777 103.825Z" fill="#E8521F"/>
<path d="M174.05 55.5816C173.485 55.9954 173.041 56.381 172.545 56.6661C165.913 60.5221 159.249 64.3139 152.657 68.2382C151.16 69.1299 150.444 68.8969 149.463 67.5031C143.219 58.6223 135.142 51.8984 125.304 47.3475C124.232 46.8494 123.92 46.3513 124.336 45.2186C127.126 37.6231 129.883 30.0156 132.613 22.4C133.029 21.2391 133.613 21.2432 134.594 21.677C143.695 25.7137 151.96 31.0318 159.281 37.8079C164.2 42.3628 168.578 47.3836 172.357 52.9266C172.917 53.746 173.425 54.5976 174.05 55.5816Z" fill="#F2921B"/>
<path d="M103.335 177.182C103.335 173.435 103.407 169.687 103.303 165.939C103.259 164.329 103.808 163.654 105.396 163.521C112.581 162.935 119.441 161.047 125.909 157.882C128.827 156.456 131.608 154.725 134.354 152.974C135.771 152.07 136.631 151.929 137.828 153.416C142.483 159.175 147.29 164.811 152.04 170.49C153.549 172.298 153.501 172.459 151.584 173.864C141.314 181.396 129.911 186.408 117.488 188.991C113.457 189.831 109.307 190.08 105.212 190.614C103.816 190.799 103.311 190.224 103.335 188.818C103.395 184.938 103.355 181.058 103.355 177.174H103.339L103.335 177.182Z" fill="#E52E31"/>
<path d="M44.9442 74.9982C43.2872 80.4407 41.5181 85.4776 40.2414 90.6431C38.8365 96.3186 38.6444 102.155 39.2248 107.983C39.3368 109.092 39.4369 109.843 37.952 110.092C30.1993 111.397 22.4587 112.775 14.7261 114.213C13.3252 114.474 12.8369 114.153 12.6888 112.719C10.9318 95.5956 13.6054 79.2719 21.1899 63.7756C21.9984 62.1247 22.6428 61.9681 24.1677 62.8718C30.4115 66.5792 36.7273 70.1621 43.015 73.7972C43.7595 74.227 44.4759 74.7009 44.9442 74.9941V74.9982Z" fill="#02AB9E"/>
<path d="M66.1563 21.5245C66.4725 21.9463 66.9248 22.3319 67.1049 22.8219C69.8305 30.2889 72.5121 37.772 75.2298 45.247C75.602 46.2712 75.3578 46.7452 74.3252 47.2272C64.4633 51.8423 56.2784 58.51 50.0987 67.5395C49.2582 68.7686 48.5378 68.881 47.321 68.1661C40.7131 64.286 34.0771 60.4541 27.4451 56.6222C26.3725 56.0036 25.8802 55.4734 26.7687 54.1399C36.2424 39.945 48.7259 29.345 64.2272 22.3158C64.7715 22.0708 65.3318 21.8619 66.1563 21.5286V21.5245Z" fill="#109439"/>
<path d="M96.2393 177.306C96.2393 180.917 96.1472 184.528 96.2793 188.131C96.3473 190.007 95.7029 190.734 93.8899 190.424C88.1904 189.464 82.3549 188.986 76.8276 187.404C70.86 185.697 65.0566 183.222 59.4212 180.571C55.4788 178.72 51.9367 176.012 48.2184 173.683C46.7656 172.771 46.6455 171.835 47.8262 170.461C52.6731 164.806 57.468 159.098 62.1948 153.342C63.1274 152.206 63.7718 152.093 64.9645 152.937C72.8692 158.528 81.6865 161.854 91.2082 163.372C91.4044 163.404 91.6005 163.452 91.8006 163.46C97.1358 163.653 96.1912 163.81 96.2993 168.674C96.3633 171.546 96.3113 174.422 96.3113 177.298C96.2873 177.298 96.2593 177.298 96.2353 177.298L96.2393 177.306Z" fill="#5E2581"/>
<path d="M47.4863 115.506C52.2932 114.638 56.7959 113.819 61.2986 113.024C64.9688 112.377 68.651 111.815 72.3092 111.108C73.4899 110.879 73.9822 111.108 74.5626 112.269C75.8834 114.94 77.4563 117.49 79.0653 120.005C79.6256 120.884 79.7377 121.451 79.0533 122.266C73.9062 128.379 68.7791 134.517 63.664 140.654C63.0677 141.369 62.4993 141.775 61.7029 140.968C54.7227 133.878 50.0158 125.52 47.4903 115.498L47.4863 115.506Z" fill="#0BACD9"/>
<path d="M137.216 141.861C136.76 141.431 136.495 141.23 136.291 140.981C130.82 134.43 125.353 127.875 120.102 121.585C121.955 118.13 123.676 114.853 125.485 111.627C125.697 111.246 126.441 110.872 126.866 110.944C135.067 112.354 143.255 113.828 151.444 115.303C151.685 115.347 151.905 115.519 152.277 115.704C149.731 125.834 144.812 134.494 137.22 141.861H137.216Z" fill="#F08C78"/>
<path d="M55.2246 72.6125C58.7747 65.6315 71.3743 55.0797 78.3145 53.3606C79.263 55.9433 80.2356 58.5541 81.1842 61.169C83.0733 66.3746 84.9064 71.6003 86.8596 76.7818C87.3439 78.0631 87.2078 78.6335 85.9991 79.489C83.6256 81.164 81.4724 83.1683 79.3271 85.1445C78.5986 85.8153 78.1304 86.1848 77.1418 85.6064C70.1296 81.5094 63.0853 77.4686 56.0571 73.3917C55.7289 73.2029 55.4888 72.8615 55.2246 72.6085V72.6125Z" fill="#4DB385"/>
<path d="M46.2209 108.384C45.1122 98.3745 46.8253 88.9756 50.8997 79.9581C51.34 78.9861 51.8763 78.8375 52.7688 79.3556C59.737 83.4085 66.7332 87.4211 73.6654 91.5342C74.1337 91.8113 74.4619 92.8396 74.3738 93.4501C73.9255 96.6072 73.3612 99.7523 72.7368 102.881C72.6368 103.383 72.0684 104.102 71.6201 104.183C63.4272 105.677 55.2223 107.091 47.0174 108.509C46.8373 108.541 46.6372 108.452 46.2209 108.38V108.384Z" fill="#41B7B8"/>
<path d="M148.344 78.9183C152.819 88.2732 154.676 97.9975 153.544 108.614C152.051 108.389 150.702 108.216 149.361 107.983C142.537 106.79 135.725 105.557 128.893 104.404C127.484 104.167 127.02 103.657 126.888 102.123C126.643 99.2828 125.883 96.4953 125.443 93.6675C125.343 93.0289 125.455 91.9444 125.851 91.7074C133.071 87.4297 140.348 83.2483 147.616 79.0509C147.724 78.9906 147.872 78.9987 148.336 78.9183H148.344Z" fill="#F29F6C"/>
<path d="M144.788 72.7046C139.304 75.8898 134.069 78.9345 128.834 81.9791C126.817 83.152 124.776 84.2847 122.786 85.5057C121.842 86.0841 121.318 86.0078 120.441 85.1764C118.232 83.0716 115.77 81.24 113.489 79.2076C113.037 78.8019 112.556 77.8701 112.72 77.4041C115.526 69.4712 118.432 61.5704 121.326 53.6656C121.366 53.5572 121.51 53.4808 121.774 53.2318C131.167 57.4493 138.796 63.8358 144.788 72.7006V72.7046Z" fill="#F8BD72"/>
<path d="M84.8906 50.7095C94.8926 47.7974 104.799 47.8416 115.037 50.7296C114.072 53.4248 113.188 55.9191 112.283 58.4054C110.326 63.8038 108.325 69.1862 106.424 74.6046C106.019 75.7614 105.535 76.0466 104.274 75.9743C101.304 75.8016 98.3187 75.9864 95.3409 75.906C94.7165 75.89 93.7239 75.5004 93.5518 75.0384C90.6541 67.2863 87.8564 59.4939 85.0427 51.7056C84.9547 51.4686 84.9587 51.1955 84.8906 50.7135V50.7095Z" fill="#FBEC72"/>
<path d="M103.335 156.773C103.335 155.432 103.335 154.448 103.335 153.464C103.335 146.181 103.351 138.899 103.303 131.617C103.295 130.288 103.615 129.701 105.048 129.299C107.842 128.516 110.503 127.271 113.261 126.331C113.849 126.13 114.914 126.142 115.23 126.512C120.673 132.906 126.037 139.373 131.408 145.828C131.484 145.92 131.488 146.077 131.612 146.487C123.315 152.54 114.029 155.958 103.335 156.773V156.773Z" fill="#ED7C83"/>
<path d="M68.0859 146.474C68.4702 145.856 68.6983 145.374 69.0265 144.98C74.0255 138.995 79.0685 133.047 84.0275 127.03C84.924 125.941 85.5644 125.889 86.8452 126.463C89.4387 127.62 92.1604 128.492 94.866 129.375C95.7465 129.665 96.443 129.777 96.4389 130.986C96.3869 139.204 96.4029 147.418 96.3869 155.636C96.3869 155.894 96.2949 156.147 96.1908 156.701C85.8286 156.038 76.595 152.528 68.0859 146.474V146.474Z" fill="#B983B7"/>
</svg>
