<svg width="33" height="33" viewBox="0 0 33 33" fill="none" xmlns="http://www.w3.org/2000/svg">
<path d="M16.4586 0.225708C7.61125 0.225708 0.4375 7.39945 0.4375 16.2468C0.4375 25.0942 7.61125 32.268 16.4586 32.268C25.306 32.268 32.4798 25.0942 32.4798 16.2468C32.4798 7.39945 25.306 0.225708 16.4586 0.225708ZM23.3785 11.0149L15.8471 21.4573C15.7418 21.6042 15.6031 21.7239 15.4423 21.8065C15.2815 21.8891 15.1034 21.9322 14.9227 21.9322C14.7419 21.9322 14.5638 21.8891 14.403 21.8065C14.2423 21.7239 14.1035 21.6042 13.9982 21.4573L9.53879 15.2777C9.40289 15.0882 9.53879 14.8235 9.77124 14.8235H11.4484C11.8132 14.8235 12.1601 14.9988 12.3747 15.2992L14.9209 18.8324L20.5426 11.0364C20.7572 10.7396 21.1005 10.5608 21.4688 10.5608H23.146C23.3785 10.5608 23.5144 10.8254 23.3785 11.0149Z" fill="#0AFF00"/>
</svg>
