<svg width="89" height="90" viewBox="0 0 89 90" fill="none" xmlns="http://www.w3.org/2000/svg">
<circle cx="7.32905" cy="23.5097" r="1.78804" fill="#00EFD8"/>
<circle cx="7.32905" cy="34.2377" r="1.78804" fill="#00EFD8"/>
<circle cx="7.32905" cy="44.9658" r="1.78804" fill="#00EFD8"/>
<circle cx="7.32905" cy="55.6943" r="1.78804" fill="#00EFD8"/>
<circle cx="7.32905" cy="66.4223" r="1.78804" fill="#00EFD8"/>
<circle cx="2.63569" cy="39.602" r="1.78804" fill="#00EFD8"/>
<circle cx="2.63569" cy="50.33" r="1.78804" fill="#00EFD8"/>
<circle cx="16.7158" cy="12.7812" r="1.78804" fill="#00EFD8"/>
<circle cx="16.7158" cy="23.5097" r="1.78804" fill="#00EFD8"/>
<circle cx="16.7158" cy="34.2377" r="1.78804" fill="#00EFD8"/>
<circle cx="16.7158" cy="44.9658" r="1.78804" fill="#00EFD8"/>
<circle cx="16.7158" cy="55.6943" r="1.78804" fill="#00EFD8"/>
<circle cx="16.7158" cy="66.4223" r="1.78804" fill="#00EFD8"/>
<circle cx="16.7158" cy="77.1508" r="1.78804" fill="#00EFD8"/>
<circle cx="12.0244" cy="18.1455" r="1.78804" fill="#00EFD8"/>
<circle cx="12.0244" cy="28.8735" r="1.78804" fill="#00EFD8"/>
<circle cx="3.75288" cy="28.8735" r="1.78804" fill="#00EFD8"/>
<circle cx="12.0244" cy="39.602" r="1.78804" fill="#00EFD8"/>
<circle cx="12.0244" cy="50.33" r="1.78804" fill="#00EFD8"/>
<circle cx="12.0244" cy="61.0581" r="1.78804" fill="#00EFD8"/>
<circle cx="3.75288" cy="61.0581" r="1.78804" fill="#00EFD8"/>
<circle cx="12.0244" cy="71.7866" r="1.78804" fill="#00EFD8"/>
<circle cx="26.1044" cy="12.7812" r="1.78804" fill="#00EFD8"/>
<circle cx="26.1044" cy="23.5097" r="1.78804" fill="#00EFD8"/>
<circle cx="26.1044" cy="34.2377" r="1.78804" fill="#00EFD8"/>
<circle cx="26.1044" cy="44.9658" r="1.78804" fill="#00EFD8"/>
<circle cx="26.1044" cy="55.6943" r="1.78804" fill="#00EFD8"/>
<circle cx="26.1044" cy="66.4223" r="1.78804" fill="#00EFD8"/>
<circle cx="26.1044" cy="77.1508" r="1.78804" fill="#00EFD8"/>
<circle cx="21.4091" cy="7.41743" r="1.78804" fill="#00EFD8"/>
<circle cx="21.4091" cy="18.1455" r="1.78804" fill="#00EFD8"/>
<circle cx="21.4091" cy="28.8735" r="1.78804" fill="#00EFD8"/>
<circle cx="21.4091" cy="39.602" r="1.78804" fill="#00EFD8"/>
<circle cx="21.4091" cy="50.33" r="1.78804" fill="#00EFD8"/>
<circle cx="21.4091" cy="61.0581" r="1.78804" fill="#00EFD8"/>
<circle cx="21.4091" cy="71.7866" r="1.78804" fill="#00EFD8"/>
<circle cx="21.4091" cy="82.5151" r="1.78804" fill="#00EFD8"/>
<circle cx="35.4912" cy="2.05318" r="1.78804" fill="#00EFD8"/>
<circle cx="35.4912" cy="12.7812" r="1.78804" fill="#00EFD8"/>
<circle cx="35.4912" cy="23.5097" r="1.78804" fill="#00EFD8"/>
<circle cx="35.4912" cy="34.2377" r="1.78804" fill="#00EFD8"/>
<circle cx="35.4912" cy="44.9658" r="1.78804" fill="#00EFD8"/>
<circle cx="35.4912" cy="55.6943" r="1.78804" fill="#00EFD8"/>
<circle cx="35.4912" cy="66.4223" r="1.78804" fill="#00EFD8"/>
<circle cx="35.4912" cy="77.1508" r="1.78804" fill="#00EFD8"/>
<circle cx="35.4912" cy="87.8789" r="1.78804" fill="#00EFD8"/>
<circle cx="30.7978" cy="7.41743" r="1.78804" fill="#00EFD8"/>
<circle cx="30.7978" cy="18.1455" r="1.78804" fill="#00EFD8"/>
<circle cx="30.7978" cy="28.8735" r="1.78804" fill="#00EFD8"/>
<circle cx="30.7978" cy="39.602" r="1.78804" fill="#00EFD8"/>
<circle cx="30.7978" cy="50.33" r="1.78804" fill="#00EFD8"/>
<circle cx="30.7978" cy="61.0581" r="1.78804" fill="#00EFD8"/>
<circle cx="30.7978" cy="71.7866" r="1.78804" fill="#00EFD8"/>
<circle cx="30.7978" cy="82.5151" r="1.78804" fill="#00EFD8"/>
<circle cx="44.8779" cy="2.05318" r="1.78804" fill="#00EFD8"/>
<circle cx="44.8779" cy="12.7812" r="1.78804" fill="#00EFD8"/>
<circle cx="44.8779" cy="23.5097" r="1.78804" fill="#00EFD8"/>
<circle cx="44.8779" cy="34.2377" r="1.78804" fill="#00EFD8"/>
<circle cx="44.8779" cy="44.9658" r="1.78804" fill="#00EFD8"/>
<circle cx="44.8779" cy="55.6943" r="1.78804" fill="#00EFD8"/>
<circle cx="44.8779" cy="66.4223" r="1.78804" fill="#00EFD8"/>
<circle cx="44.8779" cy="77.1508" r="1.78804" fill="#00EFD8"/>
<circle cx="44.8779" cy="87.8789" r="1.78804" fill="#00EFD8"/>
<circle cx="40.1845" cy="7.41743" r="1.78804" fill="#00EFD8"/>
<circle cx="40.1845" cy="18.1455" r="1.78804" fill="#00EFD8"/>
<circle cx="40.1845" cy="28.8735" r="1.78804" fill="#00EFD8"/>
<circle cx="40.1845" cy="39.602" r="1.78804" fill="#00EFD8"/>
<circle cx="40.1845" cy="50.33" r="1.78804" fill="#00EFD8"/>
<circle cx="40.1845" cy="61.0581" r="1.78804" fill="#00EFD8"/>
<circle cx="40.1845" cy="71.7866" r="1.78804" fill="#00EFD8"/>
<circle cx="40.1845" cy="82.5151" r="1.78804" fill="#00EFD8"/>
<circle cx="54.2646" cy="2.05318" r="1.78804" fill="#00EFD8"/>
<circle cx="54.2646" cy="12.7812" r="1.78804" fill="#00EFD8"/>
<circle cx="54.2646" cy="23.5097" r="1.78804" fill="#00EFD8"/>
<circle cx="54.2646" cy="34.2377" r="1.78804" fill="#00EFD8"/>
<circle cx="54.2646" cy="44.9658" r="1.78804" fill="#00EFD8"/>
<circle cx="54.2646" cy="55.6943" r="1.78804" fill="#00EFD8"/>
<circle cx="54.2646" cy="66.4223" r="1.78804" fill="#00EFD8"/>
<circle cx="54.2646" cy="77.1508" r="1.78804" fill="#00EFD8"/>
<circle cx="54.2646" cy="87.8789" r="1.78804" fill="#00EFD8"/>
<circle cx="49.5712" cy="7.41743" r="1.78804" fill="#00EFD8"/>
<circle cx="49.5712" cy="18.1455" r="1.78804" fill="#00EFD8"/>
<circle cx="49.5712" cy="28.8735" r="1.78804" fill="#00EFD8"/>
<circle cx="49.5712" cy="39.602" r="1.78804" fill="#00EFD8"/>
<circle cx="49.5712" cy="50.33" r="1.78804" fill="#00EFD8"/>
<circle cx="49.5712" cy="61.0581" r="1.78804" fill="#00EFD8"/>
<circle cx="49.5712" cy="71.7866" r="1.78804" fill="#00EFD8"/>
<circle cx="49.5712" cy="82.5151" r="1.78804" fill="#00EFD8"/>
<circle cx="63.6533" cy="12.7812" r="1.78804" fill="#00EFD8"/>
<circle cx="63.6533" cy="23.5097" r="1.78804" fill="#00EFD8"/>
<circle cx="63.6533" cy="34.2377" r="1.78804" fill="#00EFD8"/>
<circle cx="63.6533" cy="44.9658" r="1.78804" fill="#00EFD8"/>
<circle cx="63.6533" cy="55.6943" r="1.78804" fill="#00EFD8"/>
<circle cx="63.6533" cy="66.4223" r="1.78804" fill="#00EFD8"/>
<circle cx="63.6533" cy="77.1508" r="1.78804" fill="#00EFD8"/>
<circle cx="58.958" cy="7.41743" r="1.78804" fill="#00EFD8"/>
<circle cx="58.958" cy="18.1455" r="1.78804" fill="#00EFD8"/>
<circle cx="58.958" cy="28.8735" r="1.78804" fill="#00EFD8"/>
<circle cx="58.958" cy="39.602" r="1.78804" fill="#00EFD8"/>
<circle cx="58.958" cy="50.33" r="1.78804" fill="#00EFD8"/>
<circle cx="58.958" cy="61.0581" r="1.78804" fill="#00EFD8"/>
<circle cx="58.958" cy="71.7866" r="1.78804" fill="#00EFD8"/>
<circle cx="58.958" cy="82.5151" r="1.78804" fill="#00EFD8"/>
<circle cx="73.04" cy="12.7812" r="1.78804" fill="#00EFD8"/>
<circle cx="73.04" cy="23.5097" r="1.78804" fill="#00EFD8"/>
<circle cx="73.04" cy="34.2377" r="1.78804" fill="#00EFD8"/>
<circle cx="73.04" cy="44.9658" r="1.78804" fill="#00EFD8"/>
<circle cx="73.04" cy="55.6943" r="1.78804" fill="#00EFD8"/>
<circle cx="73.04" cy="66.4223" r="1.78804" fill="#00EFD8"/>
<circle cx="73.04" cy="77.1508" r="1.78804" fill="#00EFD8"/>
<circle cx="68.3466" cy="7.41743" r="1.78804" fill="#00EFD8"/>
<circle cx="68.3466" cy="18.1455" r="1.78804" fill="#00EFD8"/>
<circle cx="68.3466" cy="28.8735" r="1.78804" fill="#00EFD8"/>
<circle cx="68.3466" cy="39.602" r="1.78804" fill="#00EFD8"/>
<circle cx="68.3466" cy="50.33" r="1.78804" fill="#00EFD8"/>
<circle cx="68.3466" cy="61.0581" r="1.78804" fill="#00EFD8"/>
<circle cx="68.3466" cy="71.7866" r="1.78804" fill="#00EFD8"/>
<circle cx="68.3466" cy="82.5151" r="1.78804" fill="#00EFD8"/>
<circle cx="82.4267" cy="23.5097" r="1.78804" fill="#00EFD8"/>
<circle cx="82.4267" cy="34.2377" r="1.78804" fill="#00EFD8"/>
<circle cx="82.4267" cy="44.9658" r="1.78804" fill="#00EFD8"/>
<circle cx="82.4267" cy="55.6943" r="1.78804" fill="#00EFD8"/>
<circle cx="82.4267" cy="66.4223" r="1.78804" fill="#00EFD8"/>
<circle cx="77.7334" cy="18.1455" r="1.78804" fill="#00EFD8"/>
<circle cx="77.7334" cy="28.8735" r="1.78804" fill="#00EFD8"/>
<circle cx="85.333" cy="28.8735" r="1.78804" fill="#00EFD8"/>
<circle cx="77.7334" cy="39.602" r="1.78804" fill="#00EFD8"/>
<circle cx="77.7334" cy="50.33" r="1.78804" fill="#00EFD8"/>
<circle cx="77.7334" cy="61.0581" r="1.78804" fill="#00EFD8"/>
<circle cx="87.1201" cy="61.0581" r="1.78804" fill="#00EFD8"/>
<circle cx="77.7334" cy="71.7866" r="1.78804" fill="#00EFD8"/>
<circle cx="87.1201" cy="39.602" r="1.78804" fill="#00EFD8"/>
<circle cx="87.1201" cy="50.33" r="1.78804" fill="#00EFD8"/>
</svg>
