<svg width="126" height="128" viewBox="0 0 126 128" fill="none" xmlns="http://www.w3.org/2000/svg">
<circle cx="9.61898" cy="33.3304" r="2.535" fill="#00EFD8"/>
<circle cx="9.61898" cy="48.5404" r="2.535" fill="#00EFD8"/>
<circle cx="9.61898" cy="63.7503" r="2.535" fill="#00EFD8"/>
<circle cx="9.61898" cy="78.9603" r="2.535" fill="#00EFD8"/>
<circle cx="9.61898" cy="94.1703" r="2.535" fill="#00EFD8"/>
<circle cx="2.96469" cy="56.1454" r="2.535" fill="#00EFD8"/>
<circle cx="2.96469" cy="71.3553" r="2.535" fill="#00EFD8"/>
<circle cx="22.9276" cy="18.1204" r="2.535" fill="#00EFD8"/>
<circle cx="22.9276" cy="33.3304" r="2.535" fill="#00EFD8"/>
<circle cx="22.9276" cy="48.5404" r="2.535" fill="#00EFD8"/>
<circle cx="22.9276" cy="63.7503" r="2.535" fill="#00EFD8"/>
<circle cx="22.9276" cy="78.9603" r="2.535" fill="#00EFD8"/>
<circle cx="22.9276" cy="94.1703" r="2.535" fill="#00EFD8"/>
<circle cx="22.9276" cy="109.381" r="2.535" fill="#00EFD8"/>
<circle cx="16.2752" cy="25.7254" r="2.535" fill="#00EFD8"/>
<circle cx="16.2752" cy="40.9354" r="2.535" fill="#00EFD8"/>
<circle cx="4.54867" cy="40.9354" r="2.535" fill="#00EFD8"/>
<circle cx="16.2752" cy="56.1454" r="2.535" fill="#00EFD8"/>
<circle cx="16.2752" cy="71.3553" r="2.535" fill="#00EFD8"/>
<circle cx="16.2752" cy="86.5653" r="2.535" fill="#00EFD8"/>
<circle cx="4.54867" cy="86.5653" r="2.535" fill="#00EFD8"/>
<circle cx="16.2752" cy="101.775" r="2.535" fill="#00EFD8"/>
<circle cx="36.2381" cy="18.1204" r="2.535" fill="#00EFD8"/>
<circle cx="36.2381" cy="33.3304" r="2.535" fill="#00EFD8"/>
<circle cx="36.2381" cy="48.5404" r="2.535" fill="#00EFD8"/>
<circle cx="36.2381" cy="63.7503" r="2.535" fill="#00EFD8"/>
<circle cx="36.2381" cy="78.9603" r="2.535" fill="#00EFD8"/>
<circle cx="36.2381" cy="94.1703" r="2.535" fill="#00EFD8"/>
<circle cx="36.2381" cy="109.381" r="2.535" fill="#00EFD8"/>
<circle cx="29.5819" cy="10.5155" r="2.535" fill="#00EFD8"/>
<circle cx="29.5819" cy="25.7254" r="2.535" fill="#00EFD8"/>
<circle cx="29.5819" cy="40.9354" r="2.535" fill="#00EFD8"/>
<circle cx="29.5819" cy="56.1454" r="2.535" fill="#00EFD8"/>
<circle cx="29.5819" cy="71.3553" r="2.535" fill="#00EFD8"/>
<circle cx="29.5819" cy="86.5653" r="2.535" fill="#00EFD8"/>
<circle cx="29.5819" cy="101.775" r="2.535" fill="#00EFD8"/>
<circle cx="29.5819" cy="116.986" r="2.535" fill="#00EFD8"/>
<circle cx="49.5467" cy="2.91049" r="2.535" fill="#00EFD8"/>
<circle cx="49.5467" cy="18.1204" r="2.535" fill="#00EFD8"/>
<circle cx="49.5467" cy="33.3304" r="2.535" fill="#00EFD8"/>
<circle cx="49.5467" cy="48.5404" r="2.535" fill="#00EFD8"/>
<circle cx="49.5467" cy="63.7503" r="2.535" fill="#00EFD8"/>
<circle cx="49.5467" cy="78.9603" r="2.535" fill="#00EFD8"/>
<circle cx="49.5467" cy="94.1703" r="2.535" fill="#00EFD8"/>
<circle cx="49.5467" cy="109.381" r="2.535" fill="#00EFD8"/>
<circle cx="49.5467" cy="124.59" r="2.535" fill="#00EFD8"/>
<circle cx="42.8905" cy="10.5155" r="2.535" fill="#00EFD8"/>
<circle cx="42.8905" cy="25.7254" r="2.535" fill="#00EFD8"/>
<circle cx="42.8905" cy="40.9354" r="2.535" fill="#00EFD8"/>
<circle cx="42.8905" cy="56.1454" r="2.535" fill="#00EFD8"/>
<circle cx="42.8905" cy="71.3553" r="2.535" fill="#00EFD8"/>
<circle cx="42.8905" cy="86.5653" r="2.535" fill="#00EFD8"/>
<circle cx="42.8905" cy="101.775" r="2.535" fill="#00EFD8"/>
<circle cx="42.8905" cy="116.986" r="2.535" fill="#00EFD8"/>
<circle cx="62.8534" cy="2.91049" r="2.535" fill="#00EFD8"/>
<circle cx="62.8534" cy="18.1204" r="2.535" fill="#00EFD8"/>
<circle cx="62.8534" cy="33.3304" r="2.535" fill="#00EFD8"/>
<circle cx="62.8534" cy="48.5404" r="2.535" fill="#00EFD8"/>
<circle cx="62.8534" cy="63.7503" r="2.535" fill="#00EFD8"/>
<circle cx="62.8534" cy="78.9603" r="2.535" fill="#00EFD8"/>
<circle cx="62.8534" cy="94.1703" r="2.535" fill="#00EFD8"/>
<circle cx="62.8534" cy="109.381" r="2.535" fill="#00EFD8"/>
<circle cx="62.8534" cy="124.59" r="2.535" fill="#00EFD8"/>
<circle cx="56.1991" cy="10.5155" r="2.535" fill="#00EFD8"/>
<circle cx="56.1991" cy="25.7254" r="2.535" fill="#00EFD8"/>
<circle cx="56.1991" cy="40.9354" r="2.535" fill="#00EFD8"/>
<circle cx="56.1991" cy="56.1454" r="2.535" fill="#00EFD8"/>
<circle cx="56.1991" cy="71.3553" r="2.535" fill="#00EFD8"/>
<circle cx="56.1991" cy="86.5653" r="2.535" fill="#00EFD8"/>
<circle cx="56.1991" cy="101.775" r="2.535" fill="#00EFD8"/>
<circle cx="56.1991" cy="116.986" r="2.535" fill="#00EFD8"/>
<circle cx="76.162" cy="2.91049" r="2.535" fill="#00EFD8"/>
<circle cx="76.162" cy="18.1204" r="2.535" fill="#00EFD8"/>
<circle cx="76.162" cy="33.3304" r="2.535" fill="#00EFD8"/>
<circle cx="76.162" cy="48.5404" r="2.535" fill="#00EFD8"/>
<circle cx="76.162" cy="63.7503" r="2.535" fill="#00EFD8"/>
<circle cx="76.162" cy="78.9603" r="2.535" fill="#00EFD8"/>
<circle cx="76.162" cy="94.1703" r="2.535" fill="#00EFD8"/>
<circle cx="76.162" cy="109.381" r="2.535" fill="#00EFD8"/>
<circle cx="76.162" cy="124.59" r="2.535" fill="#00EFD8"/>
<circle cx="69.5077" cy="10.5155" r="2.535" fill="#00EFD8"/>
<circle cx="69.5077" cy="25.7254" r="2.535" fill="#00EFD8"/>
<circle cx="69.5077" cy="40.9354" r="2.535" fill="#00EFD8"/>
<circle cx="69.5077" cy="56.1454" r="2.535" fill="#00EFD8"/>
<circle cx="69.5077" cy="71.3553" r="2.535" fill="#00EFD8"/>
<circle cx="69.5077" cy="86.5653" r="2.535" fill="#00EFD8"/>
<circle cx="69.5077" cy="101.775" r="2.535" fill="#00EFD8"/>
<circle cx="69.5077" cy="116.986" r="2.535" fill="#00EFD8"/>
<circle cx="89.4725" cy="18.1204" r="2.535" fill="#00EFD8"/>
<circle cx="89.4725" cy="33.3304" r="2.535" fill="#00EFD8"/>
<circle cx="89.4725" cy="48.5404" r="2.535" fill="#00EFD8"/>
<circle cx="89.4725" cy="63.7503" r="2.535" fill="#00EFD8"/>
<circle cx="89.4725" cy="78.9603" r="2.535" fill="#00EFD8"/>
<circle cx="89.4725" cy="94.1703" r="2.535" fill="#00EFD8"/>
<circle cx="89.4725" cy="109.381" r="2.535" fill="#00EFD8"/>
<circle cx="82.8163" cy="10.5155" r="2.535" fill="#00EFD8"/>
<circle cx="82.8163" cy="25.7254" r="2.535" fill="#00EFD8"/>
<circle cx="82.8163" cy="40.9354" r="2.535" fill="#00EFD8"/>
<circle cx="82.8163" cy="56.1454" r="2.535" fill="#00EFD8"/>
<circle cx="82.8163" cy="71.3553" r="2.535" fill="#00EFD8"/>
<circle cx="82.8163" cy="86.5653" r="2.535" fill="#00EFD8"/>
<circle cx="82.8163" cy="101.775" r="2.535" fill="#00EFD8"/>
<circle cx="82.8163" cy="116.986" r="2.535" fill="#00EFD8"/>
<circle cx="102.781" cy="18.1204" r="2.535" fill="#00EFD8"/>
<circle cx="102.781" cy="33.3304" r="2.535" fill="#00EFD8"/>
<circle cx="102.781" cy="48.5404" r="2.535" fill="#00EFD8"/>
<circle cx="102.781" cy="63.7503" r="2.535" fill="#00EFD8"/>
<circle cx="102.781" cy="78.9603" r="2.535" fill="#00EFD8"/>
<circle cx="102.781" cy="94.1703" r="2.535" fill="#00EFD8"/>
<circle cx="102.781" cy="109.381" r="2.535" fill="#00EFD8"/>
<circle cx="96.1268" cy="10.5155" r="2.535" fill="#00EFD8"/>
<circle cx="96.1268" cy="25.7254" r="2.535" fill="#00EFD8"/>
<circle cx="96.1268" cy="40.9354" r="2.535" fill="#00EFD8"/>
<circle cx="96.1268" cy="56.1454" r="2.535" fill="#00EFD8"/>
<circle cx="96.1268" cy="71.3553" r="2.535" fill="#00EFD8"/>
<circle cx="96.1268" cy="86.5653" r="2.535" fill="#00EFD8"/>
<circle cx="96.1268" cy="101.775" r="2.535" fill="#00EFD8"/>
<circle cx="96.1268" cy="116.986" r="2.535" fill="#00EFD8"/>
<circle cx="116.09" cy="33.3304" r="2.535" fill="#00EFD8"/>
<circle cx="116.09" cy="48.5404" r="2.535" fill="#00EFD8"/>
<circle cx="116.09" cy="63.7503" r="2.535" fill="#00EFD8"/>
<circle cx="116.09" cy="78.9603" r="2.535" fill="#00EFD8"/>
<circle cx="116.09" cy="94.1703" r="2.535" fill="#00EFD8"/>
<circle cx="109.435" cy="25.7254" r="2.535" fill="#00EFD8"/>
<circle cx="109.435" cy="40.9354" r="2.535" fill="#00EFD8"/>
<circle cx="120.209" cy="40.9354" r="2.535" fill="#00EFD8"/>
<circle cx="109.435" cy="56.1454" r="2.535" fill="#00EFD8"/>
<circle cx="109.435" cy="71.3553" r="2.535" fill="#00EFD8"/>
<circle cx="109.435" cy="86.5653" r="2.535" fill="#00EFD8"/>
<circle cx="122.744" cy="86.5653" r="2.535" fill="#00EFD8"/>
<circle cx="109.435" cy="101.775" r="2.535" fill="#00EFD8"/>
<circle cx="122.744" cy="56.1454" r="2.535" fill="#00EFD8"/>
<circle cx="122.744" cy="71.3553" r="2.535" fill="#00EFD8"/>
</svg>
