<svg width="24" height="22" viewBox="0 0 24 22" fill="none" xmlns="http://www.w3.org/2000/svg">
<g clip-path="url(#clip0_109_516)">
<path d="M2.55535 9.88318C2.21576 10.18 1.87618 10.4777 1.53659 10.7745C1.36903 10.9206 1.20681 11.0748 1.03123 11.2112C0.752249 11.4278 0.461686 11.4643 0.190731 11.1978C-0.0632893 10.9483 -0.0686371 10.557 0.211231 10.2834C0.592707 9.90992 1.00092 9.56409 1.40201 9.21025C4.68555 6.3162 7.97088 3.42215 11.2562 0.528105C11.9229 -0.0592607 12.078 -0.060152 12.7554 0.535236C13.7135 1.3784 14.6717 2.22157 15.6316 3.06207C15.727 3.14496 15.8366 3.21091 16.0541 3.366C16.0541 3.00681 16.0443 2.76259 16.0558 2.52016C16.0942 1.74562 16.4569 1.39712 17.2386 1.39088C18.2039 1.38375 19.17 1.38375 20.1353 1.39088C20.9455 1.39712 21.3332 1.79197 21.335 2.59948C21.3377 4.2778 21.3448 5.95522 21.3279 7.63354C21.3243 7.97936 21.4322 8.20843 21.6969 8.42947C22.3689 8.9901 23.0205 9.57657 23.6693 10.1648C24.0731 10.5312 24.0998 10.8636 23.7852 11.2005C23.5312 11.4733 23.2174 11.4358 22.8137 11.0811C22.36 10.6818 21.9072 10.2816 21.3644 9.80207C21.3511 10.0721 21.3359 10.2379 21.3359 10.4046C21.3341 12.9287 21.3359 15.4538 21.335 17.978C21.3341 20.0012 19.9481 21.4041 17.9285 21.4077C13.9764 21.4139 10.0244 21.4121 6.07241 21.4086C4.0759 21.4068 2.6828 20.0262 2.67211 18.0163C2.65785 15.477 2.66854 12.9377 2.66854 10.3983C2.66854 10.2424 2.66854 10.0873 2.66854 9.93131C2.63111 9.91526 2.59278 9.89922 2.55535 9.88229V9.88318ZM3.95558 13.583C3.95558 15.083 3.94934 16.5831 3.95736 18.0831C3.9636 19.2784 4.82014 20.1197 6.01715 20.1242C6.74534 20.1269 7.47442 20.1037 8.20083 20.1331C8.59657 20.1492 8.70887 20.0199 8.70531 19.6286C8.68748 17.6687 8.69729 15.7078 8.69729 13.7478C8.69729 12.5491 9.12957 12.107 10.3284 12.0998C11.4425 12.0927 12.5575 12.0927 13.6716 12.0998C14.8633 12.1079 15.2965 12.5473 15.317 13.7452C15.3196 13.8789 15.317 14.0126 15.317 14.1463C15.317 15.9877 15.3232 17.8291 15.3116 19.6705C15.3098 20.0065 15.3936 20.1465 15.7608 20.1322C16.4881 20.1046 17.2163 20.1251 17.9445 20.1242C19.1843 20.1224 20.0578 19.273 20.0613 18.0341C20.0703 15.0643 20.0605 12.0936 20.0703 9.12379C20.0711 8.81184 19.9651 8.59792 19.7351 8.39649C17.2734 6.22885 14.8134 4.05854 12.3659 1.87575C12.0815 1.62173 11.9158 1.62886 11.6323 1.88199C9.17413 4.07547 6.69721 6.24668 4.24168 8.44195C4.08214 8.58455 3.96984 8.86621 3.96627 9.08457C3.94221 10.5837 3.95379 12.0847 3.95379 13.5838L3.95558 13.583ZM10.0013 20.1224C11.2883 20.1224 12.5459 20.1278 13.8044 20.1099C13.882 20.109 14.0219 19.9228 14.0219 19.8221C14.0353 17.7899 14.0299 15.7568 14.0344 13.7247C14.0344 13.4929 13.9435 13.4074 13.718 13.4118C13.2732 13.4199 12.8276 13.4136 12.3819 13.4136C11.5985 13.4136 10.8159 13.4136 10.0004 13.4136V20.1224H10.0013ZM19.9499 6.87594C20.0088 6.77522 20.0364 6.75026 20.0364 6.72531C20.0462 5.47838 20.0613 4.23234 20.0453 2.98542C20.0444 2.8945 19.8198 2.73496 19.6941 2.7305C19.0265 2.70466 18.3572 2.72694 17.6887 2.71446C17.4151 2.70911 17.3375 2.8125 17.3304 3.07989C17.2894 4.54875 17.2823 4.54875 18.3812 5.52294C18.4588 5.59157 18.5354 5.66199 18.6148 5.72972C19.0506 6.10496 19.4865 6.47931 19.9499 6.87683V6.87594Z" fill="white"/>
</g>
<defs>
<clipPath id="clip0_109_516">
<rect width="24" height="21.3243" fill="white" transform="translate(0 0.0878296)"/>
</clipPath>
</defs>
</svg>
