<svg width="211" height="106" viewBox="0 0 211 106" fill="none" xmlns="http://www.w3.org/2000/svg">
<mask id="path-1-inside-1_675_3094" fill="white">
<path fill-rule="evenodd" clip-rule="evenodd" d="M5.58502 71.9684C2.49844 81.1165 0.670198 90.6479 0.152779 100.297C-0.0159385 103.444 2.55436 106 5.70533 106H25.9447C29.0956 106 31.6273 103.442 31.8682 100.3C32.4657 92.508 34.2857 84.8473 37.2715 77.6049C40.9828 68.6025 46.4226 60.4228 53.2802 53.5327C60.1378 46.6426 68.2789 41.177 77.2388 37.4481C86.1987 33.7192 95.8019 31.8 105.5 31.8C115.198 31.8 124.801 33.7192 133.761 37.4481C142.721 41.177 150.862 46.6426 157.72 53.5327C164.577 60.4228 170.017 68.6025 173.729 77.6049C176.714 84.8473 178.534 92.508 179.132 100.3C179.373 103.442 181.904 106 185.055 106H205.295C208.446 106 211.016 103.444 210.847 100.297C210.33 90.6479 208.502 81.1165 205.415 71.9684C204.672 69.7674 203.857 67.5885 202.969 65.4356C197.667 52.575 189.896 40.8897 180.1 31.0467C170.303 21.2037 158.673 13.3958 145.873 8.06877C133.073 2.74177 119.354 0 105.5 0C91.6455 0 77.9267 2.74177 65.1269 8.06877C52.327 13.3958 40.6968 21.2037 30.9002 31.0467C21.1036 40.8897 13.3326 52.575 8.03071 65.4356C7.14312 67.5885 6.32765 69.7674 5.58502 71.9684Z"/>
</mask>
<path fill-rule="evenodd" clip-rule="evenodd" d="M5.58502 71.9684C2.49844 81.1165 0.670198 90.6479 0.152779 100.297C-0.0159385 103.444 2.55436 106 5.70533 106H25.9447C29.0956 106 31.6273 103.442 31.8682 100.3C32.4657 92.508 34.2857 84.8473 37.2715 77.6049C40.9828 68.6025 46.4226 60.4228 53.2802 53.5327C60.1378 46.6426 68.2789 41.177 77.2388 37.4481C86.1987 33.7192 95.8019 31.8 105.5 31.8C115.198 31.8 124.801 33.7192 133.761 37.4481C142.721 41.177 150.862 46.6426 157.72 53.5327C164.577 60.4228 170.017 68.6025 173.729 77.6049C176.714 84.8473 178.534 92.508 179.132 100.3C179.373 103.442 181.904 106 185.055 106H205.295C208.446 106 211.016 103.444 210.847 100.297C210.33 90.6479 208.502 81.1165 205.415 71.9684C204.672 69.7674 203.857 67.5885 202.969 65.4356C197.667 52.575 189.896 40.8897 180.1 31.0467C170.303 21.2037 158.673 13.3958 145.873 8.06877C133.073 2.74177 119.354 0 105.5 0C91.6455 0 77.9267 2.74177 65.1269 8.06877C52.327 13.3958 40.6968 21.2037 30.9002 31.0467C21.1036 40.8897 13.3326 52.575 8.03071 65.4356C7.14312 67.5885 6.32765 69.7674 5.58502 71.9684Z" fill="#00EFD8"/>
<path d="M5.58502 71.9684L-27.3911 60.8423L-27.3911 60.8423L5.58502 71.9684ZM37.2715 77.6049L69.447 90.8696L37.2715 77.6049ZM53.2802 53.5327L28.613 28.9818L28.613 28.9818L53.2802 53.5327ZM77.2388 37.4481L90.611 69.5791H90.611L77.2388 37.4481ZM133.761 37.4481L120.389 69.5791L133.761 37.4481ZM205.415 71.9684L172.439 83.0945L172.439 83.0946L205.415 71.9684ZM202.969 65.4356L170.794 78.7002L170.794 78.7003L202.969 65.4356ZM145.873 8.06877L132.501 40.1997L132.501 40.1998L145.873 8.06877ZM65.1269 8.06877L78.4991 40.1998L78.4991 40.1997L65.1269 8.06877ZM30.9002 31.0467L55.5674 55.5975L30.9002 31.0467ZM8.03071 65.4356L-24.1448 52.1709L8.03071 65.4356ZM179.132 100.3L213.832 97.6393L179.132 100.3ZM-27.3911 60.8423C-31.4877 72.9838 -33.9133 85.6314 -34.5998 98.4339L34.9054 102.161C35.2537 95.6644 36.4845 89.2492 38.5611 83.0946L-27.3911 60.8423ZM5.70533 140.803H25.9447L25.9447 71.1975H5.70533L5.70533 140.803ZM66.5688 102.961C66.8875 98.8061 67.8578 94.7245 69.447 90.8696L5.09599 64.3402C0.713714 74.9701 -1.95601 86.2099 -2.83243 97.6393L66.5688 102.961ZM69.447 90.8696C71.4225 86.0778 74.3136 81.7345 77.9474 78.0835L28.613 28.9818C18.5315 39.1111 10.5431 51.1273 5.09598 64.3402L69.447 90.8696ZM77.9473 78.0835C81.5808 74.4329 85.8853 71.5458 90.611 69.5791L63.8667 5.31716C50.6725 10.8083 38.6948 18.8523 28.613 28.9818L77.9473 78.0835ZM90.611 69.5791C95.3363 67.6125 100.395 66.6025 105.5 66.6025L105.5 -3.00251C91.2086 -3.00251 77.0611 -0.174074 63.8667 5.31716L90.611 69.5791ZM105.5 66.6025C110.605 66.6025 115.664 67.6125 120.389 69.5791L147.133 5.31716C133.939 -0.174076 119.791 -3.00251 105.5 -3.00251L105.5 66.6025ZM120.389 69.5791C125.115 71.5458 129.419 74.4329 133.053 78.0835L182.387 28.9818C172.305 18.8523 160.327 10.8082 147.133 5.31716L120.389 69.5791ZM133.053 78.0835C136.686 81.7345 139.578 86.0778 141.553 90.8695L205.904 64.3402C200.457 51.1273 192.468 39.111 182.387 28.9818L133.053 78.0835ZM141.553 90.8695C143.142 94.7245 144.113 98.8061 144.431 102.961L213.832 97.6393C212.956 86.2099 210.286 74.9701 205.904 64.3402L141.553 90.8695ZM185.055 140.803H205.295L205.295 71.1975H185.055L185.055 140.803ZM245.6 98.4338C244.913 85.6314 242.488 72.9838 238.391 60.8423L172.439 83.0946C174.515 89.2492 175.746 95.6644 176.095 102.161L245.6 98.4338ZM238.391 60.8423C237.405 57.9209 236.323 55.0288 235.145 52.1708L170.794 78.7003C171.391 80.1483 171.939 81.6139 172.439 83.0945L238.391 60.8423ZM235.145 52.1709C228.107 35.0998 217.787 19.578 204.767 6.49584L155.433 55.5975C162.005 62.2014 167.228 70.0503 170.794 78.7002L235.145 52.1709ZM204.767 6.49584C191.746 -6.58665 176.279 -16.973 159.245 -24.0622L132.501 40.1998C141.067 43.7646 148.86 48.994 155.433 55.5975L204.767 6.49584ZM159.245 -24.0622C142.211 -31.1515 123.948 -34.8025 105.5 -34.8025V34.8025C114.761 34.8025 123.936 36.6351 132.501 40.1997L159.245 -24.0622ZM105.5 -34.8025C87.0523 -34.8025 68.7891 -31.1515 51.7547 -24.0622L78.4991 40.1997C87.0643 36.6351 96.2388 34.8025 105.5 34.8025V-34.8025ZM51.7547 -24.0622C34.7206 -16.973 19.2538 -6.58664 6.23303 6.49584L55.5674 55.5975C62.1398 48.994 69.9334 43.7646 78.4991 40.1998L51.7547 -24.0622ZM6.23303 6.49584C-6.78739 19.578 -17.1071 35.0998 -24.1448 52.1709L40.2062 78.7002C43.7722 70.0503 48.9947 62.2014 55.5674 55.5975L6.23303 6.49584ZM-24.1448 52.1709C-25.323 55.0288 -26.4054 57.9209 -27.3911 60.8423L38.5611 83.0946C39.0607 81.6139 39.6093 80.1482 40.2062 78.7002L-24.1448 52.1709ZM144.431 102.961C145.933 122.546 162.066 140.803 185.055 140.803L185.055 71.1975C201.743 71.1975 212.812 84.338 213.832 97.6393L144.431 102.961ZM25.9447 140.803C48.9341 140.803 65.0671 122.546 66.5688 102.961L-2.83243 97.6393C-1.81248 84.338 9.25715 71.1975 25.9447 71.1975L25.9447 140.803ZM205.295 140.803C227.141 140.803 246.903 122.739 245.6 98.4338L176.095 102.161C175.129 84.1489 189.75 71.1975 205.295 71.1975L205.295 140.803ZM-34.5998 98.4339C-35.9031 122.739 -16.1412 140.803 5.70533 140.803L5.70533 71.1975C21.2499 71.1975 35.8712 84.1489 34.9054 102.161L-34.5998 98.4339Z" fill="#226B70" mask="url(#path-1-inside-1_675_3094)"/>
</svg>
