<svg width="217" height="109" viewBox="0 0 217 109" fill="none" xmlns="http://www.w3.org/2000/svg">
<mask id="path-1-inside-1_675_1978" fill="white">
<path fill-rule="evenodd" clip-rule="evenodd" d="M5.73861 73.5988C2.55332 82.9949 0.672269 92.7864 0.150102 102.699C-0.0156599 105.845 2.55436 108.401 5.70533 108.401H26.815C29.966 108.401 32.4981 105.843 32.7348 102.701C33.3384 94.6881 35.2121 86.8093 38.2965 79.3629C42.1098 70.1566 47.6992 61.7916 54.7454 54.7454C61.7916 47.6992 70.1566 42.1098 79.3629 38.2965C88.5692 34.4831 98.4364 32.5204 108.401 32.5204C118.366 32.5204 128.233 34.4831 137.44 38.2965C146.646 42.1098 155.011 47.6992 162.057 54.7454C169.103 61.7916 174.693 70.1566 178.506 79.3629C181.59 86.8093 183.464 94.6881 184.068 102.701C184.304 105.843 186.836 108.401 189.987 108.401H211.097C214.248 108.401 216.818 105.845 216.652 102.699C216.13 92.7864 214.249 82.9949 211.064 73.5987C210.301 71.3479 209.463 69.1196 208.551 66.9179C203.103 53.766 195.118 41.816 185.053 31.75C174.987 21.684 163.036 13.6992 149.885 8.25155C136.733 2.80388 122.637 0 108.401 0C94.1658 0 80.0697 2.80388 66.9179 8.25156C53.766 13.6992 41.816 21.684 31.75 31.75C21.684 41.816 13.6992 53.7661 8.25155 66.9179C7.33956 69.1196 6.50166 71.3479 5.73861 73.5988Z"/>
</mask>
<path fill-rule="evenodd" clip-rule="evenodd" d="M5.73861 73.5988C2.55332 82.9949 0.672269 92.7864 0.150102 102.699C-0.0156599 105.845 2.55436 108.401 5.70533 108.401H26.815C29.966 108.401 32.4981 105.843 32.7348 102.701C33.3384 94.6881 35.2121 86.8093 38.2965 79.3629C42.1098 70.1566 47.6992 61.7916 54.7454 54.7454C61.7916 47.6992 70.1566 42.1098 79.3629 38.2965C88.5692 34.4831 98.4364 32.5204 108.401 32.5204C118.366 32.5204 128.233 34.4831 137.44 38.2965C146.646 42.1098 155.011 47.6992 162.057 54.7454C169.103 61.7916 174.693 70.1566 178.506 79.3629C181.59 86.8093 183.464 94.6881 184.068 102.701C184.304 105.843 186.836 108.401 189.987 108.401H211.097C214.248 108.401 216.818 105.845 216.652 102.699C216.13 92.7864 214.249 82.9949 211.064 73.5987C210.301 71.3479 209.463 69.1196 208.551 66.9179C203.103 53.766 195.118 41.816 185.053 31.75C174.987 21.684 163.036 13.6992 149.885 8.25155C136.733 2.80388 122.637 0 108.401 0C94.1658 0 80.0697 2.80388 66.9179 8.25156C53.766 13.6992 41.816 21.684 31.75 31.75C21.684 41.816 13.6992 53.7661 8.25155 66.9179C7.33956 69.1196 6.50166 71.3479 5.73861 73.5988Z" fill="#00EFD8"/>
<path d="M5.73861 73.5988L-27.2215 62.4253L-27.2215 62.4253L5.73861 73.5988ZM38.2965 79.3629L70.4498 92.6813H70.4498L38.2965 79.3629ZM54.7454 54.7454L30.1363 30.1363L30.1363 30.1363L54.7454 54.7454ZM79.3629 38.2965L92.6812 70.4498H92.6813L79.3629 38.2965ZM137.44 38.2965L124.121 70.4498H124.121L137.44 38.2965ZM178.506 79.3629L146.353 92.6812L178.506 79.3629ZM211.064 73.5987L178.104 84.7722L178.104 84.7722L211.064 73.5987ZM208.551 66.9179L176.398 80.2362L176.398 80.2363L208.551 66.9179ZM149.885 8.25155L136.566 40.4049L136.566 40.4049L149.885 8.25155ZM66.9179 8.25156L80.2362 40.4049L66.9179 8.25156ZM31.75 31.75L56.3591 56.3591L31.75 31.75ZM8.25155 66.9179L-23.9018 53.5996L8.25155 66.9179ZM184.068 102.701L149.364 105.316L184.068 102.701ZM32.7348 102.701L-1.96942 100.087L32.7348 102.701ZM216.652 102.699L181.898 104.529L216.652 102.699ZM-27.2215 62.4253C-31.4294 74.8382 -33.9144 87.7732 -34.6042 100.868L34.9044 104.529C35.2589 97.7996 36.5361 91.1517 38.6987 84.7722L-27.2215 62.4253ZM5.70533 143.204H26.815V73.5988H5.70533V143.204ZM67.4389 105.316C67.7657 100.978 68.7801 96.7123 70.4498 92.6813L6.14314 66.0446C1.64406 76.9063 -1.08894 88.3987 -1.96942 100.087L67.4389 105.316ZM70.4498 92.6813C72.5142 87.6974 75.54 83.1689 79.3545 79.3545L30.1363 30.1363C19.8584 40.4142 11.7055 52.6158 6.14313 66.0446L70.4498 92.6813ZM79.3544 79.3545C83.1689 75.54 87.6974 72.5142 92.6812 70.4498L66.0446 6.14314C52.6158 11.7055 40.4142 19.8584 30.1363 30.1363L79.3544 79.3545ZM92.6813 70.4498C97.6651 68.3854 103.007 67.3229 108.401 67.3229V-2.28213C93.8661 -2.28213 79.4733 0.580777 66.0445 6.14314L92.6813 70.4498ZM108.401 67.3229C113.796 67.3229 119.137 68.3854 124.121 70.4498L150.758 6.14314C137.329 0.580775 122.936 -2.28213 108.401 -2.28213V67.3229ZM124.121 70.4498C129.105 72.5142 133.634 75.54 137.448 79.3545L186.666 30.1363C176.388 19.8584 164.187 11.7055 150.758 6.14314L124.121 70.4498ZM137.448 79.3545C141.263 83.1689 144.288 87.6974 146.353 92.6812L210.659 66.0446C205.097 52.6158 196.944 40.4142 186.666 30.1363L137.448 79.3545ZM146.353 92.6812C148.022 96.7123 149.037 100.978 149.364 105.316L218.772 100.087C217.891 88.3987 215.158 76.9063 210.659 66.0446L146.353 92.6812ZM189.987 143.204H211.097V73.5987H189.987V143.204ZM251.407 100.868C250.717 87.7732 248.232 74.8382 244.024 62.4253L178.104 84.7722C180.266 91.1516 181.544 97.7996 181.898 104.529L251.407 100.868ZM244.024 62.4253C243.016 59.4517 241.909 56.5081 240.704 53.5994L176.398 80.2363C177.017 81.7312 177.586 83.244 178.104 84.7722L244.024 62.4253ZM240.704 53.5995C233.508 36.2253 222.959 20.4386 209.662 7.1409L160.443 56.3591C167.278 63.1934 172.699 71.3068 176.398 80.2362L240.704 53.5995ZM209.662 7.1409C196.364 -6.1568 180.577 -16.7051 163.203 -23.9018L136.566 40.4049C145.496 44.1036 153.609 49.5248 160.443 56.3591L209.662 7.1409ZM163.203 -23.9018C145.829 -31.0984 127.207 -34.8025 108.401 -34.8025V34.8025C118.066 34.8025 127.637 36.7062 136.566 40.4049L163.203 -23.9018ZM108.401 -34.8025C89.5955 -34.8025 70.9738 -31.0984 53.5995 -23.9018L80.2362 40.4049C89.1656 36.7062 98.7361 34.8025 108.401 34.8025V-34.8025ZM53.5995 -23.9018C36.2253 -16.7051 20.4386 -6.15679 7.14089 7.14091L56.3591 56.3591C63.1934 49.5248 71.3068 44.1036 80.2362 40.4049L53.5995 -23.9018ZM7.14089 7.14091C-6.1568 20.4386 -16.7051 36.2253 -23.9018 53.5996L40.4049 80.2362C44.1036 71.3068 49.5248 63.1934 56.3591 56.3591L7.14089 7.14091ZM-23.9018 53.5996C-25.1065 56.5081 -26.2135 59.4517 -27.2215 62.4253L38.6987 84.7722C39.2168 83.244 39.7857 81.7312 40.4049 80.2362L-23.9018 53.5996ZM149.364 105.316C150.843 124.949 167.008 143.204 189.987 143.204V73.5987C206.665 73.5987 217.766 86.7371 218.772 100.087L149.364 105.316ZM26.815 143.204C49.7948 143.204 65.9599 124.949 67.4389 105.316L-1.96942 100.087C-0.963775 86.7372 10.1372 73.5988 26.815 73.5988V143.204ZM211.097 143.204C232.954 143.204 252.685 125.139 251.407 100.868L181.898 104.529C180.951 86.5514 195.543 73.5987 211.097 73.5987V143.204ZM-34.6042 100.868C-35.8828 125.139 -16.151 143.204 5.70533 143.204V73.5988C21.2597 73.5988 35.8515 86.5514 34.9044 104.529L-34.6042 100.868Z" fill="#00EFD8" mask="url(#path-1-inside-1_675_1978)"/>
</svg>
