<svg width="33" height="33" viewBox="0 0 33 33" fill="none" xmlns="http://www.w3.org/2000/svg">
<path d="M16.1481 0.225708C20.3971 0.225708 24.4722 1.91364 27.4767 4.91819C30.4813 7.92273 32.1692 11.9978 32.1692 16.2468C32.1692 20.4959 30.4813 24.5709 27.4767 27.5755C24.4722 30.58 20.3971 32.268 16.1481 32.268C11.899 32.268 7.82398 30.58 4.81943 27.5755C1.81489 24.5709 0.126953 20.4959 0.126953 16.2468C0.126953 11.9978 1.81489 7.92273 4.81943 4.91819C7.82398 1.91364 11.899 0.225708 16.1481 0.225708ZM16.1481 14.3037L12.4266 10.5822C12.1689 10.3245 11.8194 10.1798 11.455 10.1798C11.0906 10.1798 10.7411 10.3245 10.4835 10.5822C10.2258 10.8399 10.081 11.1894 10.081 11.5538C10.081 11.9182 10.2258 12.2677 10.4835 12.5254L14.2049 16.2468L10.4835 19.9683C10.3559 20.0959 10.2547 20.2474 10.1856 20.4141C10.1166 20.5808 10.081 20.7594 10.081 20.9399C10.081 21.1203 10.1166 21.299 10.1856 21.4657C10.2547 21.6324 10.3559 21.7839 10.4835 21.9114C10.6111 22.039 10.7625 22.1402 10.9292 22.2093C11.0959 22.2783 11.2746 22.3139 11.455 22.3139C11.6355 22.3139 11.8141 22.2783 11.9808 22.2093C12.1475 22.1402 12.299 22.039 12.4266 21.9114L16.1481 18.19L19.8696 21.9114C19.9971 22.039 20.1486 22.1402 20.3153 22.2093C20.482 22.2783 20.6607 22.3139 20.8411 22.3139C21.0216 22.3139 21.2002 22.2783 21.3669 22.2093C21.5336 22.1402 21.6851 22.039 21.8127 21.9114C21.9403 21.7839 22.0415 21.6324 22.1105 21.4657C22.1796 21.299 22.2151 21.1203 22.2151 20.9399C22.2151 20.7594 22.1796 20.5808 22.1105 20.4141C22.0415 20.2474 21.9403 20.0959 21.8127 19.9683L18.0912 16.2468L21.8127 12.5254C21.9403 12.3978 22.0415 12.2463 22.1105 12.0796C22.1796 11.9129 22.2151 11.7342 22.2151 11.5538C22.2151 11.3734 22.1796 11.1947 22.1105 11.028C22.0415 10.8613 21.9403 10.7098 21.8127 10.5822C21.6851 10.4546 21.5336 10.3534 21.3669 10.2844C21.2002 10.2153 21.0216 10.1798 20.8411 10.1798C20.6607 10.1798 20.482 10.2153 20.3153 10.2844C20.1486 10.3534 19.9971 10.4546 19.8696 10.5822L16.1481 14.3037Z" fill="#D50007"/>
</svg>
