<svg width="200" height="198" viewBox="0 0 200 198" fill="none" xmlns="http://www.w3.org/2000/svg">
<path d="M82.5035 44.1535C78.6652 33.5897 74.8829 23.1825 70.9766 12.4339C90.3722 6.26831 109.564 6.3366 129.095 12.3656C128.707 13.5545 128.395 14.6109 128.023 15.6432C124.817 24.504 121.583 33.3567 118.405 42.2255C117.913 43.6032 117.48 44.278 115.727 43.788C105.005 40.7916 94.2665 40.9402 83.5561 43.9567C83.308 44.029 83.0438 44.0491 82.5035 44.1455V44.1535Z" fill="#E9CD00"/>
<path d="M192.353 123.246C191.757 125.6 191.345 127.492 190.796 129.347C186.942 142.398 180.574 154.098 171.837 164.485C169.696 167.028 167.226 169.293 164.921 171.695C163.976 172.679 163.304 172.908 162.235 171.607C155.932 163.935 149.536 156.339 143.132 148.752C142.231 147.687 142.115 146.884 143.16 145.844C150.896 138.144 156.052 128.926 158.865 118.398C159.302 116.771 160.186 116.852 161.371 117.064C169.171 118.454 176.972 119.84 184.773 121.226C186.738 121.575 188.715 121.864 190.664 122.294C191.285 122.431 191.821 122.937 192.349 123.246H192.353Z" fill="#655A1C"/>
<path d="M7.94922 123.378C8.62562 123.041 9.36207 122.451 10.1786 122.298C15.7379 121.254 21.3172 120.306 26.8846 119.318C30.947 118.599 35.0175 117.908 39.0679 117.104C40.3767 116.843 40.901 117.321 41.2012 118.498C43.0263 125.636 46.0961 132.223 50.3627 138.192C52.3639 140.996 54.7133 143.57 57.1067 146.057C58.0393 147.025 57.8872 147.583 57.2188 148.386C54.4051 151.768 51.5834 155.142 48.7657 158.52C45.3517 162.613 41.9096 166.686 38.5356 170.811C36.9666 172.731 36.5664 172.868 34.7813 171.117C26.2802 162.786 19.216 153.375 14.5572 142.365C12.1517 136.674 10.3707 130.713 8.31344 124.873C8.20137 124.559 8.15334 124.226 7.94922 123.378V123.378Z" fill="#1C4276"/>
<path d="M100.015 122.99C88.8885 122.969 79.847 113.832 79.8751 102.625C79.9031 91.4627 89.0646 82.3329 100.171 82.4011C111.298 82.4694 120.339 91.6114 120.335 102.786C120.331 113.908 111.174 123.01 100.015 122.99Z" fill="#D9D9D9"/>
<path d="M187.988 103.825C187.844 105.874 187.552 109.336 187.384 112.807C187.312 114.289 186.696 114.602 185.351 114.357C178.343 113.084 171.318 111.899 164.314 110.598C160.508 109.891 160.624 109.818 160.808 105.874C161.26 96.1014 159.543 86.7104 155.497 77.7854C154.316 75.1785 154.26 75.1946 156.662 73.8008C163.053 70.0894 169.461 66.4102 175.825 62.6425C177.282 61.7789 178.026 61.8512 178.843 63.5141C184.846 75.7851 187.856 88.7428 187.992 103.821L187.988 103.825Z" fill="#7E7016"/>
<path d="M174.261 55.5816C173.696 55.9954 173.252 56.381 172.756 56.6661C166.124 60.5221 159.46 64.3139 152.868 68.2382C151.371 69.1299 150.654 68.8969 149.674 67.5031C143.43 58.6223 135.353 51.8984 125.515 47.3475C124.443 46.8494 124.131 46.3513 124.547 45.2186C127.336 37.6231 130.094 30.0156 132.824 22.4C133.24 21.2391 133.824 21.2432 134.805 21.677C143.906 25.7137 152.171 31.0318 159.492 37.8079C164.411 42.3628 168.789 47.3836 172.568 52.9266C173.128 53.746 173.636 54.5976 174.261 55.5816Z" fill="#B09B00"/>
<path d="M103.546 177.182C103.546 173.435 103.618 169.687 103.514 165.939C103.47 164.329 104.018 163.654 105.607 163.521C112.792 162.935 119.652 161.047 126.12 157.882C129.037 156.456 131.819 154.725 134.565 152.974C135.982 152.07 136.842 151.929 138.039 153.416C142.694 159.175 147.501 164.811 152.251 170.49C153.76 172.298 153.712 172.459 151.795 173.864C141.525 181.396 130.122 186.408 117.699 188.991C113.668 189.831 109.518 190.08 105.423 190.614C104.026 190.799 103.522 190.224 103.546 188.818C103.606 184.938 103.566 181.058 103.566 177.174H103.55L103.546 177.182Z" fill="#695F2E"/>
<path d="M45.1551 74.9982C43.4981 80.4407 41.7291 85.4776 40.4523 90.6431C39.0475 96.3186 38.8553 102.155 39.4357 107.983C39.5478 109.092 39.6478 109.843 38.1629 110.092C30.4103 111.397 22.6696 112.775 14.937 114.213C13.5361 114.474 13.0479 114.153 12.8998 112.719C11.1427 95.5956 13.8163 79.2719 21.4009 63.7756C22.2094 62.1247 22.8537 61.9681 24.3787 62.8718C30.6224 66.5792 36.9382 70.1621 43.226 73.7972C43.9704 74.227 44.6868 74.7009 45.1551 74.9941V74.9982Z" fill="#A1A09E"/>
<path d="M66.3673 21.5245C66.6835 21.9463 67.1357 22.3319 67.3158 22.8219C70.0415 30.2889 72.7231 37.772 75.4407 45.247C75.8129 46.2712 75.5688 46.7452 74.5362 47.2272C64.6742 51.8423 56.4893 58.51 50.3096 67.5395C49.4691 68.7686 48.7487 68.881 47.532 68.1661C40.924 64.286 34.288 60.4541 27.656 56.6222C26.5834 56.0036 26.0911 55.4734 26.9796 54.1399C36.4533 39.945 48.9368 29.345 64.4381 22.3158C64.9824 22.0708 65.5428 21.8619 66.3673 21.5286V21.5245Z" fill="#96862E"/>
<path d="M96.4502 177.306C96.4502 180.917 96.3581 184.528 96.4902 188.131C96.5583 190.007 95.9139 190.734 94.1008 190.424C88.4014 189.464 82.5659 188.986 77.0386 187.404C71.071 185.697 65.2675 183.222 59.6321 180.571C55.6897 178.72 52.1476 176.012 48.4294 173.683C46.9765 172.771 46.8564 171.835 48.0372 170.461C52.8841 164.806 57.6789 159.098 62.4058 153.342C63.3383 152.206 63.9827 152.093 65.1754 152.937C73.0802 158.528 81.8975 161.854 91.4192 163.372C91.6153 163.404 91.8114 163.452 92.0115 163.46C97.3467 163.653 96.4022 163.81 96.5102 168.674C96.5743 171.546 96.5222 174.422 96.5222 177.298C96.4982 177.298 96.4702 177.298 96.4462 177.298L96.4502 177.306Z" fill="#004084"/>
<path d="M47.6973 115.506C52.5041 114.638 57.0069 113.819 61.5096 113.024C65.1798 112.377 68.862 111.815 72.5202 111.108C73.7009 110.879 74.1932 111.108 74.7735 112.269C76.0943 114.94 77.6673 117.49 79.2762 120.005C79.8366 120.884 79.9486 121.451 79.2642 122.266C74.1171 128.379 68.99 134.517 63.875 140.654C63.2786 141.369 62.7103 141.775 61.9138 140.968C54.9336 133.878 50.2268 125.52 47.7013 115.498L47.6973 115.506Z" fill="#94A8DB"/>
<path d="M137.427 141.861C136.97 141.431 136.706 141.23 136.502 140.981C131.031 134.43 125.564 127.875 120.312 121.585C122.166 118.13 123.887 114.853 125.696 111.627C125.908 111.246 126.652 110.872 127.077 110.944C135.277 112.354 143.466 113.828 151.655 115.303C151.895 115.347 152.116 115.519 152.488 115.704C149.942 125.834 145.023 134.494 137.431 141.861H137.427Z" fill="#A39B76"/>
<path d="M55.4355 72.6125C58.9857 65.6315 71.5852 55.0797 78.5254 53.3606C79.474 55.9433 80.4466 58.5541 81.3951 61.169C83.2843 66.3746 85.1174 71.6003 87.0705 76.7818C87.5548 78.0631 87.4187 78.6335 86.21 79.489C83.8366 81.164 81.6833 83.1683 79.538 85.1445C78.8096 85.8153 78.3413 86.1848 77.3527 85.6064C70.3405 81.5094 63.2963 77.4686 56.268 73.3917C55.9399 73.2029 55.6997 72.8615 55.4355 72.6085V72.6125Z" fill="#B1A782"/>
<path d="M46.4318 108.384C45.3232 98.3745 47.0362 88.9756 51.1106 79.9581C51.5509 78.9861 52.0872 78.8375 52.9798 79.3556C59.9479 83.4085 66.9441 87.4211 73.8763 91.5342C74.3446 91.8113 74.6728 92.8396 74.5847 93.4501C74.1365 96.6072 73.5721 99.7523 72.9477 102.881C72.8477 103.383 72.2794 104.102 71.8311 104.183C63.6382 105.677 55.4332 107.091 47.2283 108.509C47.0482 108.541 46.8481 108.452 46.4318 108.38V108.384Z" fill="#ABAFB9"/>
<path d="M148.555 78.9183C153.03 88.2732 154.887 97.9975 153.755 108.614C152.262 108.389 150.913 108.216 149.572 107.983C142.748 106.79 135.936 105.557 129.104 104.404C127.695 104.167 127.231 103.657 127.099 102.123C126.854 99.2828 126.094 96.4953 125.654 93.6675C125.554 93.0289 125.666 91.9444 126.062 91.7074C133.282 87.4297 140.559 83.2483 147.827 79.0509C147.935 78.9906 148.083 78.9987 148.547 78.9183H148.555Z" fill="#B7A768"/>
<path d="M144.999 72.7046C139.515 75.8898 134.28 78.9345 129.045 81.9791C127.028 83.152 124.987 84.2847 122.997 85.5057C122.053 86.0841 121.528 86.0078 120.652 85.1764C118.443 83.0716 115.981 81.24 113.7 79.2076C113.248 78.8019 112.767 77.8701 112.931 77.4041C115.737 69.4712 118.643 61.5704 121.536 53.6656C121.577 53.5572 121.721 53.4808 121.985 53.2318C131.378 57.4493 139.007 63.8358 144.999 72.7006V72.7046Z" fill="#D2C06C"/>
<path d="M85.1016 50.7095C95.1036 47.7974 105.01 47.8416 115.248 50.7296C114.283 53.4248 113.399 55.9191 112.494 58.4054C110.537 63.8038 108.536 69.1862 106.634 74.6046C106.23 75.7614 105.746 76.0466 104.485 75.9743C101.515 75.8016 98.5296 75.9864 95.5518 75.906C94.9275 75.89 93.9349 75.5004 93.7628 75.0384C90.865 67.2863 88.0673 59.4939 85.2536 51.7056C85.1656 51.4686 85.1696 51.1955 85.1016 50.7135V50.7095Z" fill="#FFE666"/>
<path d="M103.546 156.773C103.546 155.432 103.546 154.448 103.546 153.464C103.546 146.181 103.562 138.899 103.514 131.617C103.506 130.288 103.826 129.701 105.259 129.299C108.053 128.516 110.714 127.271 113.472 126.331C114.06 126.13 115.125 126.142 115.441 126.512C120.884 132.906 126.247 139.373 131.619 145.828C131.695 145.92 131.699 146.077 131.823 146.487C123.526 152.54 114.24 155.958 103.546 156.773V156.773Z" fill="#949083"/>
<path d="M68.2969 146.474C68.6811 145.856 68.9092 145.374 69.2374 144.98C74.2364 138.995 79.2795 133.047 84.2384 127.03C85.135 125.941 85.7754 125.889 87.0561 126.463C89.6497 127.62 92.3713 128.492 95.0769 129.375C95.9575 129.665 96.6539 129.777 96.6499 130.986C96.5979 139.204 96.6139 147.418 96.5979 155.636C96.5979 155.894 96.5058 156.147 96.4017 156.701C86.0395 156.038 76.806 152.528 68.2969 146.474V146.474Z" fill="#8091B9"/>
</svg>
