<svg width="148" height="148" viewBox="0 0 148 148" fill="none" xmlns="http://www.w3.org/2000/svg">
<path d="M76.5079 75.0788V75.1388L76.4945 75.1522L1.87109 59.8499C5.36646 42.1129 15.2522 26.6773 29.0336 16.0244L76.5079 75.0788Z" fill="#B0B7D1"/>
<path d="M76.5095 75.0788L29.0352 16.0244C41.4357 6.44551 56.9914 0.742188 73.8746 0.742188C74.4416 0.742188 75.0086 0.748858 75.5756 0.76887L76.5095 75.0788Z" fill="#A7B5D6"/>
<path d="M147.276 74.1446C147.276 79.3543 146.736 84.4306 145.695 89.3335L76.5815 75.1652H76.5748L76.5348 75.1118L76.5081 75.0785L75.5742 0.768555C98.701 1.28886 119.186 12.5087 132.267 29.672C141.686 42.0126 147.276 57.4282 147.276 74.1446Z" fill="#786B23"/>
<path d="M145.695 89.3339C142.259 105.703 133.361 120.065 121 130.425C109.1 140.41 93.978 146.681 77.415 147.468L76.5078 75.1523L76.5745 75.1657H76.5812L145.695 89.3339Z" fill="#786B21"/>
<path d="M77.4156 147.468C76.2416 147.528 75.0609 147.554 73.8736 147.554C51.8074 147.554 32.0159 137.815 18.5547 122.4L76.4951 75.1523H76.5084L77.4156 147.468Z" fill="#BDAB28"/>
<path d="M76.5757 75.1644L76.5094 75.1511H76.4961L76.5094 75.1379V75.0781L76.5359 75.1113L76.5757 75.1644Z" fill="#DE214D"/>
<path d="M76.495 75.1519L18.5546 122.399C7.29468 109.499 0.470703 92.6153 0.470703 74.1446C0.470703 69.2551 0.950983 64.4723 1.87152 59.8496L76.495 75.1519Z" fill="#C3AD32"/>
</svg>
