<svg width="237" height="239" viewBox="0 0 237 239" fill="none" xmlns="http://www.w3.org/2000/svg">
<path d="M49.8981 138.883C48.8052 133.97 44.4337 130.695 39.5157 130.695H11.1009C7.82228 130.695 4.54364 132.333 2.90433 134.516C0.718572 137.245 0.172135 140.52 0.718574 143.795C5.63652 168.358 18.2046 190.191 36.2371 207.112C38.4228 209.295 41.155 209.841 43.8872 209.841H45.5266C48.8052 209.295 51.5374 207.658 53.1767 204.383L67.3841 179.82C69.5699 175.454 69.0234 170.541 66.2912 167.266C58.0946 159.079 52.6303 149.254 49.8981 138.883Z" fill="#75CEFE"/>
<path d="M144.429 194.523C142.257 191.269 138.997 189.099 135.195 189.099C134.652 189.099 133.565 189.099 133.022 189.099C127.59 190.184 122.701 190.726 117.812 190.726C110.75 190.726 104.232 189.642 97.1698 187.472C96.0834 186.93 94.9969 186.93 93.9105 186.93C90.108 186.93 86.3055 189.099 84.6759 192.354L70.5523 216.219C68.9227 218.931 68.9227 222.185 70.0091 225.44C71.0956 228.694 73.2684 230.863 76.5277 231.948C89.5648 236.83 103.688 238.999 117.812 238.999C129.763 238.999 141.17 237.372 152.034 234.118C155.294 233.033 158.01 230.864 159.096 227.609C160.183 224.355 160.183 221.1 158.553 218.388L144.429 194.523Z" fill="#87FFE1"/>
<path d="M185.743 100.661C186.829 105.56 191.176 108.826 196.065 108.826H224.316C227.576 108.826 230.835 107.193 232.465 105.016C234.638 102.294 235.182 99.0278 234.638 95.7616C229.206 69.0877 215.08 45.1357 193.892 27.716C191.719 26.0829 189.546 24.9941 186.829 24.9941C186.286 24.9941 185.743 24.9941 184.656 24.9941C181.397 25.5385 178.68 27.716 177.05 30.4378L162.925 54.3899C160.209 58.7448 161.295 64.1884 165.098 67.999C175.42 77.2532 182.483 88.1405 185.743 100.661Z" fill="#FFA75E"/>
<path d="M152.311 4.88153C141.388 1.62718 129.374 0 117.905 0C103.706 0 89.5074 2.71197 76.4007 7.05111C73.124 8.13589 70.9395 10.3055 69.8473 13.5598C68.7551 16.8142 69.3012 20.0685 70.3934 22.7805L84.5924 46.6458C86.7769 49.9001 90.0536 52.0697 93.8764 52.0697C94.9686 52.0697 96.0608 52.0697 97.1531 51.5273C103.706 49.3577 110.806 48.273 117.905 48.273C122.82 48.273 127.735 48.8154 132.651 49.9002H134.835C138.658 49.9002 142.481 47.7306 144.119 44.4762L158.318 20.0685C159.956 17.3566 160.502 13.5598 158.864 10.8479C158.318 8.13589 155.587 5.96632 152.311 4.88153Z" fill="#FF5555"/>
<path d="M224.754 130.695H196.412C191.506 130.695 187.146 133.962 186.056 138.861C182.785 151.381 175.7 162.813 166.434 171.523C162.619 174.789 162.073 180.777 164.254 185.132L178.425 209.084C180.06 211.806 182.785 213.983 186.056 214.528H188.236C190.961 214.528 193.141 213.439 195.322 211.806C216.033 194.386 230.75 170.434 236.2 143.76C236.745 140.494 236.2 137.228 234.02 134.506C231.295 132.328 228.024 130.695 224.754 130.695Z" fill="#FFEA78"/>
<path d="M52.3652 35.1021C50.7349 32.3909 48.0177 30.2219 44.7572 29.6797C44.2137 29.6797 43.6703 29.6797 43.1269 29.6797C40.4097 29.6797 37.6926 30.7642 35.5189 32.3909C17.5857 49.2004 5.08686 71.4324 0.196003 95.2911C-0.347426 98.5446 0.196006 101.798 2.36972 104.509C4.54344 107.22 7.26058 108.305 10.5212 108.305H38.7795C43.6703 108.305 48.0177 105.052 49.1046 100.171C51.8218 89.8687 57.256 79.5661 64.864 71.4324C68.1246 68.179 68.668 62.7565 65.9509 58.9608L52.3652 35.1021Z" fill="#AD7BED"/>
</svg>
