<svg width="148" height="148" viewBox="0 0 148 148" fill="none" xmlns="http://www.w3.org/2000/svg">
<path d="M76.5782 75.0788V75.1388L76.5648 75.1522L1.94141 59.8499C5.43677 42.1129 15.3225 26.6773 29.1039 16.0244L76.5782 75.0788Z" fill="#E7A7CB"/>
<path d="M76.5759 75.0788L29.1016 16.0244C41.5021 6.44551 57.0578 0.742188 73.941 0.742188C74.508 0.742188 75.075 0.748858 75.642 0.76887L76.5759 75.0788V75.0788Z" fill="#4ABDD0"/>
<path d="M147.344 74.1446C147.344 79.3543 146.804 84.4306 145.763 89.3335L76.6498 75.1652H76.6432L76.6031 75.1118L76.5765 75.0785L75.6426 0.768555C98.7694 1.28886 119.255 12.5087 132.336 29.672C141.754 42.0126 147.344 57.4282 147.344 74.1446V74.1446Z" fill="#DE214D"/>
<path d="M145.765 89.3339C142.33 105.703 133.431 120.065 121.071 130.425C109.17 140.41 94.0483 146.681 77.4853 147.468L76.5781 75.1523L76.6448 75.1657H76.6515L145.765 89.3339V89.3339Z" fill="#017E36"/>
<path d="M77.484 147.468C76.31 147.528 75.1293 147.554 73.9419 147.554C51.8757 147.554 32.0842 137.815 18.623 122.4L76.5634 75.1523H76.5768L77.484 147.468V147.468Z" fill="#3AAA3D"/>
<path d="M76.6421 75.1644L76.5758 75.1511H76.5625L76.5758 75.1379V75.0781L76.6023 75.1113L76.6421 75.1644Z" fill="#DE214D"/>
<path d="M76.5633 75.1519L18.6229 122.399C7.36304 109.499 0.539062 92.6153 0.539062 74.1446C0.539062 69.2551 1.01934 64.4723 1.93988 59.8496L76.5633 75.1519V75.1519Z" fill="#F49840"/>
</svg>
