<svg width="137" height="116" viewBox="0 0 137 116" fill="none" xmlns="http://www.w3.org/2000/svg">
<mask id="path-1-inside-1_675_2115" fill="white">
<path fill-rule="evenodd" clip-rule="evenodd" d="M68.4773 0.918457L0.869141 115.596H136.085L68.4773 0.918457ZM68.4773 36.0794L32.1182 97.7518H104.836L68.4773 36.0794Z"/>
</mask>
<path fill-rule="evenodd" clip-rule="evenodd" d="M68.4773 0.918457L0.869141 115.596H136.085L68.4773 0.918457ZM68.4773 36.0794L32.1182 97.7518H104.836L68.4773 36.0794Z" fill="#00EFD8"/>
<path d="M68.4773 0.918457L96.9831 -15.8872L68.4773 -64.2387L39.9715 -15.8872L68.4773 0.918457ZM0.869141 115.596L-27.6366 98.7899L-57.0532 148.686H0.869141V115.596ZM136.085 115.596V148.686H194.008L164.591 98.7899L136.085 115.596ZM32.1182 97.7518L3.61245 80.9461L-25.8042 130.843H32.1182V97.7518ZM68.4773 36.0794L96.9831 19.2738L68.4773 -29.0778L39.9715 19.2738L68.4773 36.0794ZM104.836 97.7518V130.843H162.759L133.342 80.9461L104.836 97.7518ZM60.624 114.557L96.983 52.8851L39.9715 19.2738L3.61245 80.9461L60.624 114.557ZM104.836 64.6609H32.1182V130.843H104.836V64.6609ZM39.9715 52.8851L76.3306 114.557L133.342 80.9461L96.9831 19.2738L39.9715 52.8851ZM29.3749 132.401L96.9831 17.7241L39.9715 -15.8872L-27.6366 98.7899L29.3749 132.401ZM136.085 82.5047H0.869141V148.686H136.085V82.5047ZM39.9715 17.7241L107.58 132.401L164.591 98.7899L96.9831 -15.8872L39.9715 17.7241Z" fill="#00EFD8" mask="url(#path-1-inside-1_675_2115)"/>
</svg>
