<svg width="152" height="130" viewBox="0 0 152 130" fill="none" xmlns="http://www.w3.org/2000/svg">
<mask id="path-1-inside-1_675_3231" fill="white">
<path fill-rule="evenodd" clip-rule="evenodd" d="M76 0L0 130H152L76 0ZM76 39.8591L35.1279 109.772H116.872L76 39.8591Z"/>
</mask>
<path fill-rule="evenodd" clip-rule="evenodd" d="M76 0L0 130H152L76 0ZM76 39.8591L35.1279 109.772H116.872L76 39.8591Z" fill="#00EFD8"/>
<path d="M76 0L104.567 -16.7009L76 -65.5659L47.4327 -16.7009L76 0ZM0 130L-28.5673 113.299L-57.6763 163.091H0V130ZM152 130V163.091H209.676L180.567 113.299L152 130ZM35.1279 109.772L6.56059 93.0711L-22.5485 142.863H35.1279V109.772ZM76 39.8591L104.567 23.1582L76 -25.7068L47.4327 23.1582L76 39.8591ZM116.872 109.772V142.863H174.548L145.439 93.0711L116.872 109.772ZM63.6951 126.473L104.567 56.56L47.4327 23.1582L6.56059 93.0711L63.6951 126.473ZM116.872 76.6811H35.1279V142.863H116.872V76.6811ZM47.4327 56.56L88.3049 126.473L145.439 93.0711L104.567 23.1582L47.4327 56.56ZM28.5673 146.701L104.567 16.7009L47.4327 -16.7009L-28.5673 113.299L28.5673 146.701ZM152 96.9091H0V163.091H152V96.9091ZM47.4327 16.7009L123.433 146.701L180.567 113.299L104.567 -16.7009L47.4327 16.7009Z" fill="#00EFD8" mask="url(#path-1-inside-1_675_3231)"/>
</svg>
