<svg width="201" height="198" viewBox="0 0 201 198" fill="none" xmlns="http://www.w3.org/2000/svg">
<path d="M83.1617 44.1535C79.3234 33.5897 75.5411 23.1825 71.6348 12.4339C91.0304 6.26831 110.222 6.3366 129.754 12.3656C129.365 13.5545 129.053 14.6109 128.681 15.6432C125.475 24.504 122.241 33.3567 119.063 42.2255C118.571 43.6032 118.139 44.278 116.386 43.788C105.663 40.7916 94.9247 40.9402 84.2143 43.9567C83.9662 44.029 83.702 44.0491 83.1617 44.1455V44.1535Z" fill="#FFBDB2"/>
<path d="M193.014 123.246C192.417 125.6 192.005 127.492 191.457 129.347C187.602 142.398 181.234 154.098 172.497 164.485C170.356 167.028 167.886 169.293 165.581 171.695C164.636 172.679 163.964 172.908 162.895 171.607C156.592 163.935 150.196 156.339 143.792 148.752C142.891 147.687 142.775 146.884 143.82 145.844C151.557 138.144 156.712 128.926 159.525 118.398C159.962 116.771 160.846 116.852 162.031 117.064C169.832 118.454 177.632 119.84 185.433 121.226C187.398 121.575 189.375 121.864 191.324 122.294C191.945 122.431 192.481 122.937 193.01 123.246H193.014Z" fill="#FB0026"/>
<path d="M8.60742 123.378C9.28383 123.041 10.0203 122.451 10.8368 122.298C16.3961 121.254 21.9754 120.306 27.5428 119.318C31.6052 118.599 35.6757 117.908 39.7261 117.104C41.0349 116.843 41.5592 117.321 41.8594 118.498C43.6845 125.636 46.7543 132.223 51.0209 138.192C53.0221 140.996 55.3715 143.57 57.7649 146.057C58.6975 147.025 58.5454 147.583 57.877 148.386C55.0633 151.768 52.2416 155.142 49.4239 158.52C46.0099 162.613 42.5678 166.686 39.1938 170.811C37.6248 172.731 37.2246 172.868 35.4395 171.117C26.9384 162.786 19.8742 153.375 15.2154 142.365C12.8099 136.674 11.0289 130.713 8.97164 124.873C8.85957 124.559 8.81154 124.226 8.60742 123.378V123.378Z" fill="#004951"/>
<path d="M100.673 122.99C89.5467 122.969 80.5053 113.832 80.5333 102.625C80.5613 91.4627 89.7228 82.3329 100.829 82.4011C111.956 82.4694 120.998 91.6114 120.994 102.786C120.99 113.908 111.832 123.01 100.673 122.99Z" fill="#D9D9D9"/>
<path d="M188.647 103.825C188.503 105.874 188.21 109.336 188.042 112.807C187.97 114.289 187.354 114.602 186.009 114.357C179.001 113.084 171.977 111.899 164.972 110.598C161.166 109.891 161.282 109.818 161.466 105.874C161.919 96.1014 160.202 86.7104 156.155 77.7854C154.974 75.1785 154.918 75.1946 157.32 73.8008C163.712 70.0894 170.119 66.4102 176.483 62.6425C177.94 61.7789 178.685 61.8512 179.501 63.5141C185.505 75.7851 188.515 88.7428 188.651 103.821L188.647 103.825Z" fill="#FF2249"/>
<path d="M174.919 55.5816C174.354 55.9954 173.91 56.381 173.414 56.6661C166.782 60.5221 160.118 64.3139 153.526 68.2382C152.029 69.1299 151.313 68.8969 150.332 67.5031C144.088 58.6223 136.011 51.8984 126.174 47.3475C125.101 46.8494 124.789 46.3513 125.205 45.2186C127.995 37.6231 130.752 30.0156 133.482 22.4C133.898 21.2391 134.483 21.2432 135.463 21.677C144.565 25.7137 152.83 31.0318 160.15 37.8079C165.069 42.3628 169.448 47.3836 173.226 52.9266C173.786 53.746 174.294 54.5976 174.919 55.5816Z" fill="#FF7C7E"/>
<path d="M104.2 177.182C104.2 173.435 104.273 169.687 104.168 165.939C104.124 164.329 104.673 163.654 106.262 163.521C113.446 162.935 120.306 161.047 126.774 157.882C129.692 156.456 132.473 154.725 135.219 152.974C136.636 152.07 137.496 151.929 138.693 153.416C143.348 159.175 148.155 164.811 152.906 170.49C154.415 172.298 154.367 172.459 152.449 173.864C142.179 181.396 130.776 186.408 118.353 188.991C114.323 189.831 110.172 190.08 106.078 190.614C104.681 190.799 104.176 190.224 104.2 188.818C104.26 184.938 104.22 181.058 104.22 177.174H104.204L104.2 177.182Z" fill="#FC0032"/>
<path d="M45.8133 74.9982C44.1563 80.4407 42.3873 85.4776 41.1105 90.6431C39.7057 96.3186 39.5135 102.155 40.0939 107.983C40.206 109.092 40.306 109.843 38.8211 110.092C31.0685 111.397 23.3278 112.775 15.5952 114.213C14.1944 114.474 13.7061 114.153 13.558 112.719C11.8009 95.5956 14.4745 79.2719 22.0591 63.7756C22.8676 62.1247 23.5119 61.9681 25.0369 62.8718C31.2806 66.5792 37.5964 70.1621 43.8842 73.7972C44.6286 74.227 45.345 74.7009 45.8133 74.9941V74.9982Z" fill="#00B0A7"/>
<path d="M67.0255 21.5245C67.3417 21.9463 67.7939 22.3319 67.974 22.8219C70.6997 30.2889 73.3813 37.772 76.0989 45.247C76.4711 46.2712 76.227 46.7452 75.1944 47.2272C65.3325 51.8423 57.1475 58.51 50.9678 67.5395C50.1273 68.7686 49.4069 68.881 48.1902 68.1661C41.5822 64.286 34.9462 60.4541 28.3142 56.6222C27.2416 56.0036 26.7493 55.4734 27.6378 54.1399C37.1115 39.945 49.595 29.345 65.0963 22.3158C65.6406 22.0708 66.201 21.8619 67.0255 21.5286V21.5245Z" fill="#009180"/>
<path d="M97.1084 177.306C97.1084 180.917 97.0163 184.528 97.1484 188.131C97.2165 190.007 96.5721 190.734 94.759 190.424C89.0596 189.464 83.2241 188.986 77.6968 187.404C71.7292 185.697 65.9257 183.222 60.2903 180.571C56.3479 178.72 52.8058 176.012 49.0876 173.683C47.6347 172.771 47.5146 171.835 48.6954 170.461C53.5423 164.806 58.3371 159.098 63.064 153.342C63.9965 152.206 64.6409 152.093 65.8336 152.937C73.7384 158.528 82.5557 161.854 92.0774 163.372C92.2735 163.404 92.4696 163.452 92.6697 163.46C98.0049 163.653 97.0604 163.81 97.1684 168.674C97.2325 171.546 97.1804 174.422 97.1804 177.298C97.1564 177.298 97.1284 177.298 97.1044 177.298L97.1084 177.306Z" fill="#58384F"/>
<path d="M48.3555 115.506C53.1624 114.638 57.6651 113.819 62.1678 113.024C65.838 112.377 69.5202 111.815 73.1784 111.108C74.3591 110.879 74.8514 111.108 75.4317 112.269C76.7525 114.94 78.3255 117.49 79.9344 120.005C80.4948 120.884 80.6068 121.451 79.9224 122.266C74.7753 128.379 69.6482 134.517 64.5332 140.654C63.9368 141.369 63.3685 141.775 62.572 140.968C55.5918 133.878 50.885 125.52 48.3595 115.498L48.3555 115.506Z" fill="#00B9BB"/>
<path d="M138.089 141.861C137.633 141.431 137.368 141.23 137.164 140.981C131.693 134.43 126.226 127.875 120.975 121.585C122.828 118.13 124.549 114.853 126.358 111.627C126.57 111.246 127.314 110.872 127.739 110.944C135.94 112.354 144.128 113.828 152.317 115.303C152.558 115.347 152.778 115.519 153.15 115.704C150.604 125.834 145.685 134.494 138.093 141.861H138.089Z" fill="#FF7D87"/>
<path d="M56.0938 72.6125C59.6439 65.6315 72.2434 55.0797 79.1836 53.3606C80.1322 55.9433 81.1048 58.5541 82.0533 61.169C83.9425 66.3746 85.7756 71.6003 87.7287 76.7818C88.213 78.0631 88.0769 78.6335 86.8682 79.489C84.4948 81.164 82.3415 83.1683 80.1962 85.1445C79.4678 85.8153 78.9995 86.1848 78.0109 85.6064C70.9987 81.5094 63.9545 77.4686 56.9263 73.3917C56.5981 73.2029 56.3579 72.8615 56.0938 72.6085V72.6125Z" fill="#22B2A7"/>
<path d="M47.0881 108.384C45.9794 98.3745 47.6925 88.9756 51.7669 79.9581C52.2072 78.9861 52.7435 78.8375 53.636 79.3556C60.6042 83.4085 67.6004 87.4211 74.5326 91.5342C75.0008 91.8113 75.329 92.8396 75.241 93.4501C74.7927 96.6072 74.2284 99.7523 73.604 102.881C73.5039 103.383 72.9356 104.102 72.4873 104.183C64.2944 105.677 56.0895 107.091 47.8846 108.509C47.7045 108.541 47.5043 108.452 47.0881 108.38V108.384Z" fill="#00BDB7"/>
<path d="M149.214 78.9183C153.688 88.2732 155.545 97.9975 154.413 108.614C152.92 108.389 151.571 108.216 150.23 107.983C143.406 106.79 136.594 105.557 129.762 104.404C128.353 104.167 127.889 103.657 127.757 102.123C127.513 99.2828 126.752 96.4953 126.312 93.6675C126.212 93.0289 126.324 91.9444 126.72 91.7074C133.94 87.4297 141.217 83.2483 148.485 79.0509C148.593 78.9906 148.741 78.9987 149.206 78.9183H149.214Z" fill="#FF8F93"/>
<path d="M145.657 72.7046C140.173 75.8898 134.938 78.9345 129.703 81.9791C127.686 83.152 125.645 84.2847 123.656 85.5057C122.711 86.0841 122.187 86.0078 121.31 85.1764C119.101 83.0716 116.639 81.24 114.358 79.2076C113.906 78.8019 113.425 77.8701 113.59 77.4041C116.395 69.4712 119.301 61.5704 122.195 53.6656C122.235 53.5572 122.379 53.4808 122.643 53.2318C132.037 57.4493 139.665 63.8358 145.657 72.7006V72.7046Z" fill="#FFAEAB"/>
<path d="M85.7617 50.7095C95.7637 47.7974 105.67 47.8416 115.908 50.7296C114.943 53.4248 114.059 55.9191 113.154 58.4054C111.197 63.8038 109.196 69.1862 107.295 74.6046C106.89 75.7614 106.406 76.0466 105.145 75.9743C102.176 75.8016 99.1898 75.9864 96.212 75.906C95.5876 75.89 94.595 75.5004 94.4229 75.0384C91.5252 67.2863 88.7275 59.4939 85.9138 51.7056C85.8258 51.4686 85.8298 51.1955 85.7617 50.7135V50.7095Z" fill="#FFDED1"/>
<path d="M104.204 156.773C104.204 155.432 104.204 154.448 104.204 153.464C104.204 146.181 104.22 138.899 104.172 131.617C104.164 130.288 104.484 129.701 105.917 129.299C108.711 128.516 111.372 127.271 114.13 126.331C114.718 126.13 115.783 126.142 116.099 126.512C121.542 132.906 126.906 139.373 132.277 145.828C132.353 145.92 132.357 146.077 132.481 146.487C124.184 152.54 114.898 155.958 104.204 156.773V156.773Z" fill="#FF6E7F"/>
<path d="M68.9551 146.474C69.3393 145.856 69.5674 145.374 69.8956 144.98C74.8946 138.995 79.9377 133.047 84.8966 127.03C85.7932 125.941 86.4336 125.889 87.7143 126.463C90.3079 127.62 93.0295 128.492 95.7351 129.375C96.6157 129.665 97.3121 129.777 97.3081 130.986C97.2561 139.204 97.2721 147.418 97.2561 155.636C97.2561 155.894 97.164 156.147 97.0599 156.701C86.6977 156.038 77.4642 152.528 68.9551 146.474V146.474Z" fill="#BD8795"/>
</svg>
