<svg width="495" height="492" viewBox="0 0 495 492" fill="none" xmlns="http://www.w3.org/2000/svg">
<path d="M214.58 452.835L208.645 480.199L196.801 477.63C194.351 477.099 192.328 476.237 190.731 475.045C189.128 473.879 188.006 472.448 187.364 470.754C186.722 469.059 186.624 467.182 187.07 465.124C187.511 463.091 188.375 461.436 189.661 460.16C190.942 458.91 192.553 458.086 194.495 457.688C196.436 457.291 198.632 457.358 201.082 457.889L209.408 459.694L205.992 461.86L208.247 451.461L214.58 452.835ZM197.184 449.062L201.872 460.475L195.109 459.008L190.343 447.579L197.184 449.062ZM206.144 461.156L208.315 464.737L200.34 463.008C198.385 462.584 196.836 462.684 195.691 463.309C194.54 463.96 193.803 465.028 193.481 466.514C193.153 468.025 193.381 469.303 194.165 470.346C194.948 471.389 196.317 472.122 198.272 472.546L206.246 474.276L202.779 476.675L206.144 461.156Z" fill="#00EFD8"/>
<path d="M168.906 439.247C170.955 440.083 172.72 441.193 174.2 442.575C175.656 443.947 176.779 445.5 177.569 447.234C178.335 448.958 178.743 450.78 178.793 452.702C178.819 454.614 178.439 456.533 177.653 458.458C176.867 460.384 175.796 462.02 174.439 463.368C173.058 464.705 171.479 465.716 169.701 466.402C167.923 467.087 166.034 467.411 164.034 467.372C162.034 467.333 160.021 466.9 157.997 466.074C155.948 465.237 154.207 464.138 152.776 462.776C151.32 461.404 150.209 459.856 149.444 458.132C148.654 456.398 148.234 454.57 148.183 452.649C148.122 450.752 148.49 448.828 149.286 446.877C150.072 444.952 151.161 443.308 152.552 441.946C153.933 440.609 155.513 439.598 157.29 438.912C159.033 438.241 160.905 437.925 162.905 437.964C164.881 437.993 166.881 438.42 168.906 439.247ZM166.856 444.372C165.696 443.899 164.554 443.663 163.429 443.665C162.281 443.657 161.185 443.872 160.142 444.31C159.099 444.748 158.173 445.393 157.365 446.244C156.532 447.085 155.863 448.122 155.359 449.357C154.855 450.591 154.607 451.8 154.613 452.984C154.595 454.157 154.805 455.266 155.243 456.309C155.657 457.342 156.277 458.257 157.103 459.055C157.929 459.854 158.923 460.489 160.083 460.963C161.243 461.437 162.398 461.678 163.547 461.686C164.671 461.684 165.755 461.464 166.798 461.026C167.841 460.587 168.779 459.948 169.612 459.107C170.42 458.256 171.076 457.213 171.58 455.979C172.074 454.769 172.335 453.565 172.363 452.367C172.357 451.183 172.147 450.075 171.733 449.042C171.295 447.999 170.662 447.078 169.836 446.28C169.01 445.482 168.017 444.846 166.856 444.372Z" fill="#00EFD8"/>
<path d="M142.242 426.088C143.863 427.066 145.179 428.265 146.191 429.685C147.167 431.114 147.75 432.65 147.943 434.293L142.629 436.132C142.49 434.865 142.193 433.783 141.738 432.885C141.269 432.01 140.612 431.318 139.768 430.809C137.507 429.445 135.578 430.087 133.98 432.736L127.1 444.141L135.525 449.224L132.839 453.677L118.899 445.267L128.28 429.718C130.071 426.749 132.137 424.975 134.48 424.396C136.823 423.816 139.41 424.38 142.242 426.088Z" fill="#00EFD8"/>
<path d="M113.978 406.139C115.674 407.562 117.016 409.157 118.003 410.926C118.971 412.677 119.566 414.499 119.788 416.391C119.99 418.266 119.822 420.127 119.283 421.972C118.724 423.8 117.776 425.511 116.439 427.104C115.102 428.698 113.582 429.929 111.879 430.797C110.155 431.649 108.343 432.129 106.44 432.239C104.538 432.349 102.641 432.08 100.748 431.432C98.8551 430.783 97.0711 429.757 95.3959 428.351C93.7003 426.929 92.379 425.35 91.4321 423.616C90.4648 421.865 89.8801 420.052 89.678 418.177C89.4555 416.284 89.6136 414.415 90.1523 412.57C90.6739 410.745 91.6117 409.026 92.9657 407.412C94.3025 405.818 95.8413 404.586 97.5821 403.714C99.3057 402.863 101.119 402.382 103.021 402.272C104.885 402.166 106.764 402.436 108.657 403.085C110.529 403.716 112.303 404.734 113.978 406.139ZM110.461 410.394C109.501 409.588 108.485 409.015 107.414 408.673C106.323 408.314 105.214 408.184 104.087 408.283C102.96 408.382 101.881 408.713 100.852 409.276C99.8018 409.823 98.8483 410.606 97.9913 411.628C97.1344 412.649 96.5282 413.725 96.1728 414.854C95.797 415.965 95.6584 417.085 95.7571 418.212C95.8354 419.322 96.146 420.383 96.689 421.395C97.2319 422.408 97.9835 423.317 98.9437 424.122C99.9039 424.928 100.93 425.51 102.021 425.869C103.092 426.21 104.191 426.332 105.318 426.233C106.445 426.134 107.534 425.812 108.584 425.266C109.613 424.702 110.557 423.91 111.413 422.888C112.253 421.887 112.87 420.821 113.263 419.688C113.618 418.559 113.757 417.44 113.678 416.33C113.58 415.203 113.259 414.133 112.716 413.121C112.173 412.108 111.421 411.199 110.461 410.394Z" fill="#00EFD8"/>
<path d="M86.7571 380.314L56.6954 386.318L52.9955 381.096L68.6045 354.693L72.5356 360.241L58.2849 382.888L56.805 380.799L82.9184 374.896L86.7571 380.314ZM78.2539 378.691L73.2451 380.132L64.9203 368.382L67.9173 364.102L78.2539 378.691Z" fill="#00EFD8"/>
<path d="M65.8953 349.577L62.1253 351.429L35.7487 345.086L37.5144 343.328L45.3606 359.305L40.6212 361.632L30.2361 340.485L34.006 338.633L60.365 344.94L58.5993 346.699L50.3652 329.931L55.1046 327.604L65.8953 349.577Z" fill="#00EFD8"/>
<path d="M48.7897 307.56C49.9419 311.363 49.7836 314.657 48.315 317.443C46.8463 320.228 44.1469 322.217 40.2166 323.407L25.2104 327.954L23.3313 321.753L38.1079 317.275C40.66 316.502 42.3389 315.422 43.1448 314.036C43.9507 312.649 44.0675 311.011 43.4953 309.123C42.923 307.234 41.9169 305.937 40.477 305.231C39.037 304.525 37.041 304.558 34.4889 305.332L19.7123 309.809L17.8564 303.684L32.8627 299.137C36.7929 297.946 40.1419 298.102 42.9097 299.604C45.6775 301.106 47.6375 303.758 48.7897 307.56Z" fill="#00EFD8"/>
<path d="M42.5163 284.594L14.7773 288.408L13.8946 281.988L36.4029 278.894L34.4905 264.984L39.7213 264.265L42.5163 284.594Z" fill="#00EFD8"/>
<path d="M38.7754 242.512L12.1391 227.337L12.7688 220.969L41.8648 211.264L41.1957 218.031L15.5882 225.789L15.84 223.242L39.4287 235.904L38.7754 242.512ZM33.4184 235.712L28.6915 233.516L30.1083 219.186L35.1776 217.919L33.4184 235.712Z" fill="#00EFD8"/>
<path d="M43.2376 203.91L16.3805 195.993L17.8962 190.851L40.2205 185.006L39.4174 187.73L23.7781 170.9L25.2825 165.797L52.1623 173.639L50.443 179.47L32.5141 174.226L32.8308 173.152L45.2623 186.575L44.4366 189.376L26.6548 194.101L27.0394 192.796L44.957 198.079L43.2376 203.91Z" fill="#00EFD8"/>
<path d="M55.0773 166.237L35.8809 142.336L38.807 136.644L69.4333 138.311L66.3244 144.358L39.6575 142.164L40.828 139.887L58.1131 160.331L55.0773 166.237ZM52.594 157.944L49.0047 154.165L55.5884 141.358L60.7687 142.042L52.594 157.944Z" fill="#00EFD8"/>
<path d="M73.7073 132.079L51.2791 115.316L58.5348 105.608C60.0354 103.6 61.6596 102.118 63.4073 101.16C65.1337 100.187 66.901 99.7596 68.7092 99.8792C70.5174 99.9988 72.2652 100.689 73.9527 101.95C75.6188 103.196 76.7652 104.668 77.3921 106.369C77.9976 108.053 78.078 109.861 77.6332 111.792C77.1884 113.724 76.2157 115.693 74.7151 117.701L69.6146 124.526L69.0638 120.519L77.5865 126.888L73.7073 132.079ZM84.3633 117.821L72.0345 117.346L76.1772 111.803L88.5539 112.214L84.3633 117.821ZM69.6406 120.95L65.4814 121.437L70.3664 114.9C71.5637 113.298 72.1159 111.847 72.0231 110.546C71.9089 109.229 71.243 108.115 70.0255 107.205C68.7866 106.279 67.53 105.956 66.2558 106.235C64.9816 106.515 63.7459 107.456 62.5486 109.058L57.6636 115.594L56.9206 111.443L69.6406 120.95Z" fill="#00EFD8"/>
<path d="M95.2451 105.277L75.1206 85.8089L79.6261 81.1515L99.7506 100.62L95.2451 105.277Z" fill="#00EFD8"/>
<path d="M108.317 92.2303L90.565 70.5774L95.5761 66.4689L109.981 84.0388L120.838 75.1372L124.186 79.2203L108.317 92.2303Z" fill="#00EFD8"/>
<path d="M131.491 74.2335L116.96 50.299L122.5 46.9362L134.29 66.3574L146.292 59.0713L149.032 63.5846L131.491 74.2335Z" fill="#00EFD8"/>
<path d="M169.572 54.8484C167.519 55.6762 165.48 56.1104 163.455 56.1508C161.455 56.1812 159.567 55.8499 157.792 55.1567C156.042 54.4535 154.479 53.4305 153.104 52.0875C151.753 50.7345 150.689 49.0935 149.911 47.1644C149.133 45.2354 148.761 43.3151 148.795 41.4036C148.854 39.4821 149.282 37.6561 150.079 35.9256C150.877 34.1952 152.006 32.647 153.468 31.281C154.93 29.9151 156.675 28.8232 158.703 28.0053C160.756 27.1775 162.77 26.7533 164.746 26.7328C166.746 26.7024 168.621 27.0387 170.371 27.7419C172.146 28.4351 173.721 29.4532 175.097 30.7962C176.462 32.1144 177.539 33.7505 178.327 35.7042C179.105 37.6332 179.469 39.5709 179.42 41.5171C179.361 43.4386 178.933 45.2646 178.136 46.9951C177.354 48.6908 176.231 50.2217 174.769 51.5876C173.332 52.9436 171.6 54.0305 169.572 54.8484ZM167.47 49.744C168.632 49.2752 169.616 48.6485 170.421 47.8638C171.251 47.0691 171.887 46.1512 172.33 45.1101C172.772 44.0689 172.987 42.9615 172.974 41.788C172.985 40.6044 172.742 39.3944 172.243 38.1578C171.744 36.9213 171.08 35.8808 170.251 35.0364C169.446 34.182 168.523 33.5334 167.482 33.0907C166.466 32.638 165.383 32.4133 164.234 32.4166C163.085 32.4199 161.93 32.6559 160.768 33.1247C159.605 33.5935 158.609 34.2252 157.779 35.0198C156.975 35.8045 156.351 36.7174 155.908 37.7586C155.465 38.7998 155.238 39.9121 155.227 41.0956C155.24 42.2692 155.496 43.4743 155.995 44.7108C156.483 45.9226 157.135 46.9681 157.95 47.8472C158.779 48.6917 159.702 49.3402 160.718 49.7929C161.759 50.2356 162.854 50.4553 164.003 50.4521C165.152 50.4488 166.308 50.2128 167.47 49.744Z" fill="#00EFD8"/>
<path d="M217.157 41.4437L201.566 15.2358L208.507 14.3329L222.178 37.5635L218.092 38.095L225.524 12.1194L231.91 11.2887L223.503 40.6181L217.157 41.4437Z" fill="#00EFD8"/>
<path d="M249.347 22.533L262.821 22.9134L262.679 27.9514L249.205 27.571L249.347 22.533ZM249.502 34.062L264.735 34.492L264.589 39.6899L242.917 39.0782L243.707 11.0893L264.859 11.6864L264.712 16.8843L249.998 16.469L249.502 34.062Z" fill="#00EFD8"/>
<path d="M274.152 40.7038L279.325 13.1857L291.236 15.4246C293.7 15.8877 295.746 16.6929 297.375 17.8403C299.01 18.9615 300.171 20.3602 300.86 22.0363C301.549 23.7124 301.699 25.5856 301.31 27.656C300.926 29.7002 300.108 31.3781 298.858 32.6897C297.612 33.9751 296.025 34.8434 294.095 35.2946C292.165 35.7459 289.968 35.74 287.505 35.277L279.131 33.7031L282.486 31.444L280.521 41.9009L274.152 40.7038ZM291.646 43.992L286.643 32.7137L293.444 33.992L298.525 45.2851L291.646 43.992ZM282.353 32.1516L280.084 28.6319L288.104 30.1393C290.069 30.5087 291.616 30.3653 292.743 29.7089C293.876 29.0263 294.582 27.9381 294.863 26.4442C295.149 24.9242 294.885 23.6537 294.073 22.6328C293.261 21.6119 291.872 20.9167 289.907 20.5472L281.887 19.0399L285.287 16.5449L282.353 32.1516Z" fill="#00EFD8"/>
<path d="M307.629 47.7807L317.488 21.5739L329.393 26.0528C332.239 27.1233 334.54 28.616 336.299 30.5311C338.066 32.4213 339.196 34.5698 339.686 36.9767C340.177 39.3836 339.92 41.9223 338.915 44.5929C337.92 47.2385 336.44 49.3172 334.475 50.8288C332.519 52.3155 330.249 53.1995 327.665 53.4808C325.09 53.7371 322.379 53.33 319.534 52.2596L307.629 47.7807ZM315.567 45.0831L321.108 47.1676C322.855 47.8249 324.487 48.0685 326.004 47.8985C327.555 47.7129 328.911 47.14 330.07 46.18C331.254 45.2293 332.155 43.9303 332.775 42.283C333.404 40.6108 333.582 39.0395 333.309 37.5692C333.07 36.0833 332.424 34.7717 331.37 33.6345C330.351 32.4818 328.968 31.5767 327.221 30.9194L321.68 28.8349L315.567 45.0831Z" fill="#00EFD8"/>
<path d="M356.515 50.8957L368.167 57.6731L365.633 62.0298L353.981 55.2523L356.515 50.8957ZM351.138 61.0951L364.312 68.7574L361.697 73.2524L342.957 62.3521L357.035 38.1485L375.326 48.7873L372.711 53.2823L359.987 45.8813L351.138 61.0951Z" fill="#00EFD8"/>
<path d="M382.812 88.75L402.613 68.9533L406.403 72.7438L400.857 95.1443L398.849 93.1359L421.109 87.4533L424.87 91.2155L405.126 111.069L400.827 106.769L414.009 93.5336L414.801 94.3257L397.066 98.8208L395.002 96.7558L399.359 78.8807L400.321 79.8425L387.111 93.0497L382.812 88.75Z" fill="#00EFD8"/>
<path d="M419.527 131.702C418.295 129.863 417.452 127.957 416.997 125.983C416.556 124.031 416.493 122.116 416.807 120.237C417.136 118.38 417.817 116.64 418.849 115.018C419.896 113.419 421.283 112.04 423.012 110.883C424.74 109.725 426.543 108.967 428.421 108.608C430.313 108.272 432.188 108.316 434.046 108.741C435.903 109.166 437.65 109.954 439.287 111.104C440.924 112.254 442.351 113.738 443.568 115.555C444.799 117.394 445.628 119.278 446.053 121.208C446.494 123.159 446.549 125.064 446.22 126.921C445.906 128.8 445.233 130.551 444.201 132.172C443.191 133.779 441.811 135.169 440.061 136.341C438.332 137.499 436.511 138.253 434.596 138.605C432.703 138.942 430.828 138.897 428.971 138.472C427.151 138.054 425.422 137.27 423.785 136.12C422.163 134.992 420.744 133.519 419.527 131.702ZM424.091 128.598C424.789 129.639 425.604 130.473 426.537 131.1C427.485 131.749 428.514 132.183 429.624 132.402C430.734 132.622 431.862 132.605 433.008 132.351C434.168 132.119 435.303 131.633 436.41 130.891C437.518 130.149 438.4 129.285 439.057 128.3C439.728 127.337 440.173 126.301 440.392 125.191C440.627 124.103 440.625 122.998 440.386 121.874C440.147 120.75 439.678 119.668 438.981 118.626C438.284 117.585 437.461 116.74 436.513 116.091C435.58 115.464 434.558 115.041 433.448 114.822C432.338 114.602 431.203 114.608 430.042 114.84C428.897 115.094 427.77 115.591 426.662 116.333C425.576 117.06 424.687 117.913 423.993 118.891C423.337 119.876 422.892 120.912 422.658 122C422.438 123.11 422.448 124.226 422.687 125.35C422.926 126.474 423.394 127.556 424.091 128.598Z" fill="#00EFD8"/>
<path d="M432.673 152.478L458.284 141.162L463.182 152.248C464.195 154.541 464.69 156.684 464.667 158.677C464.668 160.659 464.173 162.408 463.181 163.925C462.19 165.441 460.73 166.626 458.803 167.477C456.901 168.318 455.055 168.594 453.266 168.306C451.501 168.007 449.887 167.19 448.422 165.854C446.957 164.519 445.719 162.705 444.705 160.412L441.262 152.619L445.024 154.105L435.291 158.405L432.673 152.478ZM439.866 168.76L446.331 158.251L449.127 164.58L442.695 175.163L439.866 168.76ZM444.365 154.396L445.982 150.533L449.28 157.997C450.088 159.827 451.082 161.02 452.261 161.578C453.465 162.125 454.762 162.091 456.152 161.477C457.567 160.852 458.465 159.915 458.847 158.668C459.229 157.421 459.016 155.882 458.207 154.053L454.909 146.589L458.891 147.978L444.365 154.396Z" fill="#00EFD8"/>
<path d="M444.802 180.565L475.014 185.758L476.592 191.961L452.542 210.996L450.866 204.406L472.299 188.389L472.93 190.87L446.439 187L444.802 180.565ZM452.155 185.134L457.347 185.588L460.897 199.544L456.563 202.462L452.155 185.134Z" fill="#00EFD8"/>
<path d="M453.586 218.442L481.512 216.409L482.436 229.095C482.657 232.127 482.266 234.843 481.264 237.242C480.289 239.639 478.812 241.565 476.832 243.019C474.853 244.473 472.44 245.304 469.594 245.511C466.775 245.716 464.267 245.244 462.071 244.094C459.902 242.941 458.148 241.251 456.809 239.022C455.497 236.792 454.731 234.16 454.51 231.128L453.586 218.442ZM459.363 224.519L459.793 230.423C459.928 232.285 460.391 233.869 461.181 235.175C462 236.505 463.088 237.496 464.446 238.145C465.805 238.822 467.362 239.096 469.118 238.968C470.9 238.839 472.401 238.342 473.621 237.477C474.87 236.638 475.79 235.501 476.381 234.068C477 232.659 477.242 231.024 477.107 229.162L476.677 223.258L459.363 224.519Z" fill="#00EFD8"/>
<path d="M453.384 270.03C453.628 267.831 454.213 265.83 455.138 264.027C456.06 262.252 457.247 260.747 458.699 259.513C460.148 258.306 461.79 257.416 463.624 256.842C465.456 256.294 467.406 256.135 469.473 256.365C471.54 256.595 473.407 257.178 475.074 258.115C476.738 259.078 478.142 260.321 479.288 261.844C480.433 263.366 481.26 265.095 481.769 267.03C482.279 268.965 482.412 271.019 482.171 273.192C481.926 275.392 481.344 277.366 480.425 279.115C479.503 280.891 478.318 282.382 476.869 283.589C475.417 284.823 473.774 285.727 471.939 286.301C470.131 286.878 468.18 287.05 466.086 286.817C464.019 286.587 462.14 285.989 460.45 285.023C458.786 284.06 457.382 282.817 456.236 281.295C455.114 279.802 454.299 278.088 453.79 276.153C453.277 274.244 453.142 272.204 453.384 270.03ZM458.874 270.601C458.736 271.846 458.821 273.01 459.13 274.09C459.436 275.198 459.943 276.193 460.649 277.077C461.356 277.96 462.229 278.674 463.269 279.219C464.305 279.791 465.486 280.15 466.811 280.298C468.136 280.445 469.367 280.354 470.504 280.024C471.638 279.721 472.646 279.216 473.53 278.509C474.411 277.829 475.122 276.983 475.664 275.97C476.206 274.957 476.546 273.827 476.685 272.582C476.823 271.336 476.739 270.16 476.433 269.052C476.124 267.971 475.616 266.989 474.91 266.106C474.203 265.222 473.331 264.495 472.295 263.923C471.255 263.378 470.073 263.032 468.748 262.885C467.449 262.74 466.22 262.818 465.059 263.119C463.923 263.448 462.914 263.953 462.033 264.633C461.15 265.34 460.437 266.2 459.895 267.213C459.353 268.226 459.013 269.355 458.874 270.601Z" fill="#00EFD8"/>
<path d="M445.709 310.436L471.795 320.608L469.848 325.602L445.064 333.669L446.008 331.247L464.791 338.571L462.466 344.534L436.379 334.361L438.312 329.405L463.111 321.3L462.166 323.723L443.384 316.398L445.709 310.436Z" fill="#00EFD8"/>
<path d="M433.151 341.559L450.603 366.761L447.281 372.231L416.85 368.396L420.38 362.584L446.824 366.665L445.495 368.853L429.704 347.234L433.151 341.559ZM435.04 350.007L438.352 354.031L430.876 366.339L425.757 365.289L435.04 350.007Z" fill="#00EFD8"/>
<path d="M412.145 374.309L433.327 392.621L425.401 401.789C423.762 403.686 422.037 405.05 420.225 405.881C418.434 406.729 416.641 407.03 414.846 406.782C413.051 406.535 411.356 405.722 409.763 404.344C408.189 402.984 407.15 401.434 406.645 399.693C406.161 397.97 406.209 396.161 406.79 394.266C407.37 392.371 408.48 390.475 410.12 388.579L415.692 382.134L415.957 386.17L407.907 379.211L412.145 374.309ZM400.504 387.775L412.768 389.124L408.243 394.359L395.926 393.071L400.504 387.775ZM415.412 385.699L419.595 385.508L414.259 391.681C412.951 393.194 412.297 394.603 412.297 395.908C412.318 397.229 412.903 398.387 414.053 399.381C415.223 400.393 416.453 400.805 417.744 400.616C419.035 400.428 420.334 399.577 421.642 398.064L426.979 391.891L427.425 396.084L415.412 385.699Z" fill="#00EFD8"/>
<path d="M391.943 397.287L400.169 426.817L395.237 430.896L367.745 417.298L372.985 412.964L396.63 425.488L394.657 427.119L386.826 401.518L391.943 397.287ZM390.958 405.887L392.768 410.775L381.671 419.952L377.179 417.282L390.958 405.887Z" fill="#00EFD8"/>
<path d="M361.437 421.403L375.275 445.744L370.615 448.393L346.29 439.032L348.551 437.747L358.514 455.273L352.951 458.436L339.112 434.095L343.737 431.465L368.097 440.807L365.837 442.092L355.873 424.566L361.437 421.403Z" fill="#00EFD8"/>
<path d="M323.441 440.11C325.211 439.436 326.966 439.138 328.708 439.216C330.435 439.328 332.004 439.815 333.416 440.675L331.591 445.994C330.507 445.322 329.472 444.889 328.485 444.695C327.507 444.525 326.557 444.616 325.635 444.967C323.168 445.907 322.485 447.823 323.587 450.713L328.33 463.16L337.525 459.656L339.376 464.515L324.163 470.312L317.697 453.343C316.462 450.103 316.339 447.382 317.326 445.18C318.313 442.977 320.351 441.287 323.441 440.11Z" fill="#00EFD8"/>
<path d="M307.258 446.858L301.067 476.881L294.815 478.252L276.587 453.585L283.229 452.128L298.527 474.08L296.027 474.629L300.772 448.28L307.258 446.858ZM302.448 454.055L301.822 459.229L287.757 462.314L284.984 457.886L302.448 454.055Z" fill="#00EFD8"/>
</svg>
