<svg width="350" height="353" viewBox="0 0 350 353" fill="none" xmlns="http://www.w3.org/2000/svg">
<path d="M321.199 199.693L340.623 203.905L338.799 212.313C338.422 214.052 337.811 215.488 336.964 216.622C336.137 217.759 335.121 218.556 333.918 219.012C332.716 219.467 331.383 219.537 329.922 219.22C328.479 218.907 327.305 218.294 326.399 217.381C325.511 216.472 324.926 215.328 324.644 213.95C324.362 212.572 324.41 211.013 324.787 209.274L326.068 203.364L327.605 205.789L320.224 204.188L321.199 199.693ZM318.521 212.041L326.622 208.713L325.581 213.514L317.468 216.897L318.521 212.041ZM327.106 205.681L329.648 204.14L328.42 209.801C328.119 211.188 328.191 212.288 328.634 213.101C329.096 213.918 329.855 214.441 330.909 214.669C331.982 214.902 332.889 214.74 333.629 214.184C334.369 213.628 334.89 212.656 335.191 211.269L336.418 205.608L338.122 208.07L327.106 205.681Z" fill="#00A1AD"/>
<path d="M311.57 232.062C312.164 230.607 312.951 229.355 313.932 228.303C314.906 227.27 316.009 226.473 317.239 225.912C318.463 225.369 319.757 225.079 321.121 225.043C322.478 225.025 323.84 225.295 325.207 225.853C326.573 226.411 327.735 227.171 328.691 228.134C329.64 229.114 330.358 230.235 330.845 231.497C331.332 232.759 331.561 234.1 331.534 235.52C331.506 236.94 331.199 238.368 330.612 239.805C330.018 241.26 329.238 242.495 328.271 243.511C327.297 244.545 326.199 245.333 324.975 245.876C323.744 246.437 322.447 246.735 321.083 246.771C319.736 246.814 318.371 246.553 316.986 245.988C315.619 245.43 314.453 244.657 313.486 243.67C312.537 242.689 311.819 241.568 311.332 240.307C310.856 239.069 310.631 237.741 310.659 236.321C310.68 234.919 310.983 233.499 311.57 232.062ZM315.208 233.517C314.872 234.34 314.704 235.151 314.706 235.949C314.7 236.764 314.853 237.542 315.164 238.283C315.475 239.023 315.932 239.68 316.537 240.254C317.133 240.845 317.87 241.32 318.746 241.677C319.622 242.035 320.481 242.212 321.321 242.207C322.154 242.22 322.94 242.071 323.681 241.76C324.414 241.466 325.064 241.026 325.63 240.44C326.197 239.853 326.648 239.148 326.985 238.324C327.321 237.501 327.492 236.681 327.498 235.866C327.496 235.068 327.34 234.299 327.029 233.558C326.718 232.818 326.264 232.152 325.667 231.561C325.063 230.987 324.323 230.521 323.447 230.164C322.588 229.813 321.733 229.628 320.883 229.608C320.043 229.612 319.256 229.761 318.523 230.055C317.782 230.366 317.129 230.815 316.562 231.401C315.996 231.988 315.544 232.693 315.208 233.517Z" fill="#00A1AD"/>
<path d="M302.253 250.944C302.947 249.794 303.798 248.859 304.806 248.141C305.821 247.449 306.911 247.034 308.076 246.897L309.382 250.669C308.483 250.768 307.714 250.979 307.077 251.302C306.457 251.635 305.965 252.101 305.603 252.701C304.635 254.305 305.092 255.674 306.972 256.809L315.067 261.693L318.675 255.712L321.836 257.619L315.867 267.513L304.829 260.855C302.722 259.584 301.463 258.117 301.051 256.454C300.64 254.791 301.04 252.954 302.253 250.944Z" fill="#00A1AD"/>
<path d="M288.12 270.967C289.129 269.763 290.262 268.811 291.517 268.109C292.76 267.423 294.054 267.001 295.397 266.843C296.728 266.699 298.048 266.819 299.358 267.201C300.656 267.598 301.87 268.271 303.001 269.22C304.132 270.169 305.006 271.248 305.623 272.457C306.227 273.68 306.568 274.967 306.646 276.317C306.724 277.667 306.533 279.014 306.073 280.358C305.613 281.701 304.884 282.968 303.886 284.157C302.877 285.36 301.756 286.298 300.525 286.97C299.282 287.657 297.995 288.072 296.664 288.216C295.321 288.373 293.994 288.261 292.684 287.879C291.389 287.509 290.169 286.843 289.023 285.882C287.892 284.933 287.017 283.841 286.398 282.605C285.794 281.382 285.453 280.095 285.375 278.744C285.299 277.421 285.491 276.087 285.951 274.744C286.399 273.415 287.122 272.156 288.12 270.967ZM291.14 273.463C290.568 274.145 290.161 274.866 289.918 275.626C289.664 276.4 289.571 277.188 289.642 277.988C289.712 278.788 289.947 279.553 290.346 280.284C290.734 281.029 291.291 281.706 292.016 282.315C292.741 282.923 293.504 283.353 294.305 283.605C295.095 283.872 295.889 283.97 296.689 283.9C297.477 283.845 298.23 283.624 298.949 283.239C299.668 282.854 300.313 282.32 300.885 281.639C301.456 280.957 301.87 280.229 302.124 279.454C302.367 278.694 302.453 277.914 302.383 277.114C302.313 276.314 302.084 275.541 301.696 274.796C301.296 274.065 300.734 273.395 300.009 272.787C299.298 272.191 298.541 271.753 297.737 271.475C296.936 271.222 296.141 271.124 295.353 271.179C294.553 271.25 293.794 271.477 293.075 271.863C292.357 272.248 291.711 272.782 291.14 273.463Z" fill="#00A1AD"/>
<path d="M269.846 290.232L274.107 311.57L270.401 314.197L251.659 303.117L255.598 300.327L271.673 310.442L270.19 311.493L266 292.957L269.846 290.232ZM268.694 296.268L269.716 299.823L261.376 305.732L258.338 303.605L268.694 296.268Z" fill="#00A1AD"/>
<path d="M248.072 305.014L249.386 307.69L244.884 326.413L243.636 325.16L254.977 319.59L256.629 322.955L241.618 330.326L240.304 327.65L244.781 308.94L246.029 310.193L234.127 316.038L232.475 312.674L248.072 305.014Z" fill="#00A1AD"/>
<path d="M218.296 317.139C220.995 316.321 223.334 316.433 225.311 317.476C227.288 318.518 228.699 320.434 229.545 323.224L232.772 333.876L228.37 335.21L225.192 324.721C224.643 322.909 223.877 321.717 222.892 321.145C221.908 320.573 220.746 320.491 219.405 320.897C218.065 321.303 217.144 322.017 216.643 323.039C216.141 324.061 216.165 325.478 216.714 327.29L219.892 337.778L215.545 339.096L212.317 328.444C211.472 325.654 211.582 323.277 212.648 321.312C213.714 319.348 215.597 317.956 218.296 317.139Z" fill="#00A1AD"/>
<path d="M202.043 321.582L204.75 341.272L200.193 341.898L197.997 325.921L188.124 327.279L187.613 323.566L202.043 321.582Z" fill="#00A1AD"/>
<path d="M172.246 324.235L161.474 343.142L156.954 342.695L150.065 322.042L154.869 322.517L160.375 340.694L158.567 340.515L167.555 323.771L172.246 324.235ZM167.419 328.038L165.86 331.393L155.688 330.387L154.789 326.789L167.419 328.038Z" fill="#00A1AD"/>
<path d="M144.906 321.078L139.285 340.142L135.636 339.066L131.486 323.22L133.42 323.79L121.474 334.891L117.852 333.823L123.418 314.743L127.557 315.963L123.835 328.69L123.073 328.465L132.601 319.641L134.589 320.227L137.942 332.849L137.016 332.576L140.766 319.858L144.906 321.078Z" fill="#00A1AD"/>
<path d="M118.218 312.697L101.253 326.323L97.2126 324.246L98.3956 302.507L102.688 304.714L101.13 323.642L99.5144 322.812L114.026 310.542L118.218 312.697ZM112.332 314.46L109.649 317.007L100.559 312.334L101.044 308.657L112.332 314.46Z" fill="#00A1AD"/>
<path d="M94.0153 299.501L82.117 315.421L75.2259 310.271C73.8006 309.205 72.7482 308.053 72.0684 306.812C71.3774 305.587 71.0743 304.332 71.1592 303.049C71.2441 301.765 71.7342 300.524 72.6294 299.327C73.5133 298.144 74.5587 297.33 75.7656 296.885C76.9611 296.455 78.2444 296.398 79.6154 296.714C80.9863 297.03 82.3844 297.72 83.8097 298.785L88.6539 302.406L85.8096 302.797L90.331 296.747L94.0153 299.501ZM83.8947 291.937L83.5573 300.688L79.6228 297.748L79.9147 288.962L83.8947 291.937ZM86.1155 302.388L86.4612 305.34L81.8217 301.872C80.6845 301.022 79.6541 300.63 78.7305 300.696C77.7956 300.777 77.0051 301.25 76.3592 302.114C75.702 302.994 75.4726 303.886 75.6709 304.79C75.8693 305.695 76.5371 306.572 77.6742 307.422L82.3138 310.889L79.3675 311.416L86.1155 302.388Z" fill="#00A1AD"/>
<path d="M75.0223 284.239L61.2034 298.524L57.8975 295.326L71.7164 281.041L75.0223 284.239Z" fill="#00A1AD"/>
<path d="M65.7858 274.988L50.416 287.589L47.4997 284.032L59.9712 273.807L53.6526 266.1L56.5509 263.724L65.7858 274.988Z" fill="#00A1AD"/>
<path d="M53.0377 258.574L36.0484 268.888L33.6614 264.956L47.447 256.587L42.2751 248.068L45.4788 246.123L53.0377 258.574Z" fill="#00A1AD"/>
<path d="M39.2993 231.589C39.8869 233.046 40.1951 234.494 40.2238 235.931C40.2454 237.351 40.0102 238.691 39.5182 239.951C39.019 241.193 38.2928 242.302 37.3395 243.279C36.3792 244.238 35.2143 244.993 33.8451 245.545C32.4758 246.098 31.1127 246.362 29.7559 246.337C28.392 246.295 27.0958 245.992 25.8675 245.426C24.6392 244.86 23.5402 244.058 22.5706 243.02C21.6011 241.983 20.826 240.744 20.2455 239.304C19.6578 237.847 19.3567 236.418 19.3422 235.015C19.3206 233.595 19.5594 232.264 20.0585 231.022C20.5505 229.762 21.2732 228.644 22.2265 227.668C23.1622 226.698 24.3235 225.934 25.7103 225.375C27.0796 224.823 28.455 224.564 29.8364 224.599C31.2004 224.64 32.4965 224.944 33.7248 225.51C34.9285 226.066 36.0152 226.862 36.9848 227.9C37.9472 228.92 38.7188 230.15 39.2993 231.589ZM35.6761 233.081C35.3433 232.256 34.8985 231.558 34.3415 230.987C33.7774 230.398 33.1259 229.946 32.3868 229.632C31.6478 229.318 30.8617 229.165 30.0287 229.175C29.1886 229.166 28.3297 229.339 27.452 229.693C26.5742 230.047 25.8357 230.519 25.2363 231.107C24.6298 231.679 24.1694 232.334 23.8552 233.073C23.5339 233.794 23.3744 234.563 23.3767 235.378C23.379 236.194 23.5465 237.014 23.8793 237.839C24.212 238.664 24.6605 239.371 25.2245 239.96C25.7815 240.531 26.4295 240.974 27.1686 241.288C27.9076 241.603 28.6972 241.764 29.5373 241.772C30.3703 241.763 31.2257 241.581 32.1034 241.227C32.9636 240.88 33.7057 240.417 34.3297 239.839C34.9291 239.25 35.3895 238.595 35.7108 237.874C36.0251 237.135 36.181 236.358 36.1787 235.542C36.1764 234.727 36.0088 233.906 35.6761 233.081Z" fill="#00A1AD"/>
<path d="M29.8063 197.889L11.2033 208.955L10.5623 204.028L27.0521 194.324L27.4293 197.224L8.99117 191.949L8.40152 187.416L29.2203 193.384L29.8063 197.889Z" fill="#00A1AD"/>
<path d="M16.3854 175.089L16.6554 165.525L20.2315 165.626L19.9615 175.19L16.3854 175.089ZM24.5689 174.98L24.8742 164.166L28.5638 164.27L28.1296 179.653L8.26239 179.092L8.68622 164.078L12.3758 164.183L12.081 174.627L24.5689 174.98Z" fill="#00A1AD"/>
<path d="M29.2777 157.532L9.74463 153.861L11.3339 145.406C11.6625 143.657 12.2341 142.204 13.0486 141.048C13.8444 139.888 14.8372 139.063 16.027 138.574C17.2167 138.085 18.5464 137.979 20.016 138.255C21.4671 138.528 22.6581 139.108 23.5891 139.995C24.5014 140.88 25.1178 142.007 25.4381 143.376C25.7584 144.746 25.7542 146.306 25.4255 148.054L24.3084 153.998L22.7048 151.616L30.1274 153.012L29.2777 157.532ZM31.6117 145.115L23.6061 148.666L24.5135 143.838L32.5296 140.231L31.6117 145.115ZM23.2071 151.711L20.7087 153.321L21.7787 147.629C22.0409 146.234 21.9391 145.136 21.4732 144.336C20.9887 143.532 20.2162 143.031 19.1559 142.831C18.0769 142.628 17.1751 142.815 16.4504 143.392C15.7257 143.968 15.2323 144.954 14.97 146.349L13.9 152.042L12.1291 149.629L23.2071 151.711Z" fill="#00A1AD"/>
<path d="M34.2866 133.823L15.6844 126.825L18.8636 118.374C19.6234 116.355 20.683 114.721 22.0424 113.473C23.3841 112.218 24.9091 111.417 26.6176 111.068C28.3261 110.72 30.1281 110.903 32.0238 111.616C33.9017 112.322 35.3772 113.373 36.4502 114.767C37.5055 116.155 38.133 117.767 38.3326 119.601C38.5146 121.429 38.2256 123.353 37.4658 125.373L34.2866 133.823ZM32.3718 128.189L33.8514 124.256C34.318 123.016 34.4909 121.857 34.3702 120.78C34.2384 119.679 33.8318 118.717 33.1503 117.894C32.4755 117.054 31.5535 116.414 30.3842 115.974C29.1972 115.527 28.0819 115.401 27.0382 115.595C25.9835 115.764 25.0525 116.223 24.2453 116.971C23.427 117.695 22.7846 118.677 22.318 119.917L20.8384 123.85L32.3718 128.189Z" fill="#00A1AD"/>
<path d="M36.4752 99.1706L41.286 90.8995L44.3784 92.6982L39.5676 100.969L36.4752 99.1706ZM43.7149 102.987L49.1539 93.6363L52.3445 95.4921L44.6072 108.795L27.4269 98.8018L34.9786 85.8184L38.1692 87.6742L32.9159 96.7062L43.7149 102.987Z" fill="#00A1AD"/>
<path d="M63.2953 80.5687L49.2431 66.5132L51.9337 63.8232L67.8342 67.7601L66.4085 69.1854L62.3749 53.3845L65.0454 50.7145L79.1378 64.7298L76.0858 67.7812L66.6909 58.4243L67.2531 57.8622L70.4439 70.4507L68.9781 71.9162L56.2898 68.8229L56.9725 68.1404L66.3474 77.5173L63.2953 80.5687Z" fill="#00A1AD"/>
<path d="M93.7352 54.547C92.4298 55.4212 91.0765 56.0198 89.6755 56.343C88.2902 56.6556 86.9305 56.7004 85.5966 56.4775C84.2784 56.244 83.0437 55.7609 81.8924 55.0283C80.7569 54.2852 79.7784 53.3003 78.9569 52.0735C78.1353 50.8467 77.5972 49.5669 77.3424 48.2339C77.1034 46.8905 77.1347 45.5596 77.4365 44.2412C77.7382 42.9229 78.2974 41.6827 79.114 40.5208C79.9305 39.3589 80.9837 38.3461 82.2733 37.4824C83.5787 36.6083 84.9162 36.0201 86.2858 35.718C87.6711 35.4054 89.0229 35.3658 90.3411 35.5993C91.675 35.8223 92.9176 36.3001 94.0689 37.0327C95.2096 37.7496 96.196 38.7292 97.028 39.9717C97.8496 41.1985 98.3851 42.4915 98.6347 43.8507C98.8737 45.1941 98.8424 46.525 98.5406 47.8434C98.2441 49.1355 97.6875 50.3625 96.8709 51.5244C96.0701 52.6758 95.0248 53.6833 93.7352 54.547ZM91.5314 51.3071C92.2706 50.8121 92.8626 50.2334 93.3075 49.571C93.768 48.898 94.0763 48.1677 94.2321 47.3799C94.388 46.5921 94.3758 45.7915 94.1956 44.9781C94.0312 44.1542 93.6856 43.3491 93.159 42.5627C92.6324 41.7763 92.0195 41.1502 91.3203 40.6844C90.6368 40.2081 89.9012 39.892 89.1134 39.7362C88.3413 39.5698 87.5564 39.5714 86.7588 39.7411C85.9612 39.9107 85.1928 40.2431 84.4535 40.7381C83.7143 41.2331 83.1144 41.8171 82.6539 42.49C82.209 43.1524 81.9086 43.8776 81.7528 44.6654C81.5969 45.4532 81.6012 46.259 81.7657 47.0829C81.9459 47.8963 82.2993 48.6961 82.8259 49.4825C83.342 50.2532 83.947 50.8845 84.641 51.3766C85.3402 51.8424 86.0759 52.1585 86.848 52.3248C87.6358 52.4807 88.4285 52.4738 89.2261 52.3041C90.0237 52.1345 90.7922 51.8022 91.5314 51.3071Z" fill="#00A1AD"/>
<path d="M108.435 45.243L100.402 27.0634L108.271 23.5865C109.899 22.8674 111.42 22.5161 112.834 22.5326C114.241 22.5318 115.483 22.8834 116.56 23.5872C117.636 24.2911 118.477 25.3269 119.081 26.6947C119.678 28.0452 119.874 29.3554 119.669 30.6253C119.457 31.878 118.877 33.0241 117.929 34.0637C116.981 35.1033 115.694 35.9827 114.066 36.7018L108.534 39.1459L109.59 36.4758L112.642 43.3841L108.435 45.243ZM119.992 40.1367L112.532 35.5482L117.025 33.563L124.537 38.1285L119.992 40.1367ZM109.796 36.9433L107.054 35.7957L112.352 33.4548C113.651 32.8811 114.498 32.1756 114.894 31.3385C115.282 30.4841 115.258 29.5635 114.822 28.5766C114.378 27.5724 113.714 26.9348 112.828 26.6638C111.943 26.3928 110.851 26.5442 109.552 27.1179L104.254 29.4588L105.241 26.6328L109.796 36.9433Z" fill="#00A1AD"/>
<path d="M128.322 36.6482L132.008 15.2028L136.411 14.083L149.923 31.1541L145.245 32.3439L133.876 17.1302L135.637 16.6823L132.89 35.4864L128.322 36.6482ZM131.565 31.4289L131.887 27.7433L141.794 25.2238L143.865 28.3004L131.565 31.4289Z" fill="#00A1AD"/>
<path d="M155.153 30.4229L153.71 10.6003L162.715 9.94467C164.867 9.78798 166.795 10.0652 168.498 10.7763C170.199 11.4685 171.566 12.5172 172.598 13.9224C173.631 15.3275 174.22 17.0401 174.367 19.0602C174.513 21.0613 174.178 22.8413 173.361 24.4C172.543 25.9399 171.343 27.185 169.762 28.1352C168.178 29.0666 166.31 29.6106 164.158 29.7673L155.153 30.4229ZM159.466 26.3226L163.657 26.0175C164.979 25.9213 166.103 25.5927 167.03 25.0318C167.975 24.4506 168.678 23.6782 169.139 22.7147C169.619 21.7497 169.814 20.6443 169.723 19.3983C169.631 18.1334 169.278 17.0678 168.665 16.2015C168.069 15.3149 167.262 14.662 166.245 14.2426C165.245 13.803 164.084 13.6313 162.763 13.7275L158.572 14.0326L159.466 26.3226Z" fill="#00A1AD"/>
<path d="M191.714 30.5649C190.153 30.3913 188.732 29.9762 187.453 29.3197C186.193 28.6653 185.125 27.8228 184.249 26.7922C183.392 25.7636 182.76 24.5982 182.352 23.2959C181.964 21.9957 181.851 20.6119 182.014 19.1445C182.177 17.6771 182.591 16.3519 183.256 15.1688C183.94 13.9879 184.822 12.9909 185.903 12.1779C186.984 11.3648 188.211 10.7776 189.584 10.4161C190.957 10.0546 192.415 9.95969 193.958 10.1313C195.52 10.3049 196.921 10.7179 198.163 11.3702C199.423 12.0246 200.482 12.8661 201.339 13.8946C202.214 14.9253 202.856 16.0917 203.263 17.394C203.673 18.6775 203.795 20.0624 203.63 21.5486C203.467 23.016 203.042 24.3496 202.356 25.5493C201.673 26.7303 200.791 27.7273 199.71 28.5403C198.65 29.3366 197.433 29.9155 196.06 30.277C194.705 30.6405 193.257 30.7365 191.714 30.5649ZM192.119 26.6676C193.003 26.7659 193.829 26.7054 194.596 26.486C195.382 26.2687 196.089 25.9092 196.716 25.4076C197.343 24.906 197.85 24.2863 198.237 23.5484C198.642 22.8127 198.897 21.9745 199.002 21.0339C199.107 20.0932 199.042 19.2195 198.808 18.4126C198.593 17.6078 198.234 16.8918 197.733 16.2647C197.25 15.6396 196.649 15.1347 195.93 14.75C195.211 14.3653 194.409 14.1238 193.525 14.0255C192.641 13.9271 191.806 13.9866 191.02 14.2039C190.253 14.4233 189.555 14.7838 188.928 15.2854C188.301 15.7871 187.785 16.4057 187.379 17.1415C186.992 17.8793 186.747 18.7186 186.642 19.6592C186.539 20.581 186.595 21.4537 186.808 22.2773C187.042 23.0842 187.4 23.8002 187.883 24.4253C188.385 25.0524 188.995 25.5583 189.714 25.943C190.433 26.3277 191.235 26.5692 192.119 26.6676Z" fill="#00A1AD"/>
<path d="M220.314 35.9937L227.535 17.4767L231.079 18.859L236.805 36.4515L235.086 35.781L240.285 22.4487L244.517 24.0992L237.297 42.6162L233.778 41.2442L228.026 23.6414L229.745 24.3119L224.546 37.6441L220.314 35.9937Z" fill="#00A1AD"/>
<path d="M242.357 44.8844L260.246 32.4964L264.129 34.8549L261.406 56.4555L257.281 53.9496L260.178 35.1791L261.731 36.1225L246.385 47.3313L242.357 44.8844ZM248.353 43.5438L251.21 41.1928L259.946 46.4993L259.201 50.1327L248.353 43.5438Z" fill="#00A1AD"/>
<path d="M265.561 59.7626L278.559 44.7268L285.067 50.3531C286.413 51.5167 287.382 52.7414 287.972 54.027C288.574 55.2984 288.787 56.5712 288.611 57.8455C288.436 59.1197 287.859 60.3225 286.881 61.4537C285.915 62.5707 284.815 63.3082 283.579 63.6664C282.356 64.0103 281.072 63.9762 279.727 63.564C278.382 63.1518 277.036 62.3639 275.69 61.2003L271.115 57.2452L273.98 57.0571L269.041 62.7706L265.561 59.7626ZM275.12 68.0255L276.077 59.3202L279.793 62.5326L278.879 71.275L275.12 68.0255ZM273.646 57.4437L273.511 54.4743L277.892 58.2623C278.966 59.1907 279.966 59.6548 280.892 59.6546C281.831 59.6401 282.653 59.2247 283.358 58.4085C284.076 57.5779 284.368 56.7045 284.235 55.7883C284.101 54.872 283.497 53.9497 282.423 53.0213L278.041 49.2333L281.018 48.9163L273.646 57.4437Z" fill="#00A1AD"/>
<path d="M281.834 74.0653L302.796 68.2256L305.691 71.7265L296.038 91.2413L292.962 87.5216L301.852 70.7378L303.01 72.1381L284.838 77.6974L281.834 74.0653ZM287.939 74.7644L291.408 73.4796L297.922 81.3565L296.027 84.5449L287.939 74.7644Z" fill="#00A1AD"/>
<path d="M298.921 95.6761L316.199 85.8533L318.079 89.1608L311.435 106.427L310.523 104.823L322.963 97.7505L325.208 101.7L307.93 111.523L306.064 108.24L312.694 90.9486L313.606 92.553L301.166 99.6254L298.921 95.6761Z" fill="#00A1AD"/>
<path d="M312.18 122.601C311.701 121.345 311.49 120.099 311.545 118.863C311.625 117.637 311.97 116.523 312.581 115.521L316.356 116.817C315.88 117.586 315.572 118.321 315.434 119.022C315.314 119.716 315.378 120.39 315.628 121.044C316.295 122.795 317.655 123.28 319.706 122.498L328.541 119.131L326.054 112.605L329.503 111.29L333.618 122.089L321.573 126.679C319.273 127.555 317.342 127.643 315.779 126.942C314.215 126.242 313.016 124.795 312.18 122.601Z" fill="#00A1AD"/>
<path d="M316.955 134.042L338.266 138.437L339.239 142.874L321.73 155.813L320.696 151.098L336.278 140.239L336.667 142.014L317.964 138.646L316.955 134.042ZM322.064 137.456L325.737 137.9L327.926 147.885L324.783 149.853L322.064 137.456Z" fill="#00A1AD"/>
</svg>
