<svg width="201" height="198" viewBox="0 0 201 198" fill="none" xmlns="http://www.w3.org/2000/svg">
<path d="M82.8336 44.1535C78.9953 33.5897 75.213 23.1825 71.3066 12.4339C90.7023 6.26831 109.894 6.3366 129.426 12.3656C129.037 13.5545 128.725 14.6109 128.353 15.6432C125.147 24.504 121.913 33.3567 118.735 42.2255C118.243 43.6032 117.811 44.278 116.057 43.788C105.335 40.7916 94.5966 40.9402 83.8862 43.9567C83.638 44.029 83.3739 44.0491 82.8336 44.1455V44.1535Z" fill="#F4DA22"/>
<path d="M192.685 123.246C192.089 125.6 191.677 127.492 191.128 129.347C187.274 142.398 180.906 154.098 172.169 164.485C170.028 167.028 167.558 169.293 165.253 171.695C164.308 172.679 163.636 172.908 162.567 171.607C156.264 163.935 149.868 156.339 143.464 148.752C142.563 147.687 142.447 146.884 143.492 145.844C151.229 138.144 156.384 128.926 159.197 118.398C159.634 116.771 160.518 116.852 161.703 117.064C169.503 118.454 177.304 119.84 185.105 121.226C187.07 121.575 189.047 121.864 190.996 122.294C191.617 122.431 192.153 122.937 192.681 123.246H192.685Z" fill="#93830D"/>
<path d="M8.2793 123.378C8.9557 123.041 9.69214 122.451 10.5086 122.298C16.068 121.254 21.6473 120.306 27.2147 119.318C31.2771 118.599 35.3475 117.908 39.398 117.104C40.7068 116.843 41.2311 117.321 41.5312 118.498C43.3563 125.636 46.4262 132.223 50.6927 138.192C52.6939 140.996 55.0434 143.57 57.4368 146.057C58.3694 147.025 58.2173 147.583 57.5489 148.386C54.7352 151.768 51.9135 155.142 49.0958 158.52C45.6817 162.613 42.2397 166.686 38.8656 170.811C37.2967 172.731 36.8965 172.868 35.1114 171.117C26.6103 162.786 19.5461 153.375 14.8873 142.365C12.4818 136.674 10.7007 130.713 8.64352 124.873C8.53145 124.559 8.48342 124.226 8.2793 123.378V123.378Z" fill="#0D3B73"/>
<path d="M100.345 122.99C89.2185 122.969 80.1771 113.832 80.2051 102.625C80.2332 91.4627 89.3947 82.3329 100.501 82.4011C111.628 82.4694 120.669 91.6114 120.665 102.786C120.661 113.908 111.504 123.01 100.345 122.99Z" fill="#D9D9D9"/>
<path d="M188.318 103.825C188.174 105.874 187.882 109.336 187.714 112.807C187.642 114.289 187.026 114.602 185.681 114.357C178.673 113.084 171.648 111.899 164.644 110.598C160.838 109.891 160.954 109.818 161.138 105.874C161.59 96.1014 159.873 86.7104 155.827 77.7854C154.646 75.1785 154.59 75.1946 156.992 73.8008C163.384 70.0894 169.791 66.4102 176.155 62.6425C177.612 61.7789 178.356 61.8512 179.173 63.5141C185.177 75.7851 188.186 88.7428 188.322 103.821L188.318 103.825Z" fill="#A39116"/>
<path d="M174.591 55.5816C174.026 55.9954 173.582 56.381 173.086 56.6661C166.454 60.5221 159.79 64.3139 153.198 68.2382C151.701 69.1299 150.985 68.8969 150.004 67.5031C143.76 58.6223 135.683 51.8984 125.845 47.3475C124.773 46.8494 124.461 46.3513 124.877 45.2186C127.667 37.6231 130.424 30.0156 133.154 22.4C133.57 21.2391 134.154 21.2432 135.135 21.677C144.236 25.7137 152.501 31.0318 159.822 37.8079C164.741 42.3628 169.119 47.3836 172.898 52.9266C173.458 53.746 173.966 54.5976 174.591 55.5816Z" fill="#C7B21C"/>
<path d="M103.872 177.182C103.872 173.435 103.944 169.687 103.84 165.939C103.796 164.329 104.345 163.654 105.934 163.521C113.118 162.935 119.978 161.047 126.446 157.882C129.364 156.456 132.145 154.725 134.891 152.974C136.308 152.07 137.168 151.929 138.365 153.416C143.02 159.175 147.827 164.811 152.578 170.49C154.086 172.298 154.038 172.459 152.121 173.864C141.851 181.396 130.448 186.408 118.025 188.991C113.994 189.831 109.844 190.08 105.749 190.614C104.353 190.799 103.848 190.224 103.872 188.818C103.932 184.938 103.892 181.058 103.892 177.174H103.876L103.872 177.182Z" fill="#968626"/>
<path d="M45.4852 74.9982C43.8282 80.4407 42.0591 85.4776 40.7824 90.6431C39.3775 96.3186 39.1854 102.155 39.7658 107.983C39.8778 109.092 39.9779 109.843 38.493 110.092C30.7404 111.397 22.9997 112.775 15.2671 114.213C13.8662 114.474 13.3779 114.153 13.2298 112.719C11.4728 95.5956 14.1464 79.2719 21.7309 63.7756C22.5394 62.1247 23.1838 61.9681 24.7087 62.8718C30.9525 66.5792 37.2683 70.1621 43.556 73.7972C44.3005 74.227 45.0169 74.7009 45.4852 74.9941V74.9982Z" fill="#8F939F"/>
<path d="M66.6973 21.5245C67.0135 21.9463 67.4658 22.3319 67.6459 22.8219C70.3715 30.2889 73.0532 37.772 75.7708 45.247C76.143 46.2712 75.8989 46.7452 74.8662 47.2272C65.0043 51.8423 56.8194 58.51 50.6397 67.5395C49.7992 68.7686 49.0788 68.881 47.862 68.1661C41.2541 64.286 34.6181 60.4541 27.9861 56.6222C26.9135 56.0036 26.4212 55.4734 27.3097 54.1399C36.7834 39.945 49.2669 29.345 64.7682 22.3158C65.3125 22.0708 65.8729 21.8619 66.6973 21.5286V21.5245Z" fill="#887D40"/>
<path d="M96.7803 177.306C96.7803 180.917 96.6882 184.528 96.8203 188.131C96.8883 190.007 96.244 190.734 94.4309 190.424C88.7314 189.464 82.8959 188.986 77.3686 187.404C71.401 185.697 65.5976 183.222 59.9622 180.571C56.0198 178.72 52.4777 176.012 48.7595 173.683C47.3066 172.771 47.1865 171.835 48.3672 170.461C53.2141 164.806 58.009 159.098 62.7358 153.342C63.6684 152.206 64.3128 152.093 65.5055 152.937C73.4103 158.528 82.2275 161.854 91.7493 163.372C91.9454 163.404 92.1415 163.452 92.3416 163.46C97.6768 163.653 96.7323 163.81 96.8403 168.674C96.9044 171.546 96.8523 174.422 96.8523 177.298C96.8283 177.298 96.8003 177.298 96.7763 177.298L96.7803 177.306Z" fill="#16427F"/>
<path d="M48.0273 115.506C52.8342 114.638 57.3369 113.819 61.8396 113.024C65.5098 112.377 69.192 111.815 72.8502 111.108C74.0309 110.879 74.5232 111.108 75.1036 112.269C76.4244 114.94 77.9973 117.49 79.6063 120.005C80.1666 120.884 80.2787 121.451 79.5943 122.266C74.4472 128.379 69.3201 134.517 64.2051 140.654C63.6087 141.369 63.0404 141.775 62.2439 140.968C55.2637 133.878 50.5569 125.52 48.0313 115.498L48.0273 115.506Z" fill="#7C97D9"/>
<path d="M137.761 141.861C137.304 141.431 137.04 141.23 136.836 140.981C131.365 134.43 125.898 127.875 120.646 121.585C122.5 118.13 124.221 114.853 126.03 111.627C126.242 111.246 126.986 110.872 127.411 110.944C135.611 112.354 143.8 113.828 151.989 115.303C152.229 115.347 152.45 115.519 152.822 115.704C150.276 125.834 145.357 134.494 137.765 141.861H137.761Z" fill="#BCAF77"/>
<path d="M55.7656 72.6125C59.3158 65.6315 71.9153 55.0797 78.8555 53.3606C79.804 55.9433 80.7766 58.5541 81.7252 61.169C83.6143 66.3746 85.4474 71.6003 87.4006 76.7818C87.8849 78.0631 87.7488 78.6335 86.5401 79.489C84.1667 81.164 82.0134 83.1683 79.8681 85.1445C79.1396 85.8153 78.6714 86.1848 77.6828 85.6064C70.6706 81.5094 63.6263 77.4686 56.5981 73.3917C56.2699 73.2029 56.0298 72.8615 55.7656 72.6085V72.6125Z" fill="#A29C88"/>
<path d="M46.76 108.384C45.6513 98.3745 47.3643 88.9756 51.4388 79.9581C51.879 78.9861 52.4154 78.8375 53.3079 79.3556C60.2761 83.4085 67.2723 87.4211 74.2044 91.5342C74.6727 91.8113 75.0009 92.8396 74.9129 93.4501C74.4646 96.6072 73.9002 99.7523 73.2759 102.881C73.1758 103.383 72.6075 104.102 72.1592 104.183C63.9663 105.677 55.7614 107.091 47.5564 108.509C47.3763 108.541 47.1762 108.452 46.76 108.38V108.384Z" fill="#99A1B9"/>
<path d="M148.885 78.9183C153.36 88.2732 155.217 97.9975 154.085 108.614C152.592 108.389 151.243 108.216 149.902 107.983C143.078 106.79 136.266 105.557 129.434 104.404C128.025 104.167 127.561 103.657 127.429 102.123C127.184 99.2828 126.424 96.4953 125.984 93.6675C125.884 93.0289 125.996 91.9444 126.392 91.7074C133.612 87.4297 140.889 83.2483 148.157 79.0509C148.265 78.9906 148.413 78.9987 148.877 78.9183H148.885Z" fill="#CABA6C"/>
<path d="M145.329 72.7046C139.845 75.8898 134.61 78.9345 129.375 81.9791C127.358 83.152 125.317 84.2847 123.327 85.5057C122.383 86.0841 121.859 86.0078 120.982 85.1764C118.773 83.0716 116.311 81.24 114.03 79.2076C113.578 78.8019 113.097 77.8701 113.261 77.4041C116.067 69.4712 118.973 61.5704 121.867 53.6656C121.907 53.5572 122.051 53.4808 122.315 53.2318C131.708 57.4493 139.337 63.8358 145.329 72.7006V72.7046Z" fill="#E0CD73"/>
<path d="M85.4336 50.7095C95.4356 47.7974 105.342 47.8416 115.58 50.7296C114.615 53.4248 113.731 55.9191 112.826 58.4054C110.869 63.8038 108.868 69.1862 106.967 74.6046C106.562 75.7614 106.078 76.0466 104.817 75.9743C101.847 75.8016 98.8617 75.9864 95.8839 75.906C95.2595 75.89 94.2669 75.5004 94.0948 75.0384C91.1971 67.2863 88.3994 59.4939 85.5857 51.7056C85.4976 51.4686 85.5016 51.1955 85.4336 50.7135V50.7095Z" fill="#FFED78"/>
<path d="M103.876 156.773C103.876 155.432 103.876 154.448 103.876 153.464C103.876 146.181 103.892 138.899 103.844 131.617C103.836 130.288 104.156 129.701 105.589 129.299C108.383 128.516 111.044 127.271 113.802 126.331C114.39 126.13 115.455 126.142 115.771 126.512C121.214 132.906 126.578 139.373 131.949 145.828C132.025 145.92 132.029 146.077 132.153 146.487C123.856 152.54 114.57 155.958 103.876 156.773V156.773Z" fill="#B0A781"/>
<path d="M68.627 146.474C69.0112 145.856 69.2393 145.374 69.5675 144.98C74.5665 138.995 79.6095 133.047 84.5685 127.03C85.4651 125.941 86.1054 125.889 87.3862 126.463C89.9798 127.62 92.7014 128.492 95.407 129.375C96.2876 129.665 96.984 129.777 96.98 130.986C96.9279 139.204 96.9439 147.418 96.9279 155.636C96.9279 155.894 96.8359 156.147 96.7318 156.701C86.3696 156.038 77.1361 152.528 68.627 146.474V146.474Z" fill="#8D97B5"/>
</svg>
