<svg width="148" height="148" viewBox="0 0 148 148" fill="none" xmlns="http://www.w3.org/2000/svg">
<path d="M76.793 75.0788V75.1388L76.7797 75.1522L2.15625 59.8499C5.65162 42.1129 15.5374 26.6773 29.3187 16.0244L76.793 75.0788Z" fill="#A0A8BF"/>
<path d="M76.7946 75.0788L29.3203 16.0244C41.7209 6.44551 57.2766 0.742188 74.1598 0.742188C74.7267 0.742188 75.2937 0.748858 75.8607 0.76887L76.7946 75.0788Z" fill="#B9C6E6"/>
<path d="M147.561 74.1446C147.561 79.3543 147.021 84.4306 145.98 89.3335L76.8666 75.1652H76.86L76.8199 75.1118L76.7933 75.0785L75.8594 0.768555C98.9862 1.28886 119.471 12.5087 132.552 29.672C141.971 42.0126 147.561 57.4282 147.561 74.1446Z" fill="#776A20"/>
<path d="M145.98 89.3339C142.545 105.703 133.646 120.065 121.286 130.425C109.385 140.41 94.2631 146.681 77.7002 147.468L76.793 75.1523L76.8597 75.1657H76.8663L145.98 89.3339Z" fill="#8A7E55"/>
<path d="M77.7008 147.468C76.5268 147.528 75.3461 147.554 74.1587 147.554C52.0925 147.554 32.301 137.815 18.8398 122.4L76.7802 75.1523H76.7936L77.7008 147.468Z" fill="#F1DC00"/>
<path d="M76.8609 75.1644L76.7945 75.1511H76.7812L76.7945 75.1379V75.0781L76.8211 75.1113L76.8609 75.1644Z" fill="#DE214D"/>
<path d="M76.7801 75.1519L18.8397 122.399C7.57983 109.499 0.755859 92.6153 0.755859 74.1446C0.755859 69.2551 1.23614 64.4723 2.15667 59.8496L76.7801 75.1519Z" fill="#D2C9A4"/>
</svg>
