<svg width="1536" height="740" viewBox="0 0 1536 740" fill="none" xmlns="http://www.w3.org/2000/svg">
<path fill-rule="evenodd" clip-rule="evenodd" d="M-4 0L33.2167 38.246C69.15 76.4921 142.3 152.984 215.45 168.283C289.883 183.581 363.033 137.686 436.183 114.738C509.333 91.7905 582.483 91.7905 655.633 122.387C728.783 152.984 803.217 214.178 876.367 206.529C949.517 198.879 1022.67 122.387 1095.82 84.1413C1168.97 45.8953 1242.12 45.8953 1316.55 38.246C1389.7 30.5968 1462.85 15.2984 1498.78 7.64921L1536 0V740H1498.78C1462.85 740 1389.7 740 1316.55 740C1242.12 740 1168.97 740 1095.82 740C1022.67 740 949.517 740 876.367 740C803.217 740 728.783 740 655.633 740C582.483 740 509.333 740 436.183 740C363.033 740 289.883 740 215.45 740C142.3 740 69.15 740 33.2167 740H-4V0Z" fill="#00EFD8"/>
</svg>
