<svg width="24" height="22" viewBox="0 0 24 22" fill="none" xmlns="http://www.w3.org/2000/svg">
<g clip-path="url(#clip0_109_635)">
<path d="M12.0071 21.5C6.09022 21.5036 1.25841 16.705 1.25032 10.8251C1.24223 4.86328 5.93201 -0.00179739 11.9999 4.98145e-07C18.0435 0.00179838 22.7809 4.80305 22.7494 10.8179C22.718 16.8057 17.8969 21.5 12.0062 21.5H12.0071ZM12.0053 20.2037C17.0366 20.2658 21.4478 16.0902 21.4783 10.8026C21.5089 5.65165 17.2407 1.37448 12.1976 1.28818C6.98017 1.19829 2.58794 5.44399 2.52771 10.6354C2.46658 15.9724 6.91185 20.2783 12.0044 20.2037H12.0053Z" fill="white"/>
<path d="M12.6247 12.2912C12.6247 13.0104 12.6328 13.7295 12.6211 14.4487C12.6157 14.757 12.7353 14.8847 13.0454 14.8721C13.3897 14.8577 13.7349 14.873 14.0792 14.8703C14.4298 14.8676 14.6087 15.0717 14.6464 15.3872C14.686 15.7162 14.5637 15.9814 14.2114 16.074C14.0828 16.1081 13.9471 16.127 13.814 16.127C12.6005 16.1306 11.3869 16.1288 10.1724 16.1297C9.8407 16.1297 9.53147 16.0731 9.39663 15.7216C9.22223 15.2676 9.49461 14.8865 9.99442 14.8721C10.3234 14.8631 10.6533 14.8649 10.9833 14.8703C11.2332 14.8739 11.3725 14.7975 11.3698 14.5116C11.3599 13.3583 11.3608 12.204 11.3698 11.0507C11.3716 10.7918 11.2565 10.7019 11.0174 10.7118C10.8682 10.7181 10.7154 10.7271 10.5688 10.7046C10.2264 10.6534 10.0331 10.4457 10.0268 10.0969C10.0214 9.75172 10.1958 9.49102 10.5374 9.46495C11.0579 9.4263 11.5864 9.42989 12.1078 9.46675C12.4836 9.49372 12.6274 9.77239 12.6256 10.1347C12.6229 10.8538 12.6247 11.573 12.6256 12.2921L12.6247 12.2912Z" fill="white"/>
<path d="M12.9493 6.69532C12.9592 7.26525 12.5771 7.65989 12.0108 7.66438C11.4624 7.66888 11.0804 7.30301 11.0633 6.75465C11.0444 6.15416 11.4292 5.72896 11.9946 5.72446C12.5411 5.71997 12.9403 6.12629 12.9493 6.69442V6.69532Z" fill="white"/>
</g>
<defs>
<clipPath id="clip0_109_635">
<rect width="21.4991" height="21.5" fill="white" transform="translate(1.25043)"/>
</clipPath>
</defs>
</svg>
