<svg width="25" height="22" viewBox="0 0 25 22" fill="none" xmlns="http://www.w3.org/2000/svg">
<g clip-path="url(#clip0_109_630)">
<path d="M22.5011 11.2614C22.5055 17.0313 17.8196 21.7417 12.0839 21.7539C6.24128 21.7671 1.52038 17.175 1.5011 11.2833C1.48094 5.30043 6.27897 0.746033 12.0217 0.746033C17.8424 0.746033 22.5528 5.49586 22.5011 11.2614ZM12.948 12.5925C12.948 12.5925 12.9392 12.5925 12.9349 12.5925C12.9349 12.0238 12.9576 11.4533 12.9287 10.8863C12.8998 10.3263 12.6027 10.0222 12.0489 9.98365C11.5844 9.95035 11.1129 9.9486 10.6493 9.98803C10.3058 10.017 9.89479 10.0932 9.81329 10.4937C9.66782 11.2027 9.78349 11.831 10.7527 11.8538C10.999 11.8599 11.0893 11.9493 11.084 12.1912C11.0735 12.6872 11.0805 13.1832 11.0805 13.6792C11.0805 14.4916 11.0814 14.503 10.2839 14.5801C9.81855 14.6248 9.54776 14.9236 9.383 15.2891C9.24366 15.5976 9.42945 15.9165 9.63977 16.1505C9.8834 16.4222 10.2374 16.4879 10.5941 16.4888C11.5423 16.4914 12.4914 16.4923 13.4396 16.4871C13.5834 16.4871 13.7297 16.4608 13.869 16.4248C14.3984 16.2864 14.5666 15.9954 14.5202 15.3215C14.4921 14.9158 14.2012 14.6406 13.7376 14.588C13.593 14.5713 13.4458 14.5617 13.3012 14.5705C13.0383 14.5871 12.9366 14.4811 12.9436 14.2129C12.9576 13.6731 12.948 13.1333 12.948 12.5934V12.5925ZM10.7554 7.31779C10.7519 8.08197 11.2391 8.592 11.9884 8.60865C12.7131 8.62443 13.2898 8.04604 13.2863 7.30552C13.2828 6.565 12.764 6.03656 12.0199 6.03656C11.3373 6.03656 10.7159 6.40989 10.7562 7.31779H10.7554Z" fill="#00EFD8"/>
</g>
<defs>
<clipPath id="clip0_109_630">
<rect width="21" height="21.0079" fill="white" transform="translate(1.5011 0.746033)"/>
</clipPath>
</defs>
</svg>
