<svg width="25" height="22" viewBox="0 0 25 22" fill="none" xmlns="http://www.w3.org/2000/svg">
<g clip-path="url(#clip0_109_596)">
<path d="M17.5857 13.8395C16.9436 13.8395 16.3015 13.8334 15.6593 13.8413C14.312 13.857 13.3563 15.1251 13.7584 16.4037C13.9844 17.1226 14.3155 17.8092 14.5433 18.5281C14.8797 19.588 14.3803 20.8684 13.4518 21.4272C12.7693 21.8383 12.0081 21.7622 11.2749 21.7036C9.59902 21.5698 8.01955 21.1036 6.57499 20.2098C3.89612 18.5508 2.21854 16.1711 1.68241 13.0935C1.02802 9.34077 2.15021 6.0909 4.94034 3.48645C6.6004 1.93585 8.60036 1.05079 10.8877 0.813785C13.775 0.515559 16.3637 1.25806 18.6028 3.06316C20.7736 4.81316 22.0972 7.08965 22.4143 9.89262C22.4774 10.4532 22.5335 11.0296 22.4774 11.5866C22.3592 12.7559 21.385 13.6594 20.2068 13.7678C19.7723 13.808 19.3351 13.8247 18.8997 13.836C18.4617 13.8474 18.0237 13.8386 17.5866 13.8386L17.5857 13.8395ZM6.74319 8.60002C7.46854 8.60439 8.01868 8.07266 8.0397 7.34852C8.0616 6.59115 7.54212 6.04105 6.79137 6.0253C5.96441 6.00781 5.41864 6.51419 5.41777 7.30042C5.41777 7.98433 6.0415 8.59652 6.74319 8.60089V8.60002ZM17.2852 6.02443C16.474 6.01831 15.9467 6.50457 15.93 7.27505C15.9151 7.97558 16.5546 8.60614 17.2739 8.60002C17.9966 8.59477 18.552 8.04292 18.5537 7.32928C18.5555 6.56316 18.036 6.0288 17.2852 6.02356V6.02443ZM6.73005 12.5837C6.74319 11.8604 6.17553 11.2351 5.46157 11.2534C4.69067 11.2727 4.12564 11.7423 4.11425 12.5154C4.10461 13.2072 4.6127 13.8264 5.43967 13.8413C6.16501 13.8544 6.71691 13.3078 6.73005 12.5837ZM12.0002 3.42873C10.9744 3.44797 10.8106 3.91761 10.6914 4.75981C10.6073 5.35277 11.3738 5.98857 12.0344 5.97808C12.7492 5.96671 13.3072 5.40524 13.2915 4.68635C13.2757 3.98233 12.8289 3.36401 12.0002 3.42873Z" fill="#00EFD8"/>
<path d="M17.2853 6.02448C18.0369 6.02972 18.5555 6.56408 18.5538 7.3302C18.552 8.04384 17.9966 8.59481 17.2739 8.60094C16.5547 8.60618 15.9143 7.97562 15.9301 7.27597C15.9467 6.50636 16.4732 6.0201 17.2853 6.02535V6.02448Z" fill="#00EFD8"/>
</g>
<defs>
<clipPath id="clip0_109_596">
<rect width="21" height="21" fill="white" transform="translate(1.5011 0.75)"/>
</clipPath>
</defs>
</svg>
