<svg width="24" height="22" viewBox="0 0 24 22" fill="none" xmlns="http://www.w3.org/2000/svg">
<g clip-path="url(#clip0_109_601)">
<path d="M11.7056 21.2263C6.68232 21.0703 2.43927 17.4198 1.64408 12.5165C0.754875 7.03111 4.05864 2.06033 9.23659 0.627836C14.9444 -0.951065 20.8753 2.57144 22.2179 8.31282C22.4358 9.24385 22.5738 10.1907 22.4578 11.1752C22.3128 12.4087 20.9579 13.38 19.6654 13.3257C18.3061 13.2696 16.9416 13.2652 15.5823 13.3064C14.2168 13.3476 13.2934 14.7406 13.7318 16.0337C13.8856 16.4879 14.0622 16.9376 14.2731 17.368C15.1403 19.1398 14.2116 21.5165 11.7065 21.2254L11.7056 21.2263ZM17.7368 12.0326L17.7385 12.0685C18.3975 12.0685 19.0565 12.0685 19.7146 12.0685C19.7436 12.0685 19.7735 12.0685 19.8025 12.0685C20.646 12.0422 21.1978 11.5697 21.2347 10.7333C21.2593 10.1705 21.2127 9.59189 21.1055 9.03783C20.1188 3.96097 15.3055 0.68745 10.2532 1.63689C5.34588 2.55829 1.98939 7.40019 2.87596 12.3096C3.71772 16.9709 7.77186 20.013 12.0255 19.9823C13.1062 19.9744 13.4709 19.2599 13.3013 18.3815C13.26 18.1693 13.1581 17.9686 13.0825 17.7634C12.876 17.2041 12.6115 16.6588 12.4736 16.0837C12.0492 14.3084 13.1387 12.3596 15.1983 12.1536C16.0401 12.0694 16.8906 12.0703 17.7376 12.0317L17.7368 12.0326Z" fill="white"/>
<path d="M6.72892 11.6495C6.16482 11.6495 5.77645 11.2462 5.78436 10.6702C5.79139 10.1767 6.20963 9.76376 6.71398 9.75149C7.23327 9.73921 7.66557 10.1556 7.67172 10.6764C7.67963 11.2567 7.29829 11.6504 6.72892 11.6495Z" fill="white"/>
<path d="M8.0434 7.69566C7.47315 7.69741 7.08126 7.29764 7.09005 6.72342C7.09708 6.23774 7.53114 5.82131 8.03549 5.81693C8.58026 5.81255 8.98532 6.20267 8.99059 6.73832C8.99674 7.33008 8.63649 7.6939 8.04428 7.69566H8.0434Z" fill="white"/>
<path d="M12.0264 4.50717C12.5562 4.51593 12.9551 4.9306 12.9437 5.46187C12.9323 6.0133 12.5483 6.39554 12.0035 6.39729C11.4456 6.39904 11.0519 5.987 11.0678 5.41804C11.0827 4.87888 11.4825 4.4984 12.0264 4.50717Z" fill="white"/>
<path d="M15.9768 7.69737C15.3916 7.70263 15.0208 7.33706 15.0129 6.74968C15.0059 6.22543 15.4198 5.81689 15.9593 5.81689C16.4882 5.81689 16.9082 6.23332 16.9056 6.75582C16.9021 7.31865 16.5339 7.69299 15.9777 7.69737H15.9768Z" fill="white"/>
</g>
<defs>
<clipPath id="clip0_109_601">
<rect width="21" height="21" fill="white" transform="translate(1.5 0.25)"/>
</clipPath>
</defs>
</svg>
