<svg width="25" height="22" viewBox="0 0 25 22" fill="none" xmlns="http://www.w3.org/2000/svg">
<path d="M21.3229 11.8496C21.3443 14.5774 21.3701 17.3043 21.3852 20.032C21.3906 21.0039 20.8815 21.7061 20.0538 21.885C19.8545 21.9277 19.6418 21.9188 19.4353 21.9197C18.5008 21.9232 17.5663 21.9215 16.6319 21.9215C15.312 21.9215 14.6632 21.2967 14.6437 19.9715C14.6268 18.8297 14.6419 17.687 14.6392 16.5451C14.6374 15.8047 14.1435 15.2813 13.4004 15.2689C12.4517 15.2529 11.502 15.252 10.5524 15.2689C9.79329 15.2822 9.32961 15.8296 9.31982 16.716C9.30736 17.9023 9.32249 19.0896 9.30825 20.2759C9.29668 21.2308 8.59093 21.9179 7.63688 21.9215C6.59827 21.9259 5.56056 21.9224 4.52196 21.9215C3.35342 21.9215 2.63699 21.2193 2.63432 20.0472C2.62809 17.5107 2.63432 14.9743 2.62809 12.4379C2.62809 12.275 2.55956 12.1113 2.52307 11.9484C2.58092 11.8834 2.63343 11.8122 2.6984 11.7553C4.20246 10.4425 5.70741 9.12983 7.21325 7.8189C8.69684 6.52754 10.1813 5.23885 11.6649 3.9475C11.834 3.80065 11.9835 3.61821 12.2247 3.85227C12.5175 4.13706 12.8201 4.41118 13.1245 4.6844C13.6567 5.16232 14.1871 5.64201 14.73 6.10836C15.3022 6.60052 15.8959 7.06865 16.4654 7.56436C17.035 8.06008 17.5797 8.58339 18.1466 9.08266C19.2012 10.01 20.2639 10.9294 21.3238 11.8514L21.3229 11.8496Z" fill="#00EFD8"/>
<path d="M21.3229 11.8496C20.2639 10.9276 19.2003 10.0092 18.1457 9.08092C17.5788 8.58253 17.0341 8.05834 16.4646 7.56262C15.895 7.0669 15.3014 6.59877 14.7291 6.10662C14.1871 5.64027 13.6558 5.16057 13.1236 4.68265C12.8192 4.41032 12.5166 4.13532 12.2238 3.85053C11.9826 3.61646 11.8331 3.79891 11.664 3.94575C10.1804 5.23711 8.69506 6.5258 7.21236 7.81715C5.70652 9.12809 4.20157 10.4399 2.69751 11.7535C2.63254 11.8105 2.58092 11.8817 2.52219 11.9466C2.25697 12.13 2.01401 12.3729 1.72032 12.4851C1.11602 12.7174 0.44943 12.4166 0.135268 11.8354C-0.142405 11.3228 0.0177913 10.6286 0.520628 10.1907C1.78261 9.09071 3.04816 7.99426 4.30837 6.89158C6.53954 4.94164 8.76804 2.98814 10.9948 1.03197C11.6889 0.422337 12.2959 0.423227 13.0017 1.04176C14.3384 2.21386 15.6769 3.3824 17.0163 4.55272C17.0822 4.60968 17.1543 4.65951 17.2789 4.75563C17.3029 4.60345 17.3305 4.49754 17.335 4.39163C17.3528 4.00716 17.3439 3.62002 17.3803 3.23822C17.4658 2.34558 17.788 2.00116 18.6779 1.92017C19.1612 1.87656 19.6596 1.88012 20.1411 1.94331C20.9581 2.05099 21.3212 2.51022 21.3221 3.33256C21.3247 4.80102 21.3416 6.26948 21.3114 7.73794C21.3016 8.18649 21.4458 8.47662 21.7857 8.75074C22.3971 9.242 22.9908 9.75908 23.563 10.2957C24.1237 10.8217 24.1415 11.5924 23.6511 12.1282C23.1616 12.6631 22.3954 12.7049 21.8124 12.2305C21.6522 12.1006 21.4867 11.9778 21.3238 11.8514L21.3229 11.8496Z" fill="#00EFD8"/>
</svg>
