<svg width="24" height="22" viewBox="0 0 24 22" fill="none" xmlns="http://www.w3.org/2000/svg">
<g clip-path="url(#clip0_109_533)">
<path d="M11.9988 20.3396C9.99391 20.3396 7.98983 20.3404 5.98495 20.3396C5.14818 20.3396 4.78074 19.9456 4.84412 19.1233C5.04549 16.4894 7.22767 14.4453 9.87116 14.4252C11.288 14.4148 12.704 14.4164 14.1208 14.4252C16.7763 14.4404 18.9794 16.4919 19.1936 19.1394C19.2546 19.8911 18.8534 20.3363 18.0921 20.338C16.0607 20.3428 14.0293 20.3396 11.9988 20.3396ZM5.97051 19.1658H18.0271C17.9725 18.8722 17.9476 18.6195 17.8778 18.3804C17.4181 16.7903 15.9404 15.6118 14.2732 15.5676C12.7922 15.5283 11.3088 15.5339 9.82784 15.562C8.7881 15.5821 7.87992 15.9856 7.12899 16.7077C6.44225 17.3687 6.04432 18.1742 5.96971 19.1658H5.97051Z" fill="white"/>
<path d="M8.19282 9.29222C8.19282 7.0274 9.80058 5.38435 12.0165 5.38354C14.1818 5.38354 15.8513 7.07393 15.8361 9.27778C15.8224 11.2843 14.3679 13.1471 11.9611 13.1223C9.58075 13.0974 8.10457 11.2425 8.19282 9.29222ZM11.9723 11.9582C13.5416 11.9622 14.7281 10.7997 14.733 9.25291C14.7378 7.73421 13.5552 6.5324 12.0301 6.50673C10.5226 6.48105 9.26145 7.72458 9.26305 9.23686C9.26466 10.7676 10.4456 11.955 11.9715 11.959L11.9723 11.9582Z" fill="white"/>
<path d="M22.1772 4.16171C22.1732 5.84729 20.8872 7.11889 19.196 7.10926C17.5449 7.09964 16.2637 5.80477 16.2653 4.14406C16.2677 2.51464 17.3869 1.17003 19.2144 1.1596C21.0404 1.14917 22.2157 2.5331 22.1772 4.16171ZM21.0581 4.1216C21.05 3.09308 20.2486 2.31568 19.2032 2.3221C18.1707 2.32932 17.366 3.14764 17.3925 4.16412C17.4174 5.1477 18.2557 5.97244 19.2265 5.96923C20.2173 5.96602 21.0661 5.10919 21.0581 4.1216Z" fill="white"/>
<path d="M7.75155 4.17212C7.73631 5.83924 6.41737 7.12529 4.74142 7.10844C3.10238 7.09239 1.76981 5.76704 1.81553 4.12719C1.86608 2.31084 3.0743 1.16038 4.78555 1.16199C6.52488 1.16359 7.71385 2.36379 7.75155 4.17212ZM4.81122 2.32208C3.7779 2.31325 2.95075 3.10028 2.92829 4.11435C2.90743 5.06665 3.80196 5.966 4.77432 5.97001C5.7555 5.97402 6.63399 5.10356 6.63158 4.1312C6.62917 3.13799 5.81647 2.3309 4.81122 2.32208Z" fill="white"/>
<path d="M19.8242 8.31189C20.4732 8.36644 21.1343 8.36243 21.7689 8.48919C22.8969 8.71463 23.7754 9.70784 23.9326 10.8463C23.9815 11.2017 24.0104 11.5643 23.996 11.9221C23.9783 12.3457 23.7689 12.523 23.3967 12.5094C23.0509 12.4965 22.9217 12.3112 22.8816 11.8844C22.8439 11.4769 22.819 11.0508 22.6811 10.6722C22.4203 9.95494 21.8483 9.56344 21.091 9.53295C20.2245 9.49765 19.3556 9.51771 18.4884 9.53455C18.2814 9.53857 18.0736 9.61799 17.8698 9.67656C17.561 9.76481 17.3074 9.70223 17.1558 9.40699C17.0194 9.14224 17.1446 8.75073 17.4575 8.632C17.8137 8.49721 18.1996 8.41298 18.579 8.37286C18.9882 8.32954 19.4062 8.36324 19.8193 8.36324C19.821 8.34639 19.8218 8.32954 19.8234 8.31269L19.8242 8.31189Z" fill="white"/>
<path d="M4.21514 8.26936C4.96286 8.37285 5.7178 8.44666 6.45509 8.6023C6.63881 8.64081 6.85462 8.92802 6.89875 9.13421C6.98058 9.51368 6.58586 9.79608 6.18071 9.68296C5.03507 9.36366 3.86856 9.50807 2.71489 9.5538C1.87812 9.58669 1.20742 10.4235 1.14966 11.3244C1.13602 11.5378 1.15126 11.7528 1.13682 11.9662C1.11436 12.2895 0.943472 12.4869 0.608924 12.5054C0.255122 12.5246 0.0457282 12.3465 0.0168464 11.9967C-0.151631 10.0023 1.02611 8.31669 3.20027 8.36082C3.53401 8.36723 3.86856 8.36162 4.20311 8.36162C4.20712 8.33033 4.21193 8.29984 4.21594 8.26855L4.21514 8.26936Z" fill="white"/>
</g>
<defs>
<clipPath id="clip0_109_533">
<rect width="24" height="19.1807" fill="white" transform="translate(0 1.15961)"/>
</clipPath>
</defs>
</svg>
