<svg width="25" height="22" viewBox="0 0 25 22" fill="none" xmlns="http://www.w3.org/2000/svg">
<g clip-path="url(#clip0_109_528)">
<path d="M11.9839 20.8379C9.98383 20.8379 7.98456 20.8379 5.98449 20.8379C5.17167 20.8379 4.78605 20.4171 4.85486 19.6099C5.08446 16.9178 7.27334 14.9097 9.98223 14.9065C11.3423 14.9049 12.7023 14.9033 14.0616 14.9065C16.7129 14.9129 18.8961 16.877 19.1777 19.5067C19.2745 20.4067 18.8889 20.8371 17.9833 20.8371C15.9832 20.8371 13.984 20.8371 11.9839 20.8371V20.8379Z" fill="#00EFD8"/>
<path d="M8.19737 9.81754C8.08697 7.73187 9.81743 5.85501 12.0215 5.89101C14.1808 5.92541 15.8464 7.57907 15.8456 9.76394C15.8456 11.7408 14.4264 13.6481 11.9863 13.6401C9.64462 13.6321 8.10937 11.8016 8.19737 9.81754Z" fill="#00EFD8"/>
<path d="M4.79645 7.65906C3.12679 7.65506 1.81315 6.33022 1.81715 4.65496C1.82035 2.96531 3.12599 1.65726 4.80525 1.66126C6.4973 1.66526 7.83175 3.00291 7.81815 4.68456C7.80535 6.34622 6.4677 7.66306 4.79565 7.65906H4.79645Z" fill="#00EFD8"/>
<path d="M19.2305 7.65906C17.5209 7.66226 16.2272 6.36701 16.2264 4.65096C16.2248 2.9741 17.5353 1.66286 19.2129 1.66126C20.8706 1.65966 22.205 2.9925 22.2114 4.65496C22.2178 6.31981 20.8922 7.65586 19.2297 7.65826L19.2305 7.65906Z" fill="#00EFD8"/>
<path d="M15.9392 13.0896C16.0192 12.9352 16.0456 12.8616 16.0896 12.8016C16.8097 11.8232 17.1593 10.7271 17.0905 9.51509C17.0721 9.19428 17.1817 9.04227 17.4777 8.99427C17.7649 8.94787 18.0529 8.86626 18.3401 8.86866C19.3497 8.87666 20.3714 8.82306 21.365 8.95987C22.8971 9.17107 24.1219 10.8559 23.9915 12.392C23.9651 12.7072 23.8075 12.9232 23.5123 13.0104C23.3251 13.0664 23.1203 13.0864 22.9235 13.0872C20.753 13.092 18.5825 13.0904 16.4128 13.0904H15.9384L15.9392 13.0896Z" fill="#00EFD8"/>
<path d="M8.07018 13.0496C7.85977 13.0696 7.75737 13.088 7.65416 13.088C5.44209 13.0896 3.23002 13.092 1.01874 13.088C0.36672 13.0864 -0.0276935 12.7912 0.00270755 12.2784C0.0515092 11.4536 0.291517 10.6823 0.845136 10.0407C1.53876 9.23669 2.41479 8.83268 3.48202 8.86068C4.41245 8.88468 5.34529 8.86708 6.27092 8.94548C6.91414 9.00068 6.86294 9.06148 6.89014 9.6943C6.93494 10.7575 7.17895 11.7744 7.82537 12.6568C7.89977 12.7576 7.95897 12.8696 8.06938 13.0488L8.07018 13.0496Z" fill="#00EFD8"/>
</g>
<defs>
<clipPath id="clip0_109_528">
<rect width="24" height="19.1774" fill="white" transform="translate(0.00109863 1.66125)"/>
</clipPath>
</defs>
</svg>
