<svg width="25" height="22" viewBox="0 0 25 22" fill="none" xmlns="http://www.w3.org/2000/svg">
<g clip-path="url(#clip0_109_579)">
<path d="M20.5011 19.2545C20.4539 19.9151 20.0274 20.4719 19.4224 20.6229C18.7694 20.7852 18.0324 20.4172 17.7256 19.7273C17.3878 18.9676 17.083 18.1928 16.7753 17.4199C16.3733 16.4092 16.378 16.4073 15.2909 16.4073C12.8835 16.4073 10.4761 16.4149 8.06866 16.3988C7.71383 16.397 7.5383 16.5055 7.4109 16.8386C7.05417 17.7776 6.6597 18.7024 6.28222 19.6329C5.98967 20.3549 5.43477 20.7116 4.70622 20.6437C4.14283 20.5908 3.58037 20.1029 3.50771 19.4829C3.4709 19.163 3.57188 18.7987 3.69928 18.491C5.57255 13.9829 7.45997 9.48145 9.34267 4.97806C9.80886 3.86259 10.2647 2.74335 10.7394 1.63166C10.9659 1.1013 11.4047 0.838001 11.969 0.833283C12.5296 0.827621 12.9656 1.08337 13.2374 1.58731C13.2893 1.68357 13.3365 1.78454 13.3789 1.88552C14.0924 3.57759 14.8077 5.26872 15.5155 6.96363C16.6517 9.68717 17.7823 12.4126 18.9147 15.1371C19.3847 16.2677 19.8603 17.3963 20.319 18.5307C20.4115 18.7591 20.4416 19.012 20.5011 19.2536V19.2545ZM12.0558 6.09352C12.0039 6.09541 11.9511 6.09636 11.8992 6.09824C10.863 8.55661 9.82774 11.015 8.77267 13.5177H15.1446C14.0952 10.9952 13.075 8.54434 12.0558 6.09447V6.09352Z" fill="#00EFD8"/>
<path d="M19.4036 0.634155H18.3863C17.7801 0.634155 17.2887 1.12554 17.2887 1.73169V20.7682C17.2887 21.3744 17.7801 21.8658 18.3863 21.8658H19.4036C20.0097 21.8658 20.5011 21.3744 20.5011 20.7682V1.73169C20.5011 1.12554 20.0097 0.634155 19.4036 0.634155Z" fill="#00EFD8"/>
</g>
<defs>
<clipPath id="clip0_109_579">
<rect width="17" height="21.2316" fill="white" transform="translate(3.50111 0.634155)"/>
</clipPath>
</defs>
</svg>
