<svg width="24" height="22" viewBox="0 0 24 22" fill="none" xmlns="http://www.w3.org/2000/svg">
<g clip-path="url(#clip0_109_584)">
<path d="M3.46326 19.971C2.78476 19.9729 2.478 19.4932 2.68346 18.979C3.11446 17.9011 3.56839 16.8327 4.01945 15.7633C5.92404 11.2508 7.83054 6.7392 9.73705 2.22666C9.97213 1.67048 10.2149 1.11716 10.4394 0.556204C10.5685 0.232242 10.7586 0.0114888 11.1304 2.11166e-05C11.5203 -0.0114466 11.741 0.197839 11.8844 0.539002C13.4468 4.26027 15.0112 7.98058 16.5804 11.699C17.5504 13.9973 18.5289 16.2918 19.5056 18.5872C19.8047 19.2906 19.7378 19.7034 19.2801 19.9089C18.85 20.1019 18.5624 19.8993 18.2461 19.1568C17.816 18.1467 17.385 17.1375 16.9779 16.1188C16.8537 15.8082 16.6922 15.6859 16.3463 15.6878C12.8754 15.7002 9.40353 15.6993 5.93264 15.6897C5.63352 15.6897 5.48922 15.7805 5.37455 16.0653C4.92444 17.1853 4.45618 18.2996 3.95733 19.3986C3.84074 19.6547 3.57603 19.8429 3.46231 19.971H3.46326ZM6.14575 14.2859H16.1809C14.5076 10.3104 12.8706 6.42288 11.2336 2.53438C11.1791 2.54871 11.1246 2.56209 11.0692 2.57643C9.43889 6.45346 7.80856 10.3305 6.14575 14.2859Z" fill="white"/>
<path d="M19.9997 20.81C19.9997 21.1911 20.3086 21.5 20.6896 21.5C21.0707 21.5 21.3796 21.1911 21.3796 20.81L21.3796 0.689972C21.3796 0.30891 21.0707 0 20.6896 0C20.3086 0 19.9997 0.30891 19.9997 0.689972L19.9997 20.81Z" fill="white"/>
</g>
<defs>
<clipPath id="clip0_109_584">
<rect width="18.7592" height="21.5" fill="white" transform="translate(2.62039)"/>
</clipPath>
</defs>
</svg>
